<?xml version="1.0" encoding="utf-8"?>
<!-- Generator: Adobe Illustrator 14.0.0, SVG Export Plug-In . SVG Version: 6.00 Build 43363)  -->
<!DOCTYPE svg PUBLIC "-//W3C//DTD SVG 1.1//EN" "http://www.w3.org/Graphics/SVG/1.1/DTD/svg11.dtd">
<svg version="1.1" id="图层_1" xmlns="http://www.w3.org/2000/svg" xmlns:xlink="http://www.w3.org/1999/xlink" x="0px" y="0px"
	 width="295px" height="295px" viewBox="0 0 295 295" enable-background="new 0 0 295 295" xml:space="preserve">
<g>
	<path fill-rule="evenodd" clip-rule="evenodd" fill="#FFFFFF" d="M186,93c-29.061,9.606-62.154,15.179-92,24c0-8,0-16,0-24
		C124.667,93,155.333,93,186,93z"/>
	<path fill-rule="evenodd" clip-rule="evenodd" fill="#FFFFFF" d="M202,130c-24.014-2.32-52.323-0.343-78-1
		c22.296-8.704,50.102-11.898,73-20c0.149-7.15-3.124-10.876-5-16"/>
	<path fill-rule="evenodd" clip-rule="evenodd" fill="#FFFFFF" d="M188,111c-3.868-0.535-4.882,1.785-9,1
		c-4.268-3.732-8.393-7.608-13-11C175.486,94.062,182.898,104.854,188,111z"/>
	<path fill-rule="evenodd" clip-rule="evenodd" fill="#FFFFFF" d="M150,104c3.935,4.732,10.511,6.823,13,13
		c-10.986,4.214-13.988-6.127-21-9C142.083,104.083,147.417,105.417,150,104z"/>
	<path fill-rule="evenodd" clip-rule="evenodd" fill="#FFFFFF" d="M138,122c-9.466,7.615-14.847-4.628-22-8
		C124.815,105.348,131.881,118.622,138,122z"/>
	<path fill-rule="evenodd" clip-rule="evenodd" fill="#FFFFFF" d="M96,117c8.542,0.791,11.858,6.809,16,12
		C101.464,130.202,95.278,127.055,96,117z"/>
	<path fill-rule="evenodd" clip-rule="evenodd" fill="#FFFFFF" d="M94,121c7.124,5.209,1.194,23.472,10,27
		c0.646,17.354-1.305,37.305,1,53c-3.667,0-7.333,0-11,0C94,174.333,94,147.667,94,121z"/>
	<path fill-rule="evenodd" clip-rule="evenodd" fill="#FFFFFF" d="M140,130c-2.607,5.393-6.669,9.331-9,15c-3,0-6,0-9,0
		C126.198,138.198,126.981,127.981,140,130z"/>
	<path fill-rule="evenodd" clip-rule="evenodd" fill="#FFFFFF" d="M166,130c-1.54,6.126-6.098,9.235-8,15c-3,0-6,0-9,0
		C153.128,138.462,153.338,128.005,166,130z"/>
	<path fill-rule="evenodd" clip-rule="evenodd" fill="#FFFFFF" d="M192,130c-2.18,5.82-5.967,10.033-9,15c-3,0-6,0-9,0
		C179.134,139.133,178.683,127.682,192,130z"/>
	<path fill-rule="evenodd" clip-rule="evenodd" fill="#FFFFFF" d="M113,131c-3.258,5.409-4.199,13.134-12,14
		C97.115,136.247,104.006,130.154,113,131z"/>
	<path fill-rule="evenodd" clip-rule="evenodd" fill="#FFFFFF" d="M202,145c-0.475,11.32,0.618,30.955,0,45
		c-0.139,3.155,2.335,10.867-3,11c-1,0-2,0-3,0c2.258-16.075,0.389-36.278,1-54c1.862-0.138,3.342-0.658,4-2
		C201.333,145,201.667,145,202,145z"/>
	<path fill-rule="evenodd" clip-rule="evenodd" fill="#FFFFFF" d="M184,161c-22.014-1.319-49.315,2.648-68-2
		c0.81-0.19,0.997-1.003,2-1c10.588,0,22.828,0,35,0C163.983,158,176.998,155.537,184,161z"/>
	<path fill-rule="evenodd" clip-rule="evenodd" fill="#FFFFFF" d="M184,175c-22.667,0-45.333,0-68,0
		C133.4,171.722,165.56,171.681,184,175z"/>
	<path fill-rule="evenodd" clip-rule="evenodd" d="M186,93c2,0,4,0,6,0c1.876,5.124,5.149,8.85,5,16
		c-22.898,8.102-50.704,11.296-73,20c25.677,0.657,53.986-1.32,78,1c0,5,0,10,0,15c-0.333,0-0.667,0-1,0
		c-0.658,1.342-2.138,1.862-4,2c-0.611,17.722,1.258,37.925-1,54c-30.333,0-60.667,0-91,0c-2.305-15.695-0.354-35.646-1-53
		c-8.806-3.528-2.876-21.791-10-27c0-1.333,0-2.667,0-4C123.846,108.179,156.939,102.606,186,93z M142,108
		c7.012,2.873,10.014,13.214,21,9c-2.489-6.177-9.065-8.268-13-13C147.417,105.417,142.083,104.083,142,108z M166,101
		c4.607,3.392,8.732,7.268,13,11c4.118,0.785,5.132-1.535,9-1C182.898,104.854,175.486,94.062,166,101z M116,114
		c7.153,3.372,12.534,15.615,22,8C131.881,118.622,124.815,105.348,116,114z M112,129c-4.142-5.191-7.458-11.209-16-12
		C95.278,127.055,101.464,130.202,112,129z M122,145c3,0,6,0,9,0c2.331-5.669,6.393-9.607,9-15
		C126.981,127.981,126.198,138.198,122,145z M149,145c3,0,6,0,9,0c1.902-5.765,6.46-8.874,8-15
		C153.338,128.005,153.128,138.462,149,145z M174,145c3,0,6,0,9,0c3.033-4.967,6.82-9.18,9-15
		C178.683,127.682,179.134,139.133,174,145z M101,145c7.801-0.866,8.742-8.591,12-14C104.006,130.154,97.115,136.247,101,145z
		 M153,158c-12.172,0-24.412,0-35,0c-1.003-0.003-1.19,0.81-2,1c18.685,4.648,45.986,0.681,68,2
		C176.998,155.537,163.983,158,153,158z M116,175c22.667,0,45.333,0,68,0C165.56,171.681,133.4,171.722,116,175z"/>
</g>
</svg>
