<svg width="29" height="29" viewBox="0 0 29 29" xmlns="http://www.w3.org/2000/svg"><g fill="none" fill-rule="evenodd"><rect fill="#8E8E93" width="29" height="29" rx="6"/><g fill="#FFF"><path d="M19.375 13.038V9.75C19.375 7.127 17.192 5 14.5 5 11.81 5 9.626 7.127 9.626 9.75v3.288H7V24h15V13.038h-2.625zm-4.5 5.8v1.508h-.75V18.84A1.47 1.47 0 0 1 13 17.422c0-.807.672-1.46 1.5-1.46s1.5.653 1.5 1.46a1.47 1.47 0 0 1-1.125 1.416zm3.75-5.8h-8.25V9.75c0-2.216 1.85-4.02 4.126-4.02 2.275 0 4.125 1.804 4.125 4.02v3.288z"/><path d="M14.5 16.692a.74.74 0 0 0-.75.73c0 .404.336.732.75.732a.74.74 0 0 0 .75-.73.74.74 0 0 0-.75-.732z"/></g></g></svg>