<svg width="29" height="29" viewBox="0 0 29 29" xmlns="http://www.w3.org/2000/svg"><g fill="none" fill-rule="evenodd"><rect fill="#8E8E93" width="29" height="29" rx="6"/><path d="M22.225 18.305c-.703-.723-2.702-2.076-4.012-2.076-.303 0-.568.066-.785.206-.64.41-1.15.727-1.397.727-.133 0-.278-.12-.596-.395l-.053-.048c-.88-.766-1.068-.963-1.41-1.32l-.086-.09-.17-.174c-.298-.31-.514-.53-1.28-1.397l-.034-.04c-.366-.414-.607-.683-.62-.88-.015-.193.153-.506.582-1.09.52-.702.54-1.57.062-2.576-.38-.794-1-1.555-1.55-2.225l-.05-.058c-.47-.578-1.02-.867-1.63-.867-.68 0-1.244.366-1.542.558-.024.015-.048.034-.072.05-.67.422-1.156 1.005-1.34 1.597-.274.89-.457 2.047.858 4.45 1.137 2.08 2.167 3.477 3.805 5.158 1.54 1.58 2.224 2.09 3.756 3.198 1.704 1.233 3.34 1.94 4.487 1.94 1.065 0 1.903 0 3.097-1.44 1.252-1.51.732-2.436-.02-3.21z" fill="#FFF"/></g></svg>