<svg fill="#757575" xmlns="http://www.w3.org/2000/svg" width="24" height="24" viewBox="0 0 24 24"><path d="M20 1.5h-4v2h2.6l-2.1 2.1c-1-.7-2.2-1.1-3.5-1.1s-2.6.4-3.6 1.2c-.5-.1-.9-.2-1.4-.2-3.3 0-6 2.7-6 6 0 3 2.2 5.4 5 5.9v1.1H3v2h4v2h2v-2h4v-2H9v-1.1c.9-.2 1.8-.5 2.6-1.1.5.1.9.2 1.4.2 3.3 0 6-2.7 6-6 0-1.3-.4-2.5-1.1-3.5L20 4.9v2.6h2v-6h-2zM11.1 14C9.9 13.3 9 12 9 10.5c0-.9.3-1.8.9-2.5 1.2.7 2.1 2 2.1 3.5 0 .9-.3 1.8-.9 2.5zM8 15.5c-2.2 0-4-1.8-4-4 0-2.1 1.7-3.9 3.8-4-.5.9-.8 1.9-.8 3 0 1.9.9 3.7 2.3 4.8-.4.1-.8.2-1.3.2zm5.2-1c.5-.9.8-1.9.8-3 0-1.9-.9-3.7-2.3-4.8.4-.2.9-.2 1.3-.2 2.2 0 4 1.8 4 4 0 2.1-1.7 3.9-3.8 4z"/></svg>