<?xml version="1.0" encoding="utf-8"?>
<!-- Generator: Adobe Illustrator 14.0.0, SVG Export Plug-In . SVG Version: 6.00 Build 43363)  -->
<!DOCTYPE svg PUBLIC "-//W3C//DTD SVG 1.1//EN" "http://www.w3.org/Graphics/SVG/1.1/DTD/svg11.dtd">
<svg version="1.1" id="图层_1" xmlns="http://www.w3.org/2000/svg" xmlns:xlink="http://www.w3.org/1999/xlink" x="0px" y="0px"
	 width="141.73px" height="141.73px" viewBox="0 0 141.73 141.73" enable-background="new 0 0 141.73 141.73" xml:space="preserve">
<g>
	<path d="M71.491,22.777c-11.546,5.396-23.673,5.633-32.396,13.161c-5.875,5.07-6.877,12.748-14.174,16.197
		C27.477,34.634,50.372,18.376,71.491,22.777z"/>
	<path d="M115.023,71.372c-2.592-25.755-16.156-40.536-39.482-45.557c-0.535-0.814-1.057-1.645-1.012-3.037
		c0.813-0.536,1.643-1.056,3.037-1.012C93.4,25.103,107.111,34.541,114.011,49.1C116.963,55.326,122.092,66.837,115.023,71.372z"/>
	<path d="M108.949,78.459c-4.672-0.78-1.463-8.91-2.025-13.162c-2.827-21.397-22.536-35.246-44.544-32.396
		c-4.153,0.538-7.143,4.07-12.147,2.024C78.889,15.002,119.836,45.792,108.949,78.459z"/>
	<path d="M49.219,34.926c-6.745,10.606-17.676,17.403-18.223,33.409c-0.333,9.762,5.502,20.998-1.012,30.371
		C25.214,74.926,26.016,41.361,49.219,34.926z"/>
	<path d="M78.578,38.976C75.56,43.997,69.862,40.408,65.417,41c-13.951,1.861-25.476,12.714-26.321,28.348
		c-0.646,11.953,6.907,27.898-4.05,36.445c-2.639-5.287,1.494-8.049,2.025-13.162c0.741-7.139-2.077-13.93-2.025-21.259
		C35.209,48.476,53.943,32.146,78.578,38.976z"/>
	<path d="M82.627,41c0.677,0,1.351,0,2.025,0c16.563,5.281,21.686,33.438,19.234,55.683c-0.353,3.196,0.317,8.971-4.05,10.123
		c-0.465-19.328,2.384-43.521-8.1-55.682C88.541,47.414,83.465,46.768,82.627,41z"/>
	<path d="M89.715,59.223c-7.84-8.474-18.891-13.23-29.358-9.111C43.771,56.635,49.5,74.695,47.194,91.619
		c-4.691-1.576-1.633-7.504-2.025-11.137c-0.986-9.161-3.305-17.579,2.025-25.31C56.887,41.115,87.713,41.07,89.715,59.223z"/>
	<path d="M82.627,116.928c-1.799-17.755,13.332-66.99-20.247-60.742C91.67,38.009,93.137,98.184,82.627,116.928z"/>
	<path d="M22.897,54.161c1.635-0.285,1.743,0.957,3.037,1.012c-3.981,9.493-0.421,24.161-1.014,32.397
		C17.134,83.148,18.901,61.411,22.897,54.161z"/>
	<path d="M59.343,58.21c-9.261,14.444,3.135,45.435-11.136,55.681c-2.709-6.937,4.698-12.17,5.063-23.283
		C53.661,78.643,47,64.429,56.306,58.21C57.318,58.21,58.331,58.21,59.343,58.21z"/>
	<path d="M78.578,88.582c-3.301-8.518-1.641-33.56-15.186-22.271c-0.259,15.824,4.745,43.189-9.112,50.617
		c7.292-13.997,7.054-31.321,5.062-50.617C70.732,48.226,87.582,74.266,78.578,88.582z"/>
	<path d="M89.715,61.248c0.675,0,1.351,0,2.023,0c6.754,11.286,6.188,43.601-2.023,52.644C92.492,96.842,93.949,77.82,89.715,61.248
		z"/>
	<path d="M68.454,67.322c6.038,6.756,6.546,33.055-1.012,38.471C69.096,95.102,68.188,79.482,68.454,67.322z"/>
	<path d="M108.949,82.508c1.012,0,2.025,0,3.037,0c-0.439,4.621,1.022,11.146-1.012,14.175
		C105.682,96.91,107.957,85.316,108.949,82.508z"/>
	<path d="M77.566,92.631c4.186,7.236-0.074,22.619-6.075,26.322C71.028,111.6,76.088,101.381,77.566,92.631z"/>
	<path d="M43.145,97.693c1.35,0,2.7,0,4.049,0c-1.955,4.795-1.156,12.342-8.099,12.147C39.291,104.639,42.756,102.705,43.145,97.693
		z"/>
	<path d="M64.405,108.83c1.012,0,2.025,0,3.037,0c-0.005,5.058-0.882,9.242-5.063,10.123
		C59.435,115.268,64.362,112.691,64.405,108.83z"/>
</g>
</svg>
