<?xml version="1.0" encoding="utf-8"?>
<!-- Generator: Adobe Illustrator 14.0.0, SVG Export Plug-In . SVG Version: 6.00 Build 43363)  -->
<!DOCTYPE svg PUBLIC "-//W3C//DTD SVG 1.1//EN" "http://www.w3.org/Graphics/SVG/1.1/DTD/svg11.dtd">
<svg version="1.1" id="图层_1" xmlns="http://www.w3.org/2000/svg" xmlns:xlink="http://www.w3.org/1999/xlink" x="0px" y="0px"
	 width="141.73px" height="141.73px" viewBox="0 0 141.73 141.73" enable-background="new 0 0 141.73 141.73" xml:space="preserve">
<image overflow="visible" width="256" height="243" xlink:href="c0e0cf7243c2ea413b27ad96d378891a.png"  transform="matrix(1.#QNB 1.#QNB 1.#QNB 1.#QNB 1.#QNB 1.#QNB)">
</image>
<g>
	<path fill-rule="evenodd" clip-rule="evenodd" d="M33.515,12.348c11.498-1.738,26.402-0.45,42.3-0.45
		c23.017,0,42.983-3.706,49.5,11.25c4.012,9.207,1.35,21.027,1.35,33.3c0,21.387,2.71,39.514-11.7,45.45
		c-8.824,3.636-29.958,1.35-42.75,1.35c-7.956,0-15.092,0-22.05,0c-7.791,0-16.083,0.923-21.6-1.35
		c-4.542-1.871-9.493-7.881-10.8-11.7c-2.451-7.16-0.9-24.705-0.9-33.75c0-6.564,0-13.361,0-17.55c0-4.176-0.681-11.089,1.35-15.75
		C20.634,17.595,26.543,13.402,33.515,12.348z M62.315,37.998c-6.51-4.796-17.753-1.041-16.2,9
		c-13.641,1.995-15.535,18.517-8.1,25.65c6.019,5.773,20.027,4.05,34.65,4.05c10.504,0,20.543,0.691,26.55,0
		c16.331-1.879,16.612-27.126,0-30.15C101.553,23.194,67.492,20.362,62.315,37.998z M21.365,92.898c9.158,9.343,29.317,6.3,50.4,6.3
		c20.354,0,40.915,2.914,48.149-5.4c-2.956,3.265-11.116,1.329-15.75,0c1.15-2.306,2.713-6.579,2.25-9
		c-6.11-0.41-17.627-3.152-30.149-4.05c-13.392-0.959-27.056,4.134-35.101,2.7c-0.075,1.743-1.558,1.603-3.15,1.35
		c0.676,3.374,1.486,6.614,2.7,9.45C33.717,95.803,24.268,96.357,21.365,92.898z"/>
	<path fill-rule="evenodd" clip-rule="evenodd" d="M24.515,118.998c9.068,4.868,27.987,3.15,47.25,3.15
		c18.242,0,36.03,2.029,46.35-3.15c0.936-0.503,0.953-0.485,0.45,0.45c-10.009,5.541-27.658,3.6-46.8,3.6
		C52.497,123.048,34.377,125.256,24.515,118.998z"/>
</g>
</svg>
