<?xml version="1.0" encoding="utf-8"?>
<!-- Generator: Adobe Illustrator 14.0.0, SVG Export Plug-In . SVG Version: 6.00 Build 43363)  -->
<!DOCTYPE svg PUBLIC "-//W3C//DTD SVG 1.1//EN" "http://www.w3.org/Graphics/SVG/1.1/DTD/svg11.dtd">
<svg version="1.1" id="图层_1" xmlns="http://www.w3.org/2000/svg" xmlns:xlink="http://www.w3.org/1999/xlink" x="0px" y="0px"
	 width="141.73px" height="141.73px" viewBox="0 0 141.73 141.73" enable-background="new 0 0 141.73 141.73" xml:space="preserve">
<g>
	<path fill="#FFFFFF" d="M33.515,27.848c11.498-1.738,26.401-0.45,42.3-0.45c23.017,0,42.982-3.706,49.5,11.25
		c4.012,9.207,1.35,21.026,1.35,33.3c0,21.387,2.71,39.514-11.7,45.45c-8.823,3.636-29.958,1.35-42.75,1.35
		c-7.956,0-15.092,0-22.05,0c-7.791,0-16.083,0.923-21.6-1.35c-4.542-1.871-9.493-7.881-10.8-11.7c-2.451-7.16-0.9-24.705-0.9-33.75
		c0-6.564,0-13.361,0-17.55c0-4.176-0.681-11.089,1.35-15.75C20.634,33.095,26.543,28.902,33.515,27.848z M62.315,53.498
		c-6.51-4.796-17.753-1.041-16.2,9c-13.641,1.995-15.535,18.518-8.1,25.65c6.019,5.772,20.026,4.05,34.649,4.05
		c10.504,0,20.543,0.691,26.55,0c16.331-1.879,16.612-27.126,0-30.15C101.553,38.694,67.492,35.862,62.315,53.498z M21.365,108.398
		c9.158,9.343,29.317,6.3,50.4,6.3c20.354,0,40.915,2.914,48.148-5.4c-2.956,3.266-11.116,1.329-15.75,0
		c1.15-2.306,2.713-6.579,2.25-9c-6.109-0.409-17.627-3.151-30.148-4.05c-13.393-0.959-27.057,4.134-35.102,2.7
		c-0.075,1.743-1.558,1.603-3.149,1.35c0.676,3.374,1.485,6.614,2.699,9.45C33.717,111.303,24.268,111.857,21.365,108.398z"/>
</g>
</svg>
