<?xml version="1.0" encoding="utf-8"?>
<!-- Generator: Adobe Illustrator 14.0.0, SVG Export Plug-In . SVG Version: 6.00 Build 43363)  -->
<!DOCTYPE svg PUBLIC "-//W3C//DTD SVG 1.1//EN" "http://www.w3.org/Graphics/SVG/1.1/DTD/svg11.dtd">
<svg version="1.1" id="图层_1" xmlns="http://www.w3.org/2000/svg" xmlns:xlink="http://www.w3.org/1999/xlink" x="0px" y="0px"
	 width="141.73px" height="141.73px" viewBox="0 0 141.73 141.73" enable-background="new 0 0 141.73 141.73" xml:space="preserve">
<g>
	<path fill-rule="evenodd" clip-rule="evenodd" d="M122.065,122.064c-34.133,0-68.267,0-102.4,0c0-34.133,0-68.266,0-102.399
		c34.133,0,68.267,0,102.4,0C122.065,53.798,122.065,87.932,122.065,122.064z M20.766,20.965c0,33.267,0,67.066,0,100
		c3.917,0.076,8.306,0,13,0c0.635,0,1.63-0.241,1.8,0.3c1.016-0.529,2.195-0.3,3.3-0.3c18.002,0,36.263,0,54.1,0
		c-0.167,0.095-0.351,0.37,0.1,0.3c0.336-0.597,1.694-0.172,2.5-0.3c0.17-0.022,0.247,0.113,0,0.1c0.337,0.195,0.719-0.063,1.1-0.1
		c0.502-0.047,1.063,0,1.601,0c7.538,0,15.449,0,22.8,0c0-33.433,0-66.867,0-100.3c-33.4,0-66.799,0-100.2,0
		C20.749,20.682,20.757,20.823,20.766,20.965z"/>
	<path fill-rule="evenodd" clip-rule="evenodd" d="M95.865,42.565c1.307,3.218,2.475,6.429,3.8,10c0.33,0.889,1.329,2.481,1.301,3.3
		c-0.026,0.731-1.317,2.112-1.9,2.9c-1.539,2.082-2.472,3.361-4,5.4c-0.615,0.821-1.324,2.223-2,2.7
		c-0.837,0.591-2.335,0.807-3.4,1.2c-3.29,1.213-6.703,2.637-10,3.8c0.438,1.945-0.349,3.421-1.199,4.399
		c1.126,3.041,2.255,6.079,3.3,9.2c2.697-0.097,3.824,1.376,4.6,3.2c7.73-0.104,15.548-0.12,23.4-0.1c0.06-0.94-0.125-2.125,0.1-2.9
		c0.378-0.551,1.276-0.904,2.2-0.6c-1.013-3.042,2.248-5.246,3.4-2.801c0.733,1.558,0.199,5.059,0.199,8c0,1.485,0,2.812,0,4.101
		c0,2.401,0.345,4.912-1.8,4.899c-1.617-0.009-1.831-1.723-1.7-3.699c-1.982,0.435-2.74-1.003-2.399-3.2
		c-5.29-0.165-11.979-0.3-17.9-0.3c-2.038,0-4.46-0.41-6,0c-0.881,0.234-1.444,1.329-2.2,1.6c-4.292,1.54-7.422-3.585-4.6-6.8
		c-1.167-3.134-2.332-6.268-3.4-9.5c-1.94-0.192-3.189-1.077-3.899-2.5c-3.188,1.146-6.329,2.356-9.7,3.6
		c-0.903,0.333-2.374,1.201-3.2,1.2c-0.894-0.001-2.566-1.086-3.5-1.5c-3.467-1.537-6.813-3.058-10.2-4.5
		c-0.513-1.82-1.294-3.373-1.8-5.2c-5.672,0.095-11.32,0.213-17.1,0.2C49.386,59.954,72.842,51.039,95.865,42.565z M47.866,70.765
		c1.941,0.705,2.616-2.954,0.3-2.5C46.759,68.541,46.948,70.432,47.866,70.765z"/>
	<path fill-rule="evenodd" clip-rule="evenodd" fill="#FFFFFF" d="M48.166,68.265c2.316-0.454,1.641,3.205-0.3,2.5
		C46.948,70.432,46.759,68.541,48.166,68.265z"/>
	<path fill-rule="evenodd" clip-rule="evenodd" d="M42.465,69.765c0.515,1.652,1.195,3.139,1.7,4.8
		c4.336,1.863,8.532,3.867,12.9,5.699c-4.719,1.948-9.647,3.687-14.5,5.5c-0.624-1.609-1.213-3.253-1.8-4.899
		c-0.822,0.077-1.253,0.547-2.1,0.6c-0.971-2.896-2.164-5.569-3.1-8.5c0.673-0.193,1.273-0.46,1.9-0.7
		c-0.213-0.754-0.737-1.728-0.7-2.399C38.468,69.634,40.597,69.83,42.465,69.765z"/>
	<path fill-rule="evenodd" clip-rule="evenodd" d="M37.965,83.465c-1.14,0.227-1.934,0.799-3.1,1c-1.315-3.919-2.865-7.602-4.2-11.5
		c0.959-0.374,1.995-0.672,2.9-1.1C35.178,75.586,36.561,79.536,37.965,83.465z"/>
	<path fill-rule="evenodd" clip-rule="evenodd" fill="#FFFFFF" d="M19.666,122.064c34.133,0,68.267,0,102.4,0
		C88.166,122.231,53.565,122.231,19.666,122.064z"/>
</g>
</svg>
