<?xml version="1.0" encoding="utf-8"?>
<!-- Generator: Adobe Illustrator 14.0.0, SVG Export Plug-In . SVG Version: 6.00 Build 43363)  -->
<!DOCTYPE svg PUBLIC "-//W3C//DTD SVG 1.1//EN" "http://www.w3.org/Graphics/SVG/1.1/DTD/svg11.dtd">
<svg version="1.1" id="图层_1" xmlns="http://www.w3.org/2000/svg" xmlns:xlink="http://www.w3.org/1999/xlink" x="0px" y="0px"
	 width="141.73px" height="141.73px" viewBox="0 0 141.73 141.73" enable-background="new 0 0 141.73 141.73" xml:space="preserve">
<g>
	<path fill="#FFFFFF" d="M103.841,19.01c1.725,5.792,3.268,11.572,5.016,18c0.437,1.601,1.756,4.466,1.718,5.939
		c-0.032,1.317-1.735,3.802-2.505,5.222c-2.032,3.748-3.266,6.048-5.281,9.719c-0.812,1.479-1.747,4.003-2.639,4.86
		c-1.105,1.064-3.082,1.452-4.489,2.161c-4.341,2.182-8.848,4.746-13.2,6.839c0.579,3.502-0.46,6.158-1.581,7.92
		c1.485,5.475,2.979,10.94,4.358,16.56c3.558-0.175,5.045,2.477,6.072,5.761c10.203-0.187,20.521-0.217,30.887-0.179
		c0.08-1.693-0.163-3.826,0.132-5.223c0.499-0.99,1.685-1.626,2.905-1.078c-1.337-5.476,2.967-9.441,4.485-5.04
		c0.97,2.803,0.263,9.104,0.263,14.398c0,2.672,0,5.062,0,7.38c0,4.324,0.457,8.842-2.374,8.82c-2.136-0.02-2.417-3.104-2.245-6.658
		c-2.613,0.78-3.617-1.806-3.166-5.763c-6.982-0.296-15.813-0.537-23.627-0.537c-2.69,0-5.887-0.738-7.92,0
		c-1.163,0.419-1.905,2.391-2.904,2.878c-5.665,2.771-9.797-6.454-6.072-12.24c-1.54-5.64-3.079-11.28-4.488-17.101
		c-2.558-0.347-4.207-1.938-5.146-4.5c-4.209,2.063-8.354,4.242-12.804,6.479c-1.192,0.602-3.135,2.162-4.224,2.161
		c-1.18-0.002-3.387-1.955-4.621-2.7c-4.576-2.767-8.992-5.504-13.464-8.1c-0.677-3.275-1.708-6.072-2.376-9.361
		c-7.486,0.172-14.942,0.383-22.571,0.361C42.489,50.31,73.45,34.263,103.841,19.01z M40.483,69.771
		c2.563,1.27,3.454-5.319,0.395-4.5C39.02,65.767,39.27,69.172,40.483,69.771z"/>
	<path fill="#FFFFFF" d="M40.878,65.271c3.059-0.819,2.169,5.77-0.395,4.5C39.27,69.172,39.02,65.767,40.878,65.271z"/>
	<path fill="#FFFFFF" d="M33.352,67.971c0.682,2.972,1.577,5.648,2.244,8.639c5.723,3.354,11.263,6.961,17.028,10.259
		c-6.229,3.505-12.735,6.636-19.14,9.9c-0.824-2.897-1.602-5.857-2.376-8.819c-1.086,0.138-1.653,0.984-2.773,1.079
		c-1.282-5.213-2.857-10.024-4.093-15.3c0.889-0.349,1.679-0.829,2.506-1.259c-0.28-1.359-0.97-3.111-0.921-4.321
		C28.076,67.734,30.887,68.088,33.352,67.971z"/>
	<path fill="#FFFFFF" d="M27.412,92.63c-1.504,0.409-2.551,1.439-4.092,1.802c-1.737-7.056-3.781-13.685-5.544-20.7
		c1.266-0.674,2.634-1.21,3.829-1.979C23.734,78.448,25.559,85.557,27.412,92.63z"/>
</g>
</svg>
