<?xml version="1.0" encoding="utf-8"?>
<!-- Generator: Adobe Illustrator 14.0.0, SVG Export Plug-In . SVG Version: 6.00 Build 43363)  -->
<!DOCTYPE svg PUBLIC "-//W3C//DTD SVG 1.1//EN" "http://www.w3.org/Graphics/SVG/1.1/DTD/svg11.dtd">
<svg version="1.1" id="图层_1" xmlns="http://www.w3.org/2000/svg" xmlns:xlink="http://www.w3.org/1999/xlink" x="0px" y="0px"
	 width="141.73px" height="141.73px" viewBox="0 0 141.73 141.73" enable-background="new 0 0 141.73 141.73" xml:space="preserve">
<g>
	<path fill-rule="evenodd" clip-rule="evenodd" d="M164.68,164.285c0,2.453,0,4.906,0,7.36c-1.376-1.036-0.685-5.032-0.64-6.08
		c-0.21-0.959-0.684,0.306-1.28,0C162.772,164.51,163.671,164.342,164.68,164.285z"/>
	<path fill-rule="evenodd" clip-rule="evenodd" d="M169.481,164.285c0,2.453,0,4.906,0,7.36c-1.434-0.808-0.258-4.223-0.641-6.08
		c-0.21-0.959-0.684,0.306-1.279,0C167.757,164.694,168.44,164.31,169.481,164.285z"/>
	<path fill-rule="evenodd" clip-rule="evenodd" d="M156.361,172.925c1.074-0.739,3.515-0.112,5.12-0.319
		C160.407,173.344,157.967,172.717,156.361,172.925z"/>
</g>
<g>
	<path fill-rule="evenodd" clip-rule="evenodd" d="M88.465,28.625L88.465,28.625"/>
	<path fill-rule="evenodd" clip-rule="evenodd" d="M63.825,39.185c4.354-1.541,5.87,0.412,13.2,0
		C74.163,42.227,67,40.86,63.825,39.185z"/>
	<path fill-rule="evenodd" clip-rule="evenodd" d="M106.065,39.185c2.906-1.698,8.897,1.049,14.08,0
		C116.884,42.513,109.998,40.291,106.065,39.185z"/>
	<path fill-rule="evenodd" clip-rule="evenodd" d="M55.905,40.946c1.583,3.459-9.716,2.941-13.2,1.76
		C45.087,40.1,53.523,43.551,55.905,40.946z"/>
	<path fill-rule="evenodd" clip-rule="evenodd" fill="#FFFFFF" d="M16.305,57.665c-1.892-4.554,2.198-10.693,2.64-15.84
		C22.74,45.335,16.926,52.872,16.305,57.665z"/>
	<path fill-rule="evenodd" clip-rule="evenodd" fill="#FFFFFF" d="M21.585,43.585c2.14,2.488,0.82,11.039-3.52,13.2
		C19.565,52.712,21.322,48.896,21.585,43.585z"/>
	<path fill-rule="evenodd" clip-rule="evenodd" fill="#FFFFFF" d="M118.385,43.585c3.859,2.008,2.166,9.568,5.28,12.32
		C118.639,54.191,120.825,50.972,118.385,43.585z"/>
	<path fill-rule="evenodd" clip-rule="evenodd" d="M127.185,65.585c0.537,10.568,0.09,37.464-1.761,48.4
		c-5.189-2.342-2.302-16.12-1.76-21.12c1.408-12.991,0.421-0.249,0.88,8.801C127.478,91.692,122.897,74.204,127.185,65.585z"/>
	<path fill-rule="evenodd" clip-rule="evenodd" d="M121.025,72.626c1.065,10.565,1.31,26.28,0,40.479
		c-5.536-1.738-2.08-8.803-1.76-13.2C119.914,90.987,120.32,82.356,121.025,72.626z"/>
	<path fill-rule="evenodd" clip-rule="evenodd" d="M116.625,92.865c1.545,1.922,0.633,19.157-1.76,20.24
		C113.768,108.006,116.736,99.862,116.625,92.865z"/>
	<path fill-rule="evenodd" clip-rule="evenodd" d="M24.225,94.626c0.972,1.823,3.526,13.871,1.76,18.479
		C24.874,108.117,24.506,102.461,24.225,94.626z"/>
	<path fill-rule="evenodd" clip-rule="evenodd" d="M128.945,34.785c-0.734,4.159-2.246,19.854,0.88,25.52
		c-4.554-0.562-1.311,1.822-1.76,4.4c-1.249-0.076-2.492-0.146-2.641,0.88c-2.435-0.378-0.045-2.768,1.761-1.76
		c-0.547-2.782-4.515-0.166-0.88-2.64c-0.11-1.943-3.733-0.374-5.28-0.88c-4.032-4.573-8.303-14.675-15.84-18.48
		c4.032,10.047,13.318,14.841,15.84,26.4c-9.063-5.415-12.779-20.519-22-22.88c7.441,8.104,14.933,16.161,21.12,25.52
		c-9.908-7.105-16.881-17.146-26.4-24.64c3.016-1.678,7.359-2.027,10.561-3.52c0.038-1.505-0.654-2.279-1.761-2.64
		c2.811,0.208,12.113,4.974,18.48,1.76c1.985,4.761,1.608,11.885,5.28,14.96c-0.045-2.909-2.096-11.383-4.4-14.96
		C124.295,39.522,127.488,38.021,128.945,34.785z M123.665,55.906c-3.114-2.752-1.421-10.312-5.28-12.32
		C120.825,50.972,118.639,54.191,123.665,55.906z"/>
	<path fill-rule="evenodd" clip-rule="evenodd" d="M37.425,39.185c5.338,6.714-11.156,23.603-16.72,28.16
		c3.854-9.933,9.905-17.669,16.72-24.64c-7.292-2.9-9.818,12.419-14.08,11.44c0.445,1.917-2.092,3.746-2.64,7.04
		c-1.021-0.739-2.359-1.161-4.4-0.88c0.11,2.435,1.68,3.021-0.88,1.76c-0.324,1.497,0.686,1.661,1.76,1.76
		c0.149,3.479-1.352-0.282-2.64,1.76c3.753,8.86,0.84,24.386,1.76,36.081c2.142-1.3-0.169-18.411,1.76-11.44
		c2.176,5.744-0.548,16.389,1.76,22c1.186-11.482-1.164-27.497,0-36.96c0.623-5.06,1.375,7.91,1.76,13.2
		c0.538,7.395,2.31,17.052,1.76,24.64c-3.025-0.385-4.932,0.348-7.04,0.88c-0.887-13.298-2.062-37.401-1.76-51.92
		c0.606-2.366-1.819-1.701-2.64-2.64c0.098-2.249,1.613-3.08,2.64-4.4c-2.269-4.185,0.609-13.516-1.76-17.6
		c1.372-2.167,4.371,4.254,9.68,5.28C27.906,43.756,34.245,42.585,37.425,39.185z M18.945,41.825
		c-0.442,5.147-4.532,11.286-2.64,15.84C16.926,52.872,22.74,45.335,18.945,41.825z M18.065,56.785
		c4.34-2.162,5.66-10.712,3.52-13.2C21.322,48.896,19.565,52.712,18.065,56.785z"/>
	<path fill-rule="evenodd" clip-rule="evenodd" d="M46.225,44.466C39.35,55.19,29.613,63.053,20.705,71.745
		c4.446-8.171,14.601-18.25,22-26.399c-0.39-0.784-0.772-1.574-1.76-1.76C41.744,41.456,43.542,45.58,46.225,44.466z"/>
	<path fill-rule="evenodd" clip-rule="evenodd" d="M83.185,38.305c0.999,0.167,0.488,0.883,0,0.88
		c-1.659,2.99,3.761,5.299,7.92,5.28c-0.024,0.855-1.077,0.683-1.76,0.88c5.576,8.212,19.126,16.071,26.399,25.52
		c-15.965-2.659-30.911-12.773-39.6-25.52c7.555,3.009,17.204,11.539,24.64,17.6c-4.658-5.906-14.185-14.559-21.12-21.12
		C79.75,39.564,83.1,40.567,83.185,38.305z M109.585,67.345c-3.162,0.662-6.276-6.598-7.04-2.64
		C105.521,64.419,107.169,69.987,109.585,67.345z"/>
	<path fill-rule="evenodd" clip-rule="evenodd" d="M38.305,62.946c8.017-5.719,15.786-10.581,23.76-17.6
		c-4.466,9.977-17.946,23.028-32.56,22.88c3.828,1.926-1.946,2.78-5.28,2.64c9.013-8,17.268-16.759,27.28-23.76
		c-0.024-0.855-1.077-0.683-1.76-0.88c3.391-2.476,9.821-1.913,11.44-6.16c1.676,0.378,2.211,1.896,4.4,1.76
		C53.761,42.85,48.374,57.296,38.305,62.946z"/>
	<path fill-rule="evenodd" clip-rule="evenodd" d="M85.825,41.825c2.308-0.809,9.983,0.552,14.96,0
		C97.492,45.053,89.552,43.333,85.825,41.825z"/>
	<path fill-rule="evenodd" clip-rule="evenodd" fill="#FFFFFF" d="M102.545,64.705c0.764-3.958,3.878,3.302,7.04,2.64
		C107.169,69.987,105.521,64.419,102.545,64.705z"/>
</g>
</svg>
