<?xml version="1.0" encoding="utf-8"?>
<!-- Generator: Adobe Illustrator 14.0.0, SVG Export Plug-In . SVG Version: 6.00 Build 43363)  -->
<!DOCTYPE svg PUBLIC "-//W3C//DTD SVG 1.1//EN" "http://www.w3.org/Graphics/SVG/1.1/DTD/svg11.dtd">
<svg version="1.1" id="图层_1" xmlns="http://www.w3.org/2000/svg" xmlns:xlink="http://www.w3.org/1999/xlink" x="0px" y="0px"
	 width="141.73px" height="141.73px" viewBox="0 0 141.73 141.73" enable-background="new 0 0 141.73 141.73" xml:space="preserve">
<g>
	<path d="M164.68,171.645"/>
	<path d="M162.76,165.565"/>
	<path d="M169.481,164.285"/>
	<path d="M168.841,165.565"/>
	<path d="M169.481,171.645"/>
	<path d="M156.361,172.925"/>
</g>
<g>
	<path fill="#FFFFFF" d="M90.224,9.845L90.224,9.845"/>
	<path fill="#FFFFFF" d="M63.121,25.052c4.79-2.219,6.457,0.593,14.521,0C74.493,29.433,66.613,27.465,63.121,25.052z"/>
	<path fill="#FFFFFF" d="M109.585,25.052c3.197-2.445,9.785,1.51,15.488,0C121.485,29.845,113.911,26.644,109.585,25.052z"/>
	<path fill="#FFFFFF" d="M54.409,27.588c1.741,4.981-10.688,4.236-14.52,2.534C42.509,26.37,51.789,31.339,54.409,27.588z"/>
	<path fill="#FFFFFF" d="M10.849,51.663c-2.083-6.557,2.416-15.396,2.904-22.809C17.927,33.907,11.531,44.761,10.849,51.663z"/>
	<path fill="#FFFFFF" d="M16.656,31.388c2.356,3.583,0.902,15.896-3.872,19.008C14.435,44.531,16.367,39.036,16.656,31.388z"/>
	<path fill="#FFFFFF" d="M123.136,31.388c4.245,2.891,2.383,13.778,5.809,17.741C123.417,46.661,125.821,42.026,123.136,31.388z"/>
	<path fill="#FFFFFF" d="M132.817,63.068c0.591,15.218,0.099,53.948-1.938,69.697c-5.707-3.373-2.532-23.214-1.937-30.414
		c1.55-18.706,0.464-0.358,0.969,12.674C133.139,100.662,128.1,75.479,132.817,63.068z"/>
	<path fill="#FFFFFF" d="M126.041,73.206c1.17,15.215,1.44,37.845,0,58.292c-6.09-2.503-2.288-12.68-1.936-19.009
		C124.819,99.647,125.265,87.219,126.041,73.206z"/>
	<path fill="#FFFFFF" d="M121.201,102.35c1.699,2.769,0.696,27.588-1.936,29.147C118.058,124.153,121.323,112.427,121.201,102.35z"
		/>
	<path fill="#FFFFFF" d="M19.561,104.886c1.069,2.625,3.877,19.975,1.936,26.611C20.275,124.314,19.869,116.17,19.561,104.886z"/>
	<path fill="#FFFFFF" d="M134.753,18.716c-0.808,5.99-2.471,28.591,0.968,36.751c-5.009-0.812-1.441,2.621-1.936,6.333
		c-1.374-0.11-2.741-0.209-2.906,1.267c-2.679-0.544-0.05-3.985,1.938-2.534c-0.602-4.006-4.968-0.239-0.968-3.801
		c-0.121-2.798-4.106-0.539-5.809-1.268c-4.436-6.585-9.133-21.134-17.424-26.611c4.434,14.467,14.648,21.371,17.424,38.016
		c-9.97-7.798-14.057-29.549-24.199-32.947c8.183,11.669,16.426,23.27,23.231,36.749c-10.898-10.232-18.568-24.691-29.04-35.481
		c3.319-2.419,8.095-2.919,11.618-5.071c0.042-2.167-0.72-3.283-1.938-3.801c3.094,0.3,13.324,7.162,20.328,2.534
		c2.185,6.855,1.768,17.114,5.809,21.542c-0.05-4.189-2.308-16.391-4.841-21.542C129.637,25.538,133.15,23.376,134.753,18.716z
		 M128.945,49.13c-3.426-3.963-1.563-14.851-5.809-17.741C125.821,42.026,123.417,46.661,128.945,49.13z"/>
	<path fill="#FFFFFF" d="M34.08,25.052c5.874,9.668-12.27,33.987-18.392,40.551c4.24-14.306,10.896-25.446,18.392-35.484
		c-8.021-4.174-10.798,17.883-15.486,16.474c0.488,2.76-2.303,5.394-2.906,10.137c-1.123-1.064-2.593-1.671-4.838-1.267
		c0.119,3.505,1.848,4.349-0.97,2.534c-0.354,2.156,0.756,2.392,1.938,2.534c0.163,5.008-1.489-0.407-2.906,2.534
		c4.128,12.759,0.924,35.118,1.938,51.957c2.356-1.872-0.186-26.513,1.936-16.472c2.393,8.271-0.603,23.6,1.936,31.681
		c1.306-16.535-1.28-39.597,0-53.224c0.686-7.288,1.513,11.389,1.936,19.006c0.592,10.651,2.543,24.558,1.938,35.484
		c-3.328-0.555-5.427,0.5-7.744,1.267c-0.978-19.148-2.27-53.858-1.938-74.764c0.667-3.408-2-2.45-2.904-3.804
		c0.107-3.239,1.774-4.433,2.904-6.334c-2.496-6.028,0.67-19.465-1.936-25.346c1.509-3.12,4.808,6.129,10.648,7.604
		C23.61,31.634,30.583,29.948,34.08,25.052z M13.753,28.854c-0.487,7.412-4.986,16.252-2.904,22.809
		C11.531,44.761,17.927,33.907,13.753,28.854z M12.785,50.396c4.774-3.113,6.227-15.425,3.872-19.008
		C16.367,39.036,14.435,44.531,12.785,50.396z"/>
	<path fill="#FFFFFF" d="M43.761,32.656c-7.563,15.443-18.274,26.767-28.073,39.282c4.891-11.766,16.063-26.28,24.2-38.012
		c-0.429-1.129-0.848-2.267-1.936-2.537C38.832,28.322,40.809,34.26,43.761,32.656z"/>
	<path fill="#FFFFFF" d="M84.418,23.785c1.099,0.241,0.534,1.271,0,1.267c-1.825,4.303,4.137,7.63,8.712,7.601
		c-0.027,1.231-1.186,0.985-1.937,1.27c6.132,11.825,21.039,23.14,29.037,36.749c-17.561-3.83-34.002-18.394-43.56-36.749
		c8.311,4.333,18.925,16.613,27.104,25.344c-5.124-8.505-15.604-20.965-23.232-30.413C80.638,25.598,84.324,27.043,84.418,23.785z
		 M113.457,65.603c-3.479,0.95-6.902-9.503-7.744-3.804C108.987,61.388,110.799,69.407,113.457,65.603z"/>
	<path fill="#FFFFFF" d="M35.05,59.268c8.818-8.235,17.362-15.237,26.136-25.343c-4.913,14.366-19.741,33.158-35.818,32.947
		c4.211,2.773-2.139,4-5.806,3.801c9.914-11.52,18.994-24.132,30.006-34.214c-0.025-1.232-1.183-0.986-1.936-1.267
		c3.732-3.568,10.804-2.755,12.584-8.871c1.843,0.544,2.432,2.73,4.838,2.534C52.051,30.33,46.125,51.132,35.05,59.268z"/>
	<path fill="#FFFFFF" d="M87.321,28.854c2.538-1.165,10.981,0.794,16.456,0C100.155,33.503,91.42,31.025,87.321,28.854z"/>
	<path fill="#FFFFFF" d="M105.713,61.801c0.842-5.7,4.266,4.755,7.744,3.804C110.799,69.407,108.987,61.388,105.713,61.801z"/>
</g>
</svg>
