<?xml version="1.0" encoding="utf-8"?>
<!-- Generator: Adobe Illustrator 14.0.0, SVG Export Plug-In . SVG Version: 6.00 Build 43363)  -->
<!DOCTYPE svg PUBLIC "-//W3C//DTD SVG 1.1//EN" "http://www.w3.org/Graphics/SVG/1.1/DTD/svg11.dtd">
<svg version="1.1" id="图层_1" xmlns="http://www.w3.org/2000/svg" xmlns:xlink="http://www.w3.org/1999/xlink" x="0px" y="0px"
	 width="141.73px" height="141.73px" viewBox="0 0 141.73 141.73" enable-background="new 0 0 141.73 141.73" xml:space="preserve">
<g>
	<path fill-rule="evenodd" clip-rule="evenodd" d="M36.171,16.703c6.528,0,13.056,0,19.584,0c-2.691,10.659,11.907,10.659,9.217,0
		c6.624,0,13.248,0,19.872,0c0,3.552,0,7.104,0,10.656c22.019,2.057,28.557,22.369,45.504,28.512c2.761,1,6.621,0.866,7.488,3.168
		c0.452,1.202,0.136,4.039-2.016,4.896c-4.098,1.632-12.176-3.189-14.688-4.896c-12.011-8.156-19.243-22.236-36-24.192
		c-0.671,2.594-0.098,6.431-0.288,9.504c16.933,1.74,13.536,17.944,13.536,38.304c0,18.854,3.441,36.802-13.248,38.017
		c-6.389,0.465-15.7,0-25.057,0c-18.613,0-35.678,3.039-37.729-11.809c-1.018-7.368,0-16.52,0-26.496
		c0-19.221-3.677-36.757,13.536-37.728c0-9.024,0-18.048,0-27.072C35.858,17.159,35.835,16.752,36.171,16.703z M43.083,23.904
		c0,6.528,0,13.056,0,19.584c11.52,0,23.04,0,34.561,0c0-6.528,0-13.056,0-19.584c-2.017,0-4.032,0-6.048,0
		c-1.634,4.944-5.9,8.457-11.521,8.352c-5.976-0.111-9.114-4.351-11.52-8.352C46.731,23.904,44.907,23.904,43.083,23.904z
		 M30.123,55.296c-1.591,3.394-0.576,11.081-0.576,13.824c0,4.801,0,9.415,0,14.688c0,7.876-1.801,23.93,1.728,27.648
		c2.092,2.204,8.109,2.016,13.536,2.016c4.818,0,10.992,0,15.552,0c7.237,0,25.302,1.974,29.088-2.016
		c3.442-3.627,1.729-19.667,1.729-27.937c0-4.773,0-10.42,0-14.688c0-3.34,1.253-10.644-0.864-14.112
		c-2.898-4.749-16.128-3.168-25.344-3.168c-10.014,0-20.786-1.053-29.089,0.288C33.234,52.267,31.087,53.239,30.123,55.296z"/>
	<path fill-rule="evenodd" clip-rule="evenodd" d="M39.791,122.688c0.122-0.05-0.011-0.266,0.288-0.288
		c12.555-0.922,29.303,0,43.776,0c5.014,0,11.394-0.603,12.096,2.305c1.368,5.664-5.819,4.896-11.52,4.896
		c-11.622,0-21.033,0-32.833,0c-4.915,0-12.897,0.873-13.824-2.304C37.069,124.88,38.471,123.225,39.791,122.688z"/>
</g>
</svg>
