<?xml version="1.0" encoding="utf-8"?>
<!-- Generator: Adobe Illustrator 14.0.0, SVG Export Plug-In . SVG Version: 6.00 Build 43363)  -->
<!DOCTYPE svg PUBLIC "-//W3C//DTD SVG 1.1//EN" "http://www.w3.org/Graphics/SVG/1.1/DTD/svg11.dtd">
<svg version="1.1" id="图层_1" xmlns="http://www.w3.org/2000/svg" xmlns:xlink="http://www.w3.org/1999/xlink" x="0px" y="0px"
	 width="141.73px" height="141.73px" viewBox="0 0 141.73 141.73" enable-background="new 0 0 141.73 141.73" xml:space="preserve">
<image overflow="visible" width="256" height="243" xlink:href="c0e0cf7243c2ea413b27ad96d378891a.png"  transform="matrix(1.#QNB 1.#QNB 1.#QNB 1.#QNB 1.#QNB 1.#QNB)">
</image>
<g>
	<path fill-rule="evenodd" clip-rule="evenodd" d="M78.117,8.464c0.149,0,0.3,0,0.449,0c0,0.15,0,0.3,0,0.45
		c4.255,2.085,1.241,14.265-2.25,13.95C71.989,22.473,75.3,9.999,78.117,8.464z"/>
	<path fill-rule="evenodd" clip-rule="evenodd" d="M53.366,24.664c-5.99,1.241-6.024-7.103-7.2-12.15
		C51.345,8.776,54.028,19.723,53.366,24.664z"/>
	<path fill-rule="evenodd" clip-rule="evenodd" d="M108.717,23.764c-0.574,6.327-5.909,7.891-9.9,10.8
		C92.487,32.551,105.91,19.194,108.717,23.764z"/>
	<path fill-rule="evenodd" clip-rule="evenodd" d="M31.766,27.364c2.518,3.782,6.699,5.901,7.65,11.25
		c-0.53,0.67-1.13,1.271-1.8,1.8C34.608,39.51,22.623,28.378,31.766,27.364z"/>
	<path fill-rule="evenodd" clip-rule="evenodd" d="M74.967,89.013c-2.161-4.507,2.884-5.784,4.95-7.199
		c6.829-4.677,13.325-13.546,12.149-25.65c-1.152-11.87-10.209-23.08-23.85-23.4c-15.933-0.374-27.586,10.976-27,27.45
		c0.621,17.434,13.644,23.042,27,27.9c3.22,1.171,16.521,3.77,16.65,7.649c0.168,5.04-7.313,3.923-12.15,4.95
		c4.511,1.792,12.34,0.655,12.6,5.4c0.275,5.026-8.495,4.959-14.85,5.399c4.946,2.263,14.602,0.187,14.85,5.851
		c0.192,4.385-7.605,6.174-13.05,5.399c-1.296-1.77-0.555-3.371,0.45-4.949c-7.498-2.188-25.61,1.214-26.1-5.4
		c-0.516-6.965,14.913-4.626,21.15-6.3c-5.37-2.457-22.019-0.092-21.15-6.75c0.784-6.008,16.836-2.284,23.85-4.05
		c-16.644-7.008-32.355-13.055-34.2-32.85c-2.816-30.227,33.347-46.042,52.2-26.1c9.615,10.17,11.574,31.386,1.8,43.65
		C86.61,84.601,80.72,89.369,74.967,89.013z"/>
	<path fill-rule="evenodd" clip-rule="evenodd" d="M79.467,50.314c2.412,5.009-4.789,9.719-10.35,10.35
		c-6.272,0.712-16.255-2.892-14.85-9c5.145-1.503,8.655,4.026,14.85,3.15C73.597,54.18,74.869,49.444,79.467,50.314z"/>
</g>
</svg>
