<?xml version="1.0" encoding="utf-8"?>
<!-- Generator: Adobe Illustrator 14.0.0, SVG Export Plug-In . SVG Version: 6.00 Build 43363)  -->
<!DOCTYPE svg PUBLIC "-//W3C//DTD SVG 1.1//EN" "http://www.w3.org/Graphics/SVG/1.1/DTD/svg11.dtd">
<svg version="1.1" id="图层_1" xmlns="http://www.w3.org/2000/svg" xmlns:xlink="http://www.w3.org/1999/xlink" x="0px" y="0px"
	 width="141.73px" height="141.73px" viewBox="0 0 141.73 141.73" enable-background="new 0 0 141.73 141.73" xml:space="preserve">
<g>
	<path fill="#FFFFFF" d="M85.877,7.906c0.166,0,0.33,0,0.494,0c0,0.166,0,0.331,0,0.495c4.682,2.293,1.367,15.691-2.475,15.345
		C79.136,23.317,82.779,9.594,85.877,7.906z"/>
	<path fill="#FFFFFF" d="M58.651,25.726c-6.59,1.364-6.627-7.813-7.921-13.365C56.428,8.249,59.379,20.291,58.651,25.726z"/>
	<path fill="#FFFFFF" d="M119.537,24.737c-0.631,6.959-6.498,8.68-10.891,11.88C101.685,34.402,116.449,19.708,119.537,24.737z"/>
	<path fill="#FFFFFF" d="M34.891,28.697c2.771,4.16,7.368,6.491,8.415,12.375c-0.583,0.737-1.243,1.397-1.979,1.979
		C38.017,42.056,24.834,29.811,34.891,28.697z"/>
	<path fill="#FFFFFF" d="M82.412,96.51c-2.375-4.959,3.174-6.361,5.445-7.92c7.512-5.145,14.656-14.898,13.363-28.214
		c-1.268-13.057-11.229-25.388-26.234-25.738C57.459,34.225,44.639,46.709,45.285,64.83c0.684,19.177,15.009,25.347,29.701,30.691
		c3.541,1.287,18.172,4.145,18.314,8.414c0.186,5.545-8.043,4.314-13.365,5.443c4.963,1.973,13.574,0.721,13.861,5.939
		c0.301,5.529-9.346,5.455-16.336,5.939c5.439,2.488,16.063,0.205,16.336,6.436c0.209,4.824-8.367,6.791-14.355,5.939
		c-1.426-1.947-0.611-3.709,0.494-5.443c-8.248-2.408-28.171,1.336-28.71-5.941c-0.566-7.66,16.405-5.088,23.267-6.93
		c-5.907-2.701-24.223-0.102-23.267-7.424c0.863-6.609,18.52-2.514,26.235-4.455c-18.308-7.709-35.59-14.361-37.619-36.135
		c-3.098-33.25,36.682-50.646,57.42-28.709c10.576,11.187,12.73,34.524,1.98,48.016C95.22,91.656,88.742,96.902,82.412,96.51z"/>
	<path fill="#FFFFFF" d="M87.363,53.942c2.652,5.51-5.27,10.689-11.387,11.384c-6.898,0.783-17.88-3.181-16.335-9.9
		c5.659-1.652,9.521,4.43,16.335,3.466C80.906,58.195,82.304,52.985,87.363,53.942z"/>
</g>
</svg>
