<?xml version="1.0" encoding="utf-8"?>
<!-- Generator: Adobe Illustrator 14.0.0, SVG Export Plug-In . SVG Version: 6.00 Build 43363)  -->
<!DOCTYPE svg PUBLIC "-//W3C//DTD SVG 1.1//EN" "http://www.w3.org/Graphics/SVG/1.1/DTD/svg11.dtd">
<svg version="1.1" id="图层_1" xmlns="http://www.w3.org/2000/svg" xmlns:xlink="http://www.w3.org/1999/xlink" x="0px" y="0px"
	 width="141.73px" height="141.73px" viewBox="0 0 141.73 141.73" enable-background="new 0 0 141.73 141.73" xml:space="preserve">
<g>
	<g id="XMLID_1_">
		<g>
			<path fill="#FFFFFF" d="M119.825,95.145c-0.21,1.29-0.95,2.04-1.17,3.31c-5.14-1.74-9.83-3.91-14.58-6.03
				c0.2-1.29,0.94-2.04,1.17-3.31C110.305,90.915,115.015,93.075,119.825,95.145z"/>
			<path fill="#FFFFFF" d="M109.125,112.255c-0.72,1.021-1.8,1.7-2.52,2.721c-2.33-2.04-5.521-5.521-8.36-8.36
				c-0.689-0.69-2.689-2.01-2.72-2.72c-0.061-1.23,2.09-1.65,2.33-2.721C101.725,104.755,105.255,108.675,109.125,112.255z"/>
			<path fill="#FFFFFF" d="M93.185,57.435c4.51,4.88,8.37,12.39,7.779,22.161c-0.52,8.5-4.27,15.159-9.33,19.829
				c-5.05,4.66-11.43,8.341-20.609,8.36c-16.78,0.03-30.13-12.93-30.13-30.13c0-12.2,5.89-18.96,13.22-24.89
				c0.65-6.22-2.27-16.01,4.08-16.52c0-3.13,0-7.05,0-12.05c0-3.73-0.97-10.53,1.75-11.28c2.92-0.8,8.5,0,11.86,0
				c4,0,7.85-0.4,11.079,0.58c1.711,6.07,0.341,15.22,0.78,22.55c1.49,1.04,3.16,1.06,3.891,2.53c1.909,3.9-0.931,9.77,0.38,14
				C88.375,53.975,92.115,56.275,93.185,57.435z M97.465,79.405c0.57-9.24-3.359-16.24-7.97-20.81c-0.97-0.96-4.64-2.87-5.05-4.08
				c-0.63-1.84,0-4.89,0-7.19c0-2.56,0.16-4.93-0.2-7.19c-8.3-0.46-17.43-0.07-26.05-0.2c-0.23,0.1-0.44,0.21-0.58,0.39
				c0,4.8,0,9.59,0,14.39c-7.34,4.88-13.27,12.06-13.22,23.32c0.07,14.94,12.02,26.36,27.02,26.25
				C85.785,104.175,96.625,92.905,97.465,79.405z"/>
			<path fill="#FFFFFF" d="M86.385,109.725c2.461,4.34,3.94,9.659,6.221,14.189c-0.88,0.811-2.141,1.24-3.5,1.561
				c-2.101-4.641-3.79-9.7-6.03-14.19C83.855,110.445,85.175,110.145,86.385,109.725z"/>
			<path fill="#FFFFFF" d="M72.775,113.035c0,5.25,0,10.49,0,15.74c-1.23,0-2.46,0-3.69,0c0-5.25,0-10.49,0-15.74
				C70.315,113.035,71.545,113.035,72.775,113.035z"/>
			<path fill="#FFFFFF" d="M54.305,109.725c1.46,0.1,2.23,0.88,3.5,1.17c-1.69,5.17-4.04,9.7-5.83,14.77
				c-1.19-0.43-2.2-1.04-3.5-1.359C50.265,119.285,52.505,114.725,54.305,109.725z"/>
			<path fill="#FFFFFF" d="M42.835,101.175c1.18,0.57,1.87,1.631,2.72,2.521c-3.32,4.07-7.4,7.38-10.88,11.28
				c-1.02-0.73-1.7-1.801-2.72-2.53C35.555,108.665,39.295,105.015,42.835,101.175z"/>
			<path fill="#FFFFFF" d="M35.455,89.115c0.86,0.82,1.22,2.15,1.55,3.5c-4.87,1.81-9.38,3.97-14.19,5.83
				c-0.92-0.75-1.3-2.061-1.56-3.5C26.185,93.205,30.645,90.995,35.455,89.115z"/>
		</g>
		<g>
		</g>
	</g>
</g>
</svg>
