<?xml version="1.0" encoding="utf-8"?>
<!-- Generator: Adobe Illustrator 14.0.0, SVG Export Plug-In . SVG Version: 6.00 Build 43363)  -->
<!DOCTYPE svg PUBLIC "-//W3C//DTD SVG 1.1//EN" "http://www.w3.org/Graphics/SVG/1.1/DTD/svg11.dtd">
<svg version="1.1" id="图层_1" xmlns="http://www.w3.org/2000/svg" xmlns:xlink="http://www.w3.org/1999/xlink" x="0px" y="0px"
	 width="141.73px" height="141.73px" viewBox="0 0 141.73 141.73" enable-background="new 0 0 141.73 141.73" xml:space="preserve">
<g>
	<path fill-rule="evenodd" clip-rule="evenodd" fill="#FFFFFF" d="M127.32,36.817c1.994,15.355,1.054,38.729,0.512,55.296
		c-1.339,2.496-4.488,2.384-7.68,2.211c0.119,4.597,0.197,9.133-1.536,11.06c-3.478,1.174-9.835,1.174-13.313,0
		c-1.733-1.927-1.655-6.463-1.536-11.06c-21.675,0-43.349,0-65.024,0c-1.125,3.05,0.143,9.545-2.048,11.06
		c-3.478,1.174-9.834,1.174-13.312,0c-1.733-1.927-1.656-6.463-1.536-11.06c-3.191,0.173-6.341,0.285-7.68-2.211
		c-0.542-16.565-1.482-39.94,0.512-55.296C49.853,34.362,92.147,34.362,127.32,36.817z M87.384,65.57
		c0.237,14.589,8.312,23.145,16.896,22.856c21.267-0.718,20.398-50.677-2.561-46.449C92.86,43.609,87.151,51.252,87.384,65.57z
		 M22.872,48.613c-0.847,9.009-3.965,33.915,3.072,33.915s3.919-24.906,3.072-33.915C26.909,46.986,24.979,46.986,22.872,48.613z
		 M39.256,48.613c-0.847,9.009-3.964,33.915,3.072,33.915c7.037,0,3.919-24.906,3.072-33.915
		C43.293,46.986,41.363,46.986,39.256,48.613z"/>
	<path fill-rule="evenodd" clip-rule="evenodd" fill="#FFFFFF" d="M102.231,55.249c5.806-1.81,8.483,2.749,8.704,8.848
		C111.433,77.8,96.6,79.488,96.6,64.833C96.6,59.217,98.265,56.485,102.231,55.249z"/>
</g>
</svg>
