<?xml version="1.0" encoding="utf-8"?>
<!-- Generator: Adobe Illustrator 14.0.0, SVG Export Plug-In . SVG Version: 6.00 Build 43363)  -->
<!DOCTYPE svg PUBLIC "-//W3C//DTD SVG 1.1//EN" "http://www.w3.org/Graphics/SVG/1.1/DTD/svg11.dtd">
<svg version="1.1" id="图层_1" xmlns="http://www.w3.org/2000/svg" xmlns:xlink="http://www.w3.org/1999/xlink" x="0px" y="0px"
	 width="141.73px" height="141.73px" viewBox="0 0 141.73 141.73" enable-background="new 0 0 141.73 141.73" xml:space="preserve">
<image overflow="visible" width="1023" height="672" xlink:href="3922c36f8cfecbd868abcd37d9840299.jpg"  transform="matrix(0.1 0 0 0.1 447.541 281.2266)">
</image>
<g>
	<path fill-rule="evenodd" clip-rule="evenodd" d="M18.706,51.901c1.005,2.166,3.986,0.327,1.664-1.152
		c-0.113,0.854-1.285,1.404-1.92,0.64c-0.234-3.58,3.641-2.241,4.096-0.256C23.194,53.963,18.981,55.218,18.706,51.901z"/>
	<path fill-rule="evenodd" clip-rule="evenodd" d="M25.618,53.949c-0.043-0.926-0.943-0.769-1.024-1.408
		C24.231,49.701,28.387,53.004,25.618,53.949z"/>
	<path fill-rule="evenodd" clip-rule="evenodd" d="M31.505,55.741c-0.075-0.736-0.777-0.844-1.024-1.408
		C30.748,51.304,33.808,55.168,31.505,55.741z"/>
	<path fill-rule="evenodd" clip-rule="evenodd" d="M35.217,55.485c-0.339,0.404,0.237,0.711,0.384,1.024
		c0.449,0.075,0.421-0.605,0.768-0.256c0.074,0.416-0.087,0.595-0.128,0.896c-2.893,1.225-3.476-4.187,0-3.2
		C37.35,54.604,36.276,56.321,35.217,55.485z"/>
	<path fill-rule="evenodd" clip-rule="evenodd" d="M27.921,59.069c-1.48-0.184-4.606,0.17-5.632-0.896
		C23.364,56.23,26.154,58.881,27.921,59.069z"/>
	<path fill-rule="evenodd" clip-rule="evenodd" fill="#FFFFFF" d="M54.161,80.062c-0.229-0.335,0.541-0.493,0.896-0.769
		c0.4-0.31,0.896-0.754,1.152-1.023c7.781-8.198-4.084-23.18-14.848-17.536c1.442-2.239,4.335-3.152,7.936-2.816
		c8.555,0.797,15.492,13.247,8.448,20.096C56.797,78.936,55.625,79.66,54.161,80.062z"/>
	<path fill-rule="evenodd" clip-rule="evenodd" d="M27.921,60.861c-1.521,0.027-3.994-0.102-5.504-0.512
		c0.021-0.149-0.028-0.228-0.128-0.256C22.602,57.853,26.419,60.818,27.921,60.861z"/>
	<path fill-rule="evenodd" clip-rule="evenodd" d="M27.921,62.653c-1.648,0.026-4.477,0.125-5.632-0.768
		c-0.055-0.524,0.271-0.668,0.512-0.896C24.759,61.292,26.041,62.273,27.921,62.653z"/>
	<path fill-rule="evenodd" clip-rule="evenodd" d="M53.905,75.325c-0.687,2.382-3.093,3.596-6.656,3.2
		c-5.978-0.664-9.307-8.386-6.016-13.44c1.237-1.9,3.524-3.542,6.912-3.072c1.328,0.184,1.41,0.461,1.408,0.896
		c-0.006,1.283-3.226,0.478-4.096,0.768c-2.561,0.854-4.027,3.143-4.224,5.632C40.675,76.357,49.569,80.921,53.905,75.325z"/>
	<path fill-rule="evenodd" clip-rule="evenodd" d="M27.793,64.445c-1.625,0.046-4.487,0.221-5.504-0.768
		C23.343,61.699,25.931,64.418,27.793,64.445z"/>
	<path fill-rule="evenodd" clip-rule="evenodd" d="M33.938,67.005c0.445,0.024,0.486,0.453,0.896,0.512
		c0.771-0.103,1.026-1.511,0.384-1.92c-0.271,0.901-1.748,0.759-1.92-0.128c0.752-2.908,4.108-1.174,3.584,1.28
		C36.626,67.944,34.196,69.303,33.938,67.005z"/>
	<path fill-rule="evenodd" clip-rule="evenodd" d="M27.921,66.365c-1.642-0.158-4.779,0.163-5.632-0.896
		c-0.006-0.39,0.27-0.498,0.384-0.768C24.748,64.931,26.081,65.902,27.921,66.365z"/>
	<path fill-rule="evenodd" clip-rule="evenodd" d="M49.938,70.205c-0.573-0.004,0.28-0.376,0-0.896
		c-0.204-0.607-0.734-0.888-1.28-1.152c-0.635,0.063-0.984,0.292-1.536,0.128C45.447,64.564,53.581,68.323,49.938,70.205z"/>
	<path fill-rule="evenodd" clip-rule="evenodd" fill="#FFFFFF" d="M19.474,69.309c0.591,0.263,1.076,0.63,1.792,0.768
		c0.099,0.669,0.21,1.326,0.256,2.048C20.484,71.541,19.238,71.166,19.474,69.309z"/>
	<path fill-rule="evenodd" clip-rule="evenodd" fill="#FFFFFF" d="M22.417,70.461c2.207,0.651,4.404,1.313,6.528,2.047
		c0.072,1.139-0.226,1.908-0.128,3.072c-1.753,1.539-5.534,0.623-6.528-0.896C22.308,73.253,22.216,71.71,22.417,70.461z"/>
	<path fill-rule="evenodd" clip-rule="evenodd" d="M77.457,73.021c-1.452-0.293-6.361,0.526-5.376-1.792
		C74.014,71.208,75.554,72.597,77.457,73.021z"/>
	<path fill-rule="evenodd" clip-rule="evenodd" d="M64.529,72.766c0.219,0.13,0.442,0.911,0.128,1.151
		c2.301,0.624,3.666,5.535,0.512,6.272c-1.403,0.328-2.711-0.422-3.2-1.664c0.67-0.07,1.157,1.146,2.432,0.896
		c-0.39-1.231-0.963-2.279-1.024-3.84c-0.512,0.545-1.327,1.991-2.304,0.896c0.004-1.66,0.974-2.354,2.432-2.561
		C63.728,73.414,63.603,72.563,64.529,72.766z M64.657,79.293c1.775-0.284,1.292-3.435-0.256-3.584
		C64.238,76.855,64.489,78.119,64.657,79.293z"/>
	<path fill-rule="evenodd" clip-rule="evenodd" d="M77.457,75.069c-1.5-0.122-4.324-0.027-5.632-0.769
		c-0.13-0.685,0.176-0.933,0.512-1.151C74.247,73.586,75.684,74.496,77.457,75.069z"/>
	<path fill-rule="evenodd" clip-rule="evenodd" d="M77.329,76.989c-1.559,0.106-3.874-0.137-5.376-0.512
		c0.021-0.149-0.028-0.229-0.128-0.257C72.119,73.672,75.809,76.984,77.329,76.989z"/>
	<path fill-rule="evenodd" clip-rule="evenodd" fill="#FFFFFF" d="M22.162,75.581c1.179,1.346,5.063,1.888,6.528,0.384
		c0.292,0.178,0.048,0.892,0.128,1.28c-1.177,1.562-5.095,1.507-6.144-0.128C22.853,76.255,22.446,75.979,22.162,75.581z"/>
	<path fill-rule="evenodd" clip-rule="evenodd" fill="#FFFFFF" d="M64.401,75.709c1.548,0.149,2.031,3.3,0.256,3.584
		C64.489,78.119,64.238,76.855,64.401,75.709z"/>
	<path fill-rule="evenodd" clip-rule="evenodd" d="M77.457,79.037c-1.579-0.043-4.389,0.037-5.632-0.768
		c-0.145-0.743,0.298-0.897,0.64-1.152C74.193,77.693,75.703,78.487,77.457,79.037z"/>
	<path fill-rule="evenodd" clip-rule="evenodd" d="M77.457,81.085c-1.5-0.121-4.324-0.026-5.632-0.768
		c-0.092-0.647,0.188-0.922,0.512-1.152C74.248,79.601,75.671,80.524,77.457,81.085z"/>
	<path fill-rule="evenodd" clip-rule="evenodd" fill="#FFFFFF" d="M75.281,89.405c3.759,0.422,6.124,2.238,9.855,2.688
		c0.255,0.77,0.028,2.021,0.257,2.816c-2.689,2.409-8.798,1.422-10.368-1.28C74.95,92.061,75.2,90.817,75.281,89.405z"/>
	<path fill-rule="evenodd" clip-rule="evenodd" fill="#FFFFFF" d="M85.266,95.293c0.84,5.614-10.023,4.9-10.112,0.256
		c1.009,0.434,2.499,1.363,4.352,1.536C81.848,97.304,84.194,96.634,85.266,95.293z"/>
	<path fill-rule="evenodd" clip-rule="evenodd" d="M125.841,48.062c0.404,4.811,0.021,9.264,0.513,14.208
		c0.15,1.525,0.711,3.125,0.512,4.352c-0.215,1.319-2.382,3.219-3.712,4.224c-3.314,2.505-7.09,4.44-10.88,6.912
		c-1.746,1.139-3.534,2.387-5.376,3.584c-4.731,3.077-9.623,5.754-14.464,8.832c-0.873,0.556-1.792,1.351-2.561,1.664
		c-1.065,0.435-3.02,0.185-3.712,0.641c0.061,1.288,2.086,1.072,2.944,0.896c1.479-0.305,3.274-1.859,4.863-2.816
		c4.716-2.837,9.614-5.826,14.08-8.575c3.168-1.95,6.099-4.154,8.96-6.145c3.044-2.116,6.462-3.755,8.32-6.784
		c-0.919,2.588-3.451,3.945-5.888,5.632c-7.022,4.861-13.791,9.942-21.376,14.592c-1.321,0.81-2.903,1.709-4.48,2.688
		c-2.328,1.445-4.031,3.368-7.552,2.305c-0.259,0.958-0.039,2.047-0.256,2.815c-1.062,3.757-9.602,4.053-11.264-0.256
		c-0.88-2.28-0.189-4.866-0.129-7.808c-5.296-2.108-10.616-3.907-16.383-5.889c-1.803-0.619-3.741-1.654-5.504-1.92
		c-1.857-0.279-3.355,0.523-5.12,0.128c8.483,3.421,17.461,6.347,26.24,9.473c-14.903-4.298-29.809-9.7-44.032-15.104
		c-0.308,0.724-0.152,1.319-0.512,1.92c-1.356,2.268-7.284,2.116-7.552-0.64c-0.076-0.784,0.443-0.942,0.512-1.536
		c0.104-0.902-0.437-1.564-0.384-2.816c-1.85-0.381-3.922-1.864-3.2-3.967c-2.338-2.073-2.266-7.097-2.688-12.032
		c-0.141-1.639-0.363-3.391-0.512-4.992c-0.264-2.837-0.732-5.111,0.384-6.784c2.948-1.722,6.362-2.049,9.6-2.816
		c10.031-2.376,19.319-6.942,29.952-8.704c-11.957,2.833-22.749,7.23-34.56,10.368c-1.532,0.407-3.361,0.634-4.608,1.792
		c1.442,1.911,4.094,2.074,6.272,2.688c6.79,1.914,13.665,3.996,20.864,5.632c7.129,1.62,14.38,3.202,21.76,4.864
		c2.893,0.652,5.535,1.682,8.448,1.792c3.584,1.124,7.115,2.317,10.88,3.456c1.183,0.358,2.739,1.055,3.712,1.024
		c1.194-0.038,3.631-1.363,4.992-2.048c7.853-3.948,15.786-7.616,23.552-11.52c3.131-1.574,6.669-2.54,8.832-5.12
		c-2.13-1.646-4.977-1.816-7.552-2.304c-13.416-2.544-26.939-5.456-40.832-8.064c-5.566-1.045-11.265-2.845-16.64-2.944
		c-0.831-0.016-2.571,0.326-2.816,0c6.567-0.456,12.352,1.234,18.048,2.304c14.124,2.652,28.653,5.312,43.008,8.192
		c2.408,0.483,7.317,0.807,7.552,2.688c0.177,1.415-2.294,2.5-3.712,3.2c-10.488,5.187-21.493,10.962-31.743,15.872
		c-0.683,0.327-1.386,0.465-2.177,0.64c0.617,7.28,1.04,16.032,1.024,24.448c1.794-0.598,3.379-1.883,5.12-2.943
		c1.635-0.996,3.518-1.785,4.992-2.944c3.924-3.085,9.509-6.182,14.079-8.96c3.16-1.92,6.352-3.841,9.473-6.272
		c1.1-0.856,2.526-1.871,2.688-2.56c0.255-1.088-0.325-2.928-0.384-4.48 M39.441,75.837c-3.176-0.963-6.192-2.085-9.472-2.943
		c-0.097,0.543-0.159,1.121-0.256,1.664c4.394,1.451,8.761,3.612,12.928,4.863C41.184,78.617,40.248,77.292,39.441,75.837z
		 M17.169,56.765c0.252,3.31,0.036,6.849,0.896,9.344c0.761,2.206,3.224,2.716,5.504,3.584c2.333,0.888,4.371,2.048,6.272,1.792
		c0.267,0.246,0.208,0.816,0.64,0.896c3.01,0.958,5.672,2.265,8.704,3.2c0.007,0.078,0.019,0.151,0.128,0.128
		c-0.249-0.861-0.63-2.269-0.512-3.072c0.668,4.909,6.094,9.29,11.904,7.809c0.769-0.196,1.501-1.036,2.56-1.024
		c8.494-5.369,2.849-17.759-6.016-18.432c-4.671-0.354-7.995,2.191-8.448,5.888c-0.156,1.275,0.6,4.827-0.768,4.864
		c-1.16,0.031-1.043-3.05-0.896-4.48c0.295-2.858,1.853-4.688,3.584-6.144c-0.458,0.075-0.389-0.379-0.384-0.768
		c1.504-1.888,3.191-3.067,5.888-3.328c8.244-0.798,15.155,5.74,14.976,13.824c-0.11,4.966-2.757,7.723-6.272,9.6
		c8.198,2.904,15.77,6.05,24.192,8.704c2.809,0.885,5.786,2.013,9.088,1.664c-0.364-3.474-0.231-8.291-0.512-12.544
		c-0.279-4.234-0.742-8.789-0.384-12.417c-17.549-4.564-35.688-9.496-53.376-13.952c-5.04-1.27-11.041-2.331-15.616-4.096
		c-0.563-0.217-1.154-0.594-1.792-0.512C16.737,50.226,16.922,53.525,17.169,56.765z M57.745,78.014
		c7.044-6.849,0.107-19.299-8.448-20.096c-3.601-0.336-6.494,0.577-7.936,2.816C52.125,55.09,63.99,70.072,56.209,78.27
		c-0.256,0.27-0.752,0.714-1.152,1.023c-0.355,0.275-1.125,0.434-0.896,0.769C55.625,79.66,56.797,78.936,57.745,78.014z
		 M21.521,72.125c-0.045-0.722-0.157-1.378-0.256-2.048c-0.716-0.138-1.201-0.505-1.792-0.768
		C19.238,71.166,20.484,71.541,21.521,72.125z M22.29,74.686c0.994,1.519,4.774,2.435,6.528,0.896
		c-0.098-1.164,0.2-1.934,0.128-3.072c-2.124-0.735-4.321-1.396-6.528-2.047C22.216,71.71,22.308,73.253,22.29,74.686z
		 M22.673,77.117c1.049,1.635,4.967,1.689,6.144,0.128c-0.08-0.389,0.164-1.103-0.128-1.28c-1.465,1.504-5.349,0.962-6.528-0.384
		C22.446,75.979,22.853,76.255,22.673,77.117z M75.025,93.629c1.57,2.702,7.679,3.689,10.368,1.28
		c-0.229-0.796-0.002-2.047-0.257-2.816c-3.731-0.449-6.097-2.266-9.855-2.688C75.2,90.817,74.95,92.061,75.025,93.629z
		 M79.505,97.085c-1.853-0.173-3.343-1.103-4.352-1.536c0.089,4.645,10.952,5.358,10.112-0.256
		C84.194,96.634,81.848,97.304,79.505,97.085z"/>
	<path fill-rule="evenodd" clip-rule="evenodd" fill="#FFFFFF" d="M42.642,79.421c-4.167-1.251-8.535-3.412-12.928-4.863
		c0.097-0.543,0.159-1.121,0.256-1.664c3.28,0.858,6.296,1.98,9.472,2.943C40.248,77.292,41.184,78.617,42.642,79.421z"/>
	<path fill-rule="evenodd" clip-rule="evenodd" d="M43.666,73.405c0-0.214,0-0.427,0-0.64c0.746,2.529,2.288,4.036,5.12,3.968
		c6.905-0.167,6.616-12.321-0.896-12.416c-1.221-0.016-2.037,0.566-3.072,0.512c1.104-1.076,2.692-1.037,3.84-0.896
		c3.143,0.386,5.609,3.485,5.632,6.912c0.021,3.199-2.079,6.089-5.376,6.144C46.498,77.029,44.261,75.577,43.666,73.405z"/>
	<path fill-rule="evenodd" clip-rule="evenodd" d="M28.945,52.413c0.279,0.404,0.56,0.806,0.512,1.536
		C28.236,55.874,26.525,52.176,28.945,52.413z"/>
</g>
</svg>
