<?xml version="1.0" encoding="utf-8"?>
<!-- Generator: Adobe Illustrator 14.0.0, SVG Export Plug-In . SVG Version: 6.00 Build 43363)  -->
<!DOCTYPE svg PUBLIC "-//W3C//DTD SVG 1.1//EN" "http://www.w3.org/Graphics/SVG/1.1/DTD/svg11.dtd">
<svg version="1.1" id="图层_1" xmlns="http://www.w3.org/2000/svg" xmlns:xlink="http://www.w3.org/1999/xlink" x="0px" y="0px"
	 width="141.73px" height="141.73px" viewBox="0 0 141.73 141.73" enable-background="new 0 0 141.73 141.73" xml:space="preserve">
<g>
	<path fill="#FFFFFF" d="M134.76,1.744c1.039,2.537-0.166,4.948,1.151,9.215c1.044,6.421-8.127,2.625-9.217,6.913
		c0.004,33.794-1.95,65.631-1.152,100.225c-35.178,7.829-71.579,14.437-107.136,21.888c-0.368-37.935,0.969-81.434-1.152-114.049
		c-4.551-1.207-8.332-3.188-11.52-5.76c1.403-5.177-0.333-5.005,1.152-11.521C46.466,11.536,95.703,6.794,134.76,1.744z
		 M21.863,40.912c0,30.721,0,61.44,0,92.161c34.471-5.468,66.744-13.128,100.225-19.583c0-27.266,0-54.529,0-81.794
		C88.101,34.19,55.01,37.58,21.863,40.912z"/>
</g>
</svg>
