<?xml version="1.0" encoding="utf-8"?>
<!-- Generator: Adobe Illustrator 14.0.0, SVG Export Plug-In . SVG Version: 6.00 Build 43363)  -->
<!DOCTYPE svg PUBLIC "-//W3C//DTD SVG 1.1//EN" "http://www.w3.org/Graphics/SVG/1.1/DTD/svg11.dtd">
<svg version="1.1" id="图层_1" xmlns="http://www.w3.org/2000/svg" xmlns:xlink="http://www.w3.org/1999/xlink" x="0px" y="0px"
	 width="141.73px" height="141.73px" viewBox="0 0 141.73 141.73" enable-background="new 0 0 141.73 141.73" xml:space="preserve">
<g>
	<path fill-rule="evenodd" clip-rule="evenodd" d="M127.506,11.614c0.866,2.114-0.138,4.123,0.96,7.68
		c0.869,5.35-6.773,2.187-7.681,5.76c0.003,28.163-1.626,54.693-0.96,83.521c-29.315,6.524-59.649,12.03-89.28,18.24
		c-0.307-31.612,0.807-67.862-0.96-95.041c-3.793-1.006-6.944-2.656-9.6-4.8c1.169-4.314-0.277-4.171,0.96-9.6
		C53.927,19.774,94.958,15.822,127.506,11.614z M33.425,44.254c0,25.6,0,51.2,0,76.8c28.725-4.555,55.62-10.94,83.52-16.319
		c0-22.721,0-45.44,0-68.161C88.623,38.652,61.048,41.477,33.425,44.254z"/>
</g>
</svg>
