<?xml version="1.0" encoding="utf-8"?>
<!-- Generator: Adobe Illustrator 14.0.0, SVG Export Plug-In . SVG Version: 6.00 Build 43363)  -->
<!DOCTYPE svg PUBLIC "-//W3C//DTD SVG 1.1//EN" "http://www.w3.org/Graphics/SVG/1.1/DTD/svg11.dtd">
<svg version="1.1" id="图层_1" xmlns="http://www.w3.org/2000/svg" xmlns:xlink="http://www.w3.org/1999/xlink" x="0px" y="0px"
	 width="141.73px" height="141.73px" viewBox="0 0 141.73 141.73" enable-background="new 0 0 141.73 141.73" xml:space="preserve">
<g>
	<path fill="#FFFFFF" d="M52.634,12.039c6.183,9.983,9.927,22.403,16.498,31.996c3.141-0.758,4.59-4.609,5.999-6.999
		c4.71-7.987,9.199-16.758,14.498-24.497c0.725-2.304-0.644-4.938,2-6c5.434-0.081,3.34,5.979,0,6.5
		c-6.131,10.534-12.155,21.173-18.498,31.496c1.938,1.562,3.408,3.591,4,6.499c13.682,2.135,38.01-4.866,41.994,5
		c2.099,5.19,0.5,18.592,0.5,26.997c0,14.459,3.159,31.82-6.499,33.996c-12.006,2.703-27.284-2.424-38.995,0.5
		c-0.4,5.233,8.826,0.84,11.499,3c0.956,1.32,0.52,4.59,0,5.998c-10.563,0.824-23.183,1.635-32.996-0.5
		c0.163-1.836-0.427-4.426,0.5-5.498c2.445-1.723,9.386,1.053,10.999-1.5c-1.004-3.68-6.176-2-8.5-2c-11.287,0-34.236,3.07-36.495-6
		c-1.921-7.711,0-18.527,0-27.996c0-10.644-2.353-27.735,4.5-30.996c9.877-4.702,25.895,1.428,37.495-1
		c1.391-2.276,2.154-5.178,4.499-6.499C59.92,32.249,55.029,19.143,47.634,8.54C49.534,4.902,54.807,7.495,52.634,12.039z
		 M80.13,58.533c-6.431-0.723-11.117-2.808-16.497-1c-7.857,2.641-22.264,0.099-35.995,1c-0.028,0.305-0.075,0.592-0.5,0.5
		c0,16.831,0,33.663,0,50.493c12.106,0.723,21.857-1.004,30.495,0c3.24,0.377,5.75,2.258,8.499,2.5
		c8.066,0.713,11.015-2.062,15.498-2.5c9.958-0.976,18.302,0.709,29.996,0c-0.33-16.834,0.663-34.99-0.5-50.993
		C99.125,57.795,89.189,59.552,80.13,58.533z"/>
	<path fill="#FFFFFF" d="M92.796,70.699c0.696,1.5,0.58,3.479-1.999,3C90.101,72.199,90.218,70.219,92.796,70.699z"/>
	<path fill="#FFFFFF" d="M40.136,73.771c8.498,0,16.997,0,25.496,0c0,2.5,0,5,0,7.499c-2.666,0-5.333,0-7.999,0
		c-1.165,6.168-0.168,14.497-0.5,21.498c-2.833,0-5.666,0-8.499,0c0-7.166,0-14.332,0-21.498c-2.833,0-5.666,0-8.498,0
		C40.136,78.771,40.136,76.271,40.136,73.771z"/>
	<path fill="#FFFFFF" d="M69.246,73.771c2.999,0,5.999,0,8.999,0c1.075,6.091,2.823,11.509,4.499,16.998
		c1.756-5.41,3.313-11.021,4.5-16.998c3.166,0,6.332,0,9.498,0c-3.056,9.608-6.182,19.147-8.998,28.997c-3.333,0-6.666,0-9.999,0
		C74.731,93.283,71.638,83.878,69.246,73.771z"/>
</g>
</svg>
