<?xml version="1.0" encoding="utf-8"?>
<!-- Generator: Adobe Illustrator 14.0.0, SVG Export Plug-In . SVG Version: 6.00 Build 43363)  -->
<!DOCTYPE svg PUBLIC "-//W3C//DTD SVG 1.1//EN" "http://www.w3.org/Graphics/SVG/1.1/DTD/svg11.dtd">
<svg version="1.1" id="图层_1" xmlns="http://www.w3.org/2000/svg" xmlns:xlink="http://www.w3.org/1999/xlink" x="0px" y="0px"
	 width="141.73px" height="141.73px" viewBox="0 0 141.73 141.73" enable-background="new 0 0 141.73 141.73" xml:space="preserve">
<g>
	<path fill-rule="evenodd" clip-rule="evenodd" d="M52.634,12.039c6.182,9.983,9.926,22.403,16.498,31.996
		c3.14-0.758,4.589-4.609,5.999-6.999c4.71-7.987,9.199-16.758,14.498-24.497c0.724-2.304-0.644-4.938,2-6
		c5.433-0.081,3.34,5.979,0,6.5c-6.131,10.534-12.156,21.173-18.498,31.496c1.938,1.561,3.408,3.591,4,6.499
		c13.681,2.135,38.009-4.866,41.994,5c2.098,5.19,0.5,18.592,0.5,26.997c0,14.459,3.159,31.82-6.499,33.996
		c-12.006,2.703-27.284-2.424-38.995,0.5c-0.401,5.234,8.826,0.84,11.499,3c0.956,1.32,0.519,4.59,0,5.998
		c-10.564,0.824-23.183,1.635-32.996-0.5c0.163-1.836-0.427-4.426,0.5-5.498c2.445-1.723,9.385,1.053,10.999-1.5
		c-1.004-3.68-6.176-2-8.5-2c-11.288,0-34.237,3.07-36.496-6c-1.92-7.711,0-18.527,0-27.996c0-10.644-2.352-27.735,4.5-30.996
		c9.877-4.702,25.895,1.428,37.496-1c1.39-2.276,2.154-5.178,4.499-6.499C59.92,32.249,55.029,19.143,47.634,8.54
		C49.534,4.902,54.807,7.495,52.634,12.039z M80.13,58.533c-6.431-0.723-11.118-2.808-16.497-1c-7.858,2.641-22.264,0.099-35.996,1
		c-0.028,0.305-0.075,0.592-0.5,0.5c0,16.831,0,33.663,0,50.493c12.107,0.723,21.858-1.004,30.496,0
		c3.24,0.377,5.75,2.258,8.499,2.5c8.066,0.713,11.014-2.061,15.498-2.5c9.958-0.975,18.301,0.709,29.996,0
		c-0.33-16.834,0.663-34.99-0.5-50.993C99.125,57.795,89.189,59.552,80.13,58.533z"/>
	<path fill-rule="evenodd" clip-rule="evenodd" fill="#FFFFFF" d="M92.796,70.699c0.696,1.5,0.58,3.479-1.999,3
		C90.101,72.199,90.218,70.219,92.796,70.699z"/>
	<path fill-rule="evenodd" clip-rule="evenodd" d="M40.136,73.771c8.499,0,16.998,0,25.497,0c0,2.5,0,5,0,7.499
		c-2.666,0-5.333,0-7.999,0c-1.165,6.168-0.168,14.497-0.5,21.498c-2.833,0-5.666,0-8.499,0c0-7.166,0-14.332,0-21.498
		c-2.833,0-5.666,0-8.499,0C40.136,78.771,40.136,76.271,40.136,73.771z"/>
	<path fill-rule="evenodd" clip-rule="evenodd" d="M69.246,73.771c2.999,0,5.999,0,8.999,0c1.075,6.091,2.823,11.509,4.499,16.998
		c1.756-5.41,3.313-11.02,4.5-16.998c3.166,0,6.332,0,9.498,0c-3.056,9.609-6.182,19.148-8.998,28.997c-3.333,0-6.666,0-9.999,0
		C74.731,93.283,71.638,83.878,69.246,73.771z"/>
</g>
</svg>
