<?xml version="1.0" encoding="utf-8"?>
<!-- Generator: Adobe Illustrator 14.0.0, SVG Export Plug-In . SVG Version: 6.00 Build 43363)  -->
<!DOCTYPE svg PUBLIC "-//W3C//DTD SVG 1.1//EN" "http://www.w3.org/Graphics/SVG/1.1/DTD/svg11.dtd">
<svg version="1.1" id="图层_1" xmlns="http://www.w3.org/2000/svg" xmlns:xlink="http://www.w3.org/1999/xlink" x="0px" y="0px"
	 width="141.73px" height="141.73px" viewBox="0 0 141.73 141.73" enable-background="new 0 0 141.73 141.73" xml:space="preserve">
<g>
	<path fill="#FFFFFF" d="M45.6,72.188"/>
	<path fill="#FFFFFF" d="M56.2,92.787c-3.769,0-7.947,0.131-9.4-1.398"/>
</g>
<g>
	<path fill-rule="evenodd" clip-rule="evenodd" d="M66.676,24.029c3.89-0.75,7.31-1.97,11.28-2.64c0,4.16,0,8.32,0,12.48
		c-3.987-0.172-7.715-0.605-11.52-0.96c-0.559,2.002-0.082,5.039-0.24,7.44c-3.44,0-6.88,0-10.32,0c0-2.48,0-4.96,0-7.44
		c-4.103,0.297-8,0.8-12.24,0.96c0-4.16,0-8.32,0-12.48c3.852,0.788,7.6,1.681,11.28,2.64
		C56.621,19.145,65.042,18.835,66.676,24.029z"/>
	<path fill-rule="evenodd" clip-rule="evenodd" d="M75.076,48.989c-9.2,0-18.4,0-27.6,0c-0.332-0.633,1.836-2.222,2.88-3.12
		c1.311-1.128,2.764-2.214,3.84-3.12c0.06-0.261,0.477-0.163,0.48-0.48c4.732,0.671,8.66-0.927,12.48,0
		C70.087,42.98,73.104,47.683,75.076,48.989z"/>
	<path fill-rule="evenodd" clip-rule="evenodd" d="M76.516,50.669c0.553,3.607,0.085,8.234,0.239,12.24
		c21.004,1.476,32.609,12.351,33.12,34.32c-6,0-12,0-18,0c-0.271-8.45-6.041-11.399-14.399-11.761
		c-0.321,2.399-0.243,5.197-0.24,7.92c-11.04,0-22.08,0-33.12,0c0-1.84,0-3.68,0-5.52c-6.163-0.558-13.357-0.082-19.919-0.24
		c0-9.04,0-18.08,0-27.12c6.163-0.557,13.357-0.082,19.919-0.24c0.16-3.121-0.319-6.879,0.24-9.6
		C55.076,50.669,65.796,50.669,76.516,50.669z"/>
	<path fill-rule="evenodd" clip-rule="evenodd" d="M101.956,98.189c2.454,8.173,11.76,13.352,11.76,25.439
		c0,5.249-1.586,9.834-5.04,13.2c-4.518-0.914-8.934,1.22-12.96,0c-1.508-0.458-3.022-3.147-3.6-4.32
		c-1.302-2.644-1.92-6.04-1.92-8.88C90.196,111.992,99.83,106.462,101.956,98.189z"/>
</g>
</svg>
