<?xml version="1.0" encoding="utf-8"?>
<!-- Generator: Adobe Illustrator 14.0.0, SVG Export Plug-In . SVG Version: 6.00 Build 43363)  -->
<!DOCTYPE svg PUBLIC "-//W3C//DTD SVG 1.1//EN" "http://www.w3.org/Graphics/SVG/1.1/DTD/svg11.dtd">
<svg version="1.1" id="图层_1" xmlns="http://www.w3.org/2000/svg" xmlns:xlink="http://www.w3.org/1999/xlink" x="0px" y="0px"
	 width="141.73px" height="141.73px" viewBox="0 0 141.73 141.73" enable-background="new 0 0 141.73 141.73" xml:space="preserve">
<g>
	<path fill-rule="evenodd" clip-rule="evenodd" fill="#FFFFFF" d="M57.193,12.907c0.275-0.346,0.112,0.759,0.155,1.036
		C57.072,14.29,57.234,13.184,57.193,12.907z"/>
	<path fill-rule="evenodd" clip-rule="evenodd" fill="#FFFFFF" d="M78.032,12.907c0.298-0.283,0.098,0.947,0.155,1.295
		C77.89,14.484,78.091,13.255,78.032,12.907z"/>
	<path fill-rule="evenodd" clip-rule="evenodd" fill="#FFFFFF" d="M84.407,14.98c0.325-0.133,0.082,1.311,0.156,1.814
		C84.241,16.929,84.482,15.484,84.407,14.98z"/>
	<path fill-rule="evenodd" clip-rule="evenodd" fill="#FFFFFF" d="M45.84,17.054c0.313-0.209,0.086,1.131,0.155,1.556
		C45.682,18.819,45.907,17.479,45.84,17.054z"/>
	<path fill-rule="evenodd" clip-rule="evenodd" fill="#FFFFFF" d="M41.795,18.869c0.33-0.055,0.076,1.489,0.156,2.073
		C41.621,20.997,41.876,19.453,41.795,18.869z"/>
	<path fill-rule="evenodd" clip-rule="evenodd" fill="#FFFFFF" d="M91.873,19.257c0.7,0.23,0.832,1.601,0.311,2.074
		C91.62,21.023,91.971,19.954,91.873,19.257z"/>
	<path fill-rule="evenodd" clip-rule="evenodd" fill="#FFFFFF" d="M94.983,20.683c0.313-0.209,0.088,1.131,0.155,1.556
		C94.826,22.447,95.052,21.107,94.983,20.683z"/>
	<path fill-rule="evenodd" clip-rule="evenodd" fill="#FFFFFF" d="M97.315,22.498c0.337,0.346,0.275,1.953,0.157,2.592
		C97.094,27.112,97.442,23.209,97.315,22.498z"/>
	<path fill-rule="evenodd" clip-rule="evenodd" fill="#FFFFFF" d="M100.894,26.385c0.312-0.209,0.088,1.131,0.155,1.556
		C100.736,28.151,100.96,26.81,100.894,26.385z"/>
	<path fill-rule="evenodd" clip-rule="evenodd" fill="#FFFFFF" d="M32.62,29.496c0.324-0.134,0.081,1.311,0.156,1.814
		C32.452,31.444,32.695,29.999,32.62,29.496z"/>
	<path fill-rule="evenodd" clip-rule="evenodd" fill="#FFFFFF" d="M30.442,31.569c0.6,0.788,0.292,4.967,0,1.944
		C30.392,32.979,30.478,32.458,30.442,31.569z"/>
	<path fill-rule="evenodd" clip-rule="evenodd" fill="#FFFFFF" d="M105.248,44.011c0.436,1.9,0.013,5.58,0.156,8.424
		c-0.283,0.372-0.151-1.045-0.156-1.685C105.235,48.775,105.256,46.001,105.248,44.011z"/>
	<path fill-rule="evenodd" clip-rule="evenodd" fill="#FFFFFF" d="M29.666,46.992c0.352,0.615,0.059,2.887,0.155,4.148
		C29.468,50.524,29.762,48.251,29.666,46.992z"/>
	<path fill-rule="evenodd" clip-rule="evenodd" fill="#FFFFFF" d="M33.864,56.064c1.09-0.302,2.851-0.045,4.199-0.129
		c1.4,0,2.799,0,4.199,0c2.799,0,5.599,0,8.398,0c5.598,0,11.198,0,16.796,0C56.57,56.237,45.01,55.977,33.864,56.064z"/>
	<path fill-rule="evenodd" clip-rule="evenodd" fill="#FFFFFF" d="M67.613,56.064c0.573-0.3,1.812-0.045,2.644-0.129
		c0.934,0,1.867,0,2.8,0c1.864,0,3.73,0,5.597,0C75.283,56.235,71.241,55.977,67.613,56.064z"/>
	<path fill-rule="evenodd" clip-rule="evenodd" fill="#FFFFFF" d="M79.121,56.064c0.967-0.242,2.91-0.181,3.889,0
		C82.162,56.205,80.429,55.968,79.121,56.064z"/>
	<path fill-rule="evenodd" clip-rule="evenodd" fill="#FFFFFF" d="M94.207,56.193c0.316-0.298,1.291-0.047,1.865-0.129
		C95.755,56.361,94.781,56.111,94.207,56.193z"/>
	<path fill-rule="evenodd" clip-rule="evenodd" fill="#FFFFFF" d="M26.866,56.193c0.312,0,0.623,0,0.933,0
		c-0.103,1.513,0.207,3.37-0.156,4.666c-0.155,0-0.311,0-0.466,0C26.54,59.612,27.178,57.855,26.866,56.193z"/>
	<path fill-rule="evenodd" clip-rule="evenodd" fill="#FFFFFF" d="M107.271,56.193c0.258,0,0.517,0,0.777,0
		c0.169,1.423,0.103,3.272,0,4.666c-0.156,0-0.312,0-0.467,0C106.864,59.815,107.471,57.668,107.271,56.193z"/>
	<path fill-rule="evenodd" clip-rule="evenodd" fill="#FFFFFF" d="M98.25,57.878c0.214-0.295,1.082-0.049,1.555-0.129
		C99.589,58.044,98.723,57.796,98.25,57.878z"/>
	<path fill-rule="evenodd" clip-rule="evenodd" fill="#FFFFFF" d="M106.803,58.007c0.289-0.314,0.105,0.855,0.156,1.168
		C106.671,59.488,106.854,58.32,106.803,58.007z"/>
	<path fill-rule="evenodd" clip-rule="evenodd" fill="#FFFFFF" d="M101.826,60.211c0.363,9.028,0.053,18.619,0.154,27.865
		c-0.513-4.746-0.377-9.437-0.311-13.608C101.749,69.554,101.203,64.998,101.826,60.211z"/>
	<path fill-rule="evenodd" clip-rule="evenodd" fill="#FFFFFF" d="M62.325,60.859c0.36,10.379,0.053,22.6,0.155,33.694
		C62.12,84.175,62.425,71.955,62.325,60.859z"/>
	<path fill-rule="evenodd" clip-rule="evenodd" fill="#FFFFFF" d="M27.954,60.859c0.39,14.476,0.156,26.745,0.155,40.953
		c0.048,0.561-0.023,2.979-0.155,1.425C27.954,89.111,27.954,74.986,27.954,60.859z"/>
	<path fill-rule="evenodd" clip-rule="evenodd" fill="#FFFFFF" d="M33.086,60.989c0.355,3.469,0.057,8.772,0.156,12.96
		C32.886,70.478,33.185,65.175,33.086,60.989z"/>
	<path fill-rule="evenodd" clip-rule="evenodd" fill="#FFFFFF" d="M106.803,60.859c0.764,13.58-0.031,24.453,0.156,38.75
		c0,0.434,0,0.865,0,1.296c-0.354-0.138-0.06-0.813-0.156-1.165c0-0.864,0-1.729,0-2.592c0-1.729,0-3.457,0-5.185
		C106.803,81.595,106.803,71.229,106.803,60.859z"/>
	<path fill-rule="evenodd" clip-rule="evenodd" fill="#FFFFFF" d="M72.589,61.507c0.238,0.368,0.325,0.938,0.155,1.296
		c0.208,0.389,0.159,0.991,0.154,1.555C72.652,64.752,72.539,62.33,72.589,61.507z"/>
	<path fill-rule="evenodd" clip-rule="evenodd" fill="#FFFFFF" d="M72.744,66.562c0.353,0.615,0.06,2.887,0.154,4.147
		C72.547,70.095,72.84,67.821,72.744,66.562z"/>
	<path fill-rule="evenodd" clip-rule="evenodd" fill="#FFFFFF" d="M33.086,74.725c0.347,0.276,0.064,2.191,0.156,3.112
		C32.896,77.561,33.178,75.646,33.086,74.725z"/>
	<path fill-rule="evenodd" clip-rule="evenodd" fill="#FFFFFF" d="M33.086,78.224c0.313-0.208,0.088,1.133,0.156,1.557
		C32.929,79.99,33.154,78.649,33.086,78.224z"/>
	<path fill-rule="evenodd" clip-rule="evenodd" fill="#FFFFFF" d="M101.826,88.205c0.152,0.004,0.122,0.159,0.154,0.26
		c0,0.994,0,1.987,0,2.981c-0.36-0.694-0.051-1.943-0.154-2.853C101.64,88.422,101.767,88.389,101.826,88.205z"/>
	<path fill-rule="evenodd" clip-rule="evenodd" fill="#FFFFFF" d="M65.747,92.871c-0.278-0.201-0.104-0.778-0.468-0.907
		c-0.477,0.092-0.298,0.092-0.776,0c-0.367,0.169-0.299,0.698-0.467,1.036c0.092,0.152,0.509-0.518,1.244-0.26
		c0.303,2.024-1.082,4.767-1.399,7.129c-0.58-0.012-0.443-0.147-0.932,0c0.271-2.763,1.226-4.86,0.932-7.776
		C64.475,91.451,66.123,91.619,65.747,92.871z M64.502,93.646c0.449,0.162,0.709,0.068,0.776-0.387
		c-0.315-0.227-0.304,0.097-0.621-0.131C64.608,93.304,64.436,93.376,64.502,93.646z"/>
	<path fill-rule="evenodd" clip-rule="evenodd" fill="#FFFFFF" d="M64.658,93.128c0.316,0.228,0.305-0.096,0.621,0.131
		c-0.067,0.455-0.328,0.549-0.776,0.387C64.436,93.376,64.608,93.304,64.658,93.128z"/>
	<path fill-rule="evenodd" clip-rule="evenodd" fill="#FFFFFF" d="M101.826,94.038c0.288-0.316,0.104,0.854,0.154,1.165
		C101.695,95.517,101.878,94.349,101.826,94.038z"/>
	<path fill-rule="evenodd" clip-rule="evenodd" fill="#FFFFFF" d="M106.803,101.294c0.314-0.209,0.088,1.132,0.156,1.554
		C106.646,103.059,106.871,101.718,106.803,101.294z"/>
	<path fill-rule="evenodd" clip-rule="evenodd" fill="#FFFFFF" d="M107.426,123.068c0.103,0,0.207,0,0.311,0
		c0.516,0.961,0.516,3.703,0,4.664c-0.835-0.148-0.461-1.193-0.466-1.943c-0.006-0.783,0.003-1.689,0-2.332
		C107.227,123.246,107.416,123.232,107.426,123.068z"/>
	<path fill-rule="evenodd" clip-rule="evenodd" fill="#FFFFFF" d="M27.021,123.197c0.181,0.107,0.417,0.171,0.778,0.129
		c-0.545,1.23,0.333,3.648-0.466,4.666c-1.017-0.904,0.031-2.939-0.467-4.406C26.822,123.375,27.012,123.363,27.021,123.197z"/>
	<path fill-rule="evenodd" clip-rule="evenodd" fill="#FFFFFF" d="M101.826,123.845c-9.382,0.303-19.439,0.043-29.082,0.129
		c3.218-0.855,9.053-0.518,14.463-0.518C92.749,123.457,98.033,123.215,101.826,123.845z"/>
	<path fill-rule="evenodd" clip-rule="evenodd" fill="#FFFFFF" d="M61.858,123.845c-9.555,0.268-18.45,0.261-28.771,0.258
		c3.663-0.857,10.072-0.518,15.552-0.518C53.288,123.585,57.902,123.379,61.858,123.845z"/>
	<path fill-rule="evenodd" clip-rule="evenodd" fill="#FFFFFF" d="M67.923,12.129c0.27-0.208,0.337-0.583,0.312-1.036
		c0.705,0.009,0.932,0.268,1.708,0c0.133,0.322,0.204,0.693,0.156,1.165c0.349-0.056,0.063-0.638,0.156-0.907
		c0.296-0.282,0.099,0.948,0.156,1.296c0.443-0.278-0.186-1.451,0.466-1.554c0.401,0.086,0.541-0.025,0.466,0.647
		c0.211-0.041,0.128-0.325,0.157-0.519c0.472,0.002,1.246,0.419,1.556,0.129c0.359,0.564,0.052,1.683,0.154,2.462
		c0.444-0.537-0.126-1.92,0.311-2.462c0.538,0.458,0.229,1.624,0.311,2.462c0.38-0.592-0.027-1.84,0.313-2.462
		c0.617,0.48,0.179,1.838,0.312,2.722c0.657-0.343,0.12-2.132,0.311-2.462c0.829-0.173,0.333,0.76,0.466,1.167
		c0.539-0.027,0.285-0.714,0.466-1.037c0.463,0.436-0.15,1.767,0.313,2.202c0.108-0.293,0.198-1.386,0.156-2.202
		c0.663,0.439,0.146,1.864,0.31,2.722c0.36-0.607,0.055-1.77,0.155-2.592c0.583,0.12,0.203,1.041,0.313,1.555
		c0.354-0.265,0.054-1.077,0.154-1.555c0.664,0.44,0.147,1.864,0.311,2.722c0.445-0.579-0.13-2.008,0.311-2.592
		c0.294,0.702,0.645-0.217,0.778,0.518c0.183-0.021,0.131-0.236,0.154-0.389c1.001,0.291,0.511,1.821,0.622,2.851
		c0.444-0.536-0.126-1.92,0.311-2.462c1.25-0.046,0.636,1.459,0.778,2.333c0.36-0.435,0.056-1.424,0.156-2.073
		c0.188,0.146,0.281,0.37,0.778,0.258c0.112,0.826-0.056,1.518,0,2.593c0.24-0.707,0.29-1.572,0.311-2.463
		c1.249-0.047,0.634,1.458,0.777,2.333c0.359-0.478,0.053-1.51,0.155-2.203c0.318,0.124,0.615,0.266,0.933,0.389
		c0,0.778,0,1.555,0,2.333c0.356-0.222,0.059-0.989,0.157-1.425c0.249-0.037,0.267,0.123,0.466,0.129
		c0.051-0.431-0.765-0.141-0.466-0.778c0.832,0.168,0.949,0.099,1.71,0.39c0,0.519,0,1.037,0,1.555
		c0.414-0.216-0.086-1.194,0.311-1.425c0.595,0.629,0.067-0.231,1.09,0.389c0.135,0.709,0.135,0.716,0,1.425
		c0.336-0.238,0.328-0.764,0.311-1.296c1.555,0.952,3.049,1.614,5.131,2.593c0,0.259,0,0.518,0,0.777
		c0.211-0.041,0.129-0.324,0.155-0.519c0.627,0.343,1.165,0.759,1.711,1.167c-0.257,1.081-0.124,2.488-0.155,3.758
		c0.457-0.958,0.039-2.652,0.313-3.629c0.489,0.77-0.088,3.511,0.312,4.277c0.691-0.806,0.126-2.659,0.31-3.888
		c1.067,0.417,0.041,3.439,0.623,4.666c0.35-0.895,0.201-2.468,0.311-3.888c1.373,0.583,0.148,3.333,0.777,4.536
		c0.016-1.202,0.242-2.633,0-3.888c1.08,0.896,2.991,1.769,3.576,3.758c-0.183-0.021-0.129-0.236-0.154-0.388
		c-0.296,1.094-0.093,3.028-0.156,4.666c0.291-0.838,0.674-1.599,0.622-2.722c-0.347,0.055-0.064,0.638-0.154,0.907
		c-0.274-0.085,0.013-2.558,0.154-2.722c-0.028,0.11,0.062,0.122,0.155,0.13c0.025-0.619,0.285,0.21,0.312,0.389
		c0.683-0.211,0.665,1.475,1.4,1.167c0.423,0.898,0.782,1.852,1.71,2.332c-0.044,0.682,0.164,0.769,0,1.296
		c0.506-0.189-0.114-0.71,0.466-0.647c0.604,1.31,1.356,2.103,1.712,3.369c1.294,1.715,2.97,6.883,3.266,10.498
		c0.329,4.018-0.243,8.514,0,12.961c0.464,8.525-0.067,17.355,0,25.66c0.13,16.038-0.15,32.814,0.154,48.34
		c-27.925,0.188-55.985,0.262-84.136,0.26c0-21.213,0-43.475,0-65.06c0-7.341-0.434-14.586,0-21.642
		c0.348-5.634,2.454-9.939,4.822-14.127c0.399-0.011,0.222-0.604,0.623-0.259c-0.571-0.279,0.667-0.977,0.156-0.778
		c0.574-1.02,2.289-2.808,2.488-3.11c1.109-1.091,2.244-2.317,3.421-3.499c0.265-0.047,0.293,0.101,0.311,0.259
		c0.256-0.208-0.069-0.484,0.312-0.777c0.169,0.032,0.105,0.258,0.312,0.259c0.709-1.692,2.271-1.629,3.576-3.11
		c0.265-0.048,0.293,0.101,0.311,0.259c0.164-0.943,1.492-0.917,1.866-1.685c0.446,0.018-0.133,0.89,0.312,0.907
		c0.252-1.495,0.825-1.06,1.399-1.685c0.343,0.016,0.066,0.55,0.155,0.777c0.348-0.056,0.063-0.638,0.156-0.907
		c1.369-0.465,3.051-1.545,4.665-1.944c0.592-0.104,0.197,0.613,0.311,0.907c0.26-0.431,0.063-1.243,0.623-1.425
		c0.444,0.018,0.284,0.541,0.311,0.908c0.347-0.057,0.063-0.64,0.155-0.908c0.582,0.173,1.02-0.535,1.711-0.389
		c-0.124,0.488,0.079,1.487,0,2.333c0.446-0.578-0.13-2.008,0.311-2.591c0.78,0.543-0.108,1.729,0.311,2.462
		c0.34-0.888,0.08-2.031,0.312-2.722c0.522-0.133,0.241,0.403,0.311,0.648c0.242-0.342,0.279-0.855,0.622-0.777
		c0.636-0.039,0.083,0.271,0.156,0.518c0.391,0.055,0.217-1.013,0.467-0.647c0.507-0.03,0.219,0.794,0.31,1.425
		c0.358-0.307,0.056-1.163,0.156-1.685c0.589,0.374,0.198,1.563,0.311,2.333c0.417-0.695-0.192-2.334,0.623-2.462
		c0.563,0.091,0.214,0.944,0.31,1.425c0.457-0.182-0.144-1.244,0.312-1.425c0.042-0.479,1.371,0.275,1.244-0.389
		c0.548,0.277,0.223,1.283,0.311,1.944c0.542-0.369-0.325-1.913,0.466-2.074c-0.435,0.499,0.354-0.099,0.623,0.26
		c0,0.69,0,1.382,0,2.073c0.451-0.853-0.134-1.703,0.311-2.333c0.004-0.005,0.655,0.498,0.467-0.129
		c0.36,0.521,0.055,1.597,0.155,2.333c0.445-0.632-0.165-2.204,0.466-2.333c0.356,0.222,0.058,0.99,0.156,1.426
		c0.346-0.614,0.215-0.141,0.467,0.258c0.446-0.779-0.333-1.136,0.155-1.814c0.276,0.242,0.395-0.105,0.933,0
		c0,0.778,0,1.556,0,2.333c0.353-0.138,0.06-0.814,0.155-1.166c0.215-0.413,0.155,0.458,0.156,0.647
		c0.623-0.216,0.178-1.321,0.313-1.943c0.783,0.081-0.069,1.525,0.465,1.814c0.256-0.362-0.258-1.478,0.311-1.814
		c0.358,0.391,0.055,1.336,0.155,1.943c0.835,0.091,0.601-0.709,0.623-1.295c-0.495,0.063,0.262,1.168-0.465,1.037
		c0-0.52,0-1.037,0-1.556c1.13-0.479,1.641,0.024,2.331-0.129C68.105,11.439,67.978,11.681,67.923,12.129z M57.348,13.943
		c-0.043-0.276,0.12-1.382-0.155-1.036C57.234,13.184,57.072,14.29,57.348,13.943z M78.188,14.203
		c-0.058-0.349,0.143-1.578-0.155-1.295C78.091,13.255,77.89,14.484,78.188,14.203z M84.563,16.794
		c-0.074-0.503,0.169-1.948-0.156-1.814C84.482,15.484,84.241,16.929,84.563,16.794z M66.835,52.435
		c11.027,0.284,25.469,0.056,37.48,0.129c0.164-6.142,0.038-12.042-1.866-16.459c-0.232-0.359-0.637,0.225-0.779-0.129
		c0.344,0.055,0.858-0.388,0.468-0.519c-1.122-2.732-3.112-5.517-5.287-7.906c-2.085-2.287-4.664-4.181-6.999-6.091
		c-0.771-0.63-0.763-0.416-1.556-0.778c-0.356-0.163-0.616-0.48-0.933-0.648c-5.303-2.81-12.032-4.589-19.907-5.055
		c-4.537,0.343-8.688,0.949-12.44,2.074c-3.416,1.023-6.179,2.363-9.332,3.759c-0.691,0.96-1.859,1.498-2.8,2.203
		c-8.736,6.55-13.293,15.169-12.287,29.419c11.717-0.091,24.119,0.527,35.771-0.13c0.188-0.623-1.5-0.712-1.556-1.555
		c0.48,0.252,1.699,0.567,1.556,0.907c-0.356-0.023-1.216-0.898-0.932-0.259C66.278,51.511,66.598,52.172,66.835,52.435z
		 M45.995,18.609c-0.068-0.425,0.158-1.765-0.155-1.556C45.907,17.479,45.682,18.819,45.995,18.609z M41.952,20.942
		c-0.081-0.584,0.174-2.128-0.156-2.073C41.876,19.453,41.621,20.997,41.952,20.942z M92.184,21.331
		c0.521-0.473,0.39-1.844-0.311-2.074C91.971,19.954,91.62,21.023,92.184,21.331z M95.139,22.238
		c-0.067-0.425,0.158-1.765-0.155-1.556C95.052,21.107,94.826,22.447,95.139,22.238z M97.473,25.089
		c0.118-0.639,0.18-2.246-0.157-2.592C97.442,23.209,97.094,27.112,97.473,25.089z M101.049,27.94
		c-0.067-0.425,0.156-1.765-0.155-1.556C100.96,26.81,100.736,28.151,101.049,27.94z M32.776,31.31
		c-0.076-0.503,0.167-1.948-0.156-1.814C32.695,29.999,32.452,31.444,32.776,31.31z M30.442,33.513c0.292,3.023,0.6-1.156,0-1.944
		C30.478,32.458,30.392,32.979,30.442,33.513z M104.315,35.587c-0.015-1.189-0.099-1.543-0.156-2.722
		c-0.257,0.266-0.257,1.418,0,1.685C104.311,35.18,103.736,36.446,104.315,35.587z M105.248,50.75
		c0.005,0.64-0.127,2.057,0.156,1.685c-0.144-2.844,0.279-6.523-0.156-8.424C105.256,46.001,105.235,48.775,105.248,50.75z
		 M29.821,51.14c-0.096-1.261,0.197-3.533-0.155-4.148C29.762,48.251,29.468,50.524,29.821,51.14z M67.456,55.935
		c-5.598,0-11.198,0-16.796,0c-2.799,0-5.599,0-8.398,0c-1.4,0-2.799,0-4.199,0c-1.348,0.084-3.109-0.173-4.199,0.129
		C45.01,55.977,56.57,56.237,67.456,55.935z M78.653,55.935c-1.866,0-3.732,0-5.597,0c-0.934,0-1.867,0-2.8,0
		c-0.832,0.084-2.07-0.171-2.644,0.129C71.241,55.977,75.283,56.235,78.653,55.935z M83.01,56.064c-0.979-0.181-2.922-0.242-3.889,0
		C80.429,55.968,82.162,56.205,83.01,56.064z M83.632,56.193c0.78-0.001,2.275-0.084,2.332-0.258
		C85.108,55.956,84.275,55.995,83.632,56.193z M96.072,56.064c-0.574,0.082-1.549-0.169-1.865,0.129
		C94.781,56.111,95.755,56.361,96.072,56.064z M27.177,60.859c0.155,0,0.311,0,0.466,0c0.362-1.296,0.053-3.152,0.156-4.666
		c-0.311,0-0.622,0-0.933,0C27.178,57.855,26.54,59.612,27.177,60.859z M107.581,60.859c0.155,0,0.311,0,0.467,0
		c0.103-1.393,0.169-3.242,0-4.666c-0.261,0-0.52,0-0.777,0C107.471,57.668,106.864,59.815,107.581,60.859z M99.805,57.749
		c-0.473,0.08-1.341-0.166-1.555,0.129C98.723,57.796,99.589,58.044,99.805,57.749z M106.959,59.175
		c-0.051-0.313,0.133-1.482-0.156-1.168C106.854,58.32,106.671,59.488,106.959,59.175z M101.67,74.467
		c-0.066,4.172-0.202,8.862,0.311,13.608c-0.102-9.246,0.209-18.836-0.154-27.865C101.203,64.998,101.749,69.554,101.67,74.467z
		 M62.48,94.553c-0.102-11.095,0.205-23.315-0.155-33.694C62.425,71.955,62.12,84.175,62.48,94.553z M27.954,103.237
		c0.132,1.554,0.203-0.864,0.155-1.425c0.001-14.208,0.235-26.478-0.155-40.953C27.954,74.986,27.954,89.111,27.954,103.237z
		 M33.242,73.95c-0.099-4.188,0.2-9.492-0.156-12.96C33.185,65.175,32.886,70.478,33.242,73.95z M34.175,61.247
		c0,20.563,0,41.127,0,61.689c9.176-0.084,18.766,0.174,27.683-0.129c-0.104-20.606,0.208-41.557-0.156-61.948
		c-9.124,0-18.249,0-27.372,0C34.149,60.88,34.162,61.063,34.175,61.247z M73.367,61.247c0,20.563,0,41.127,0,61.689
		c9.283,0.05,18.177-0.229,27.526-0.129c-0.104-20.606,0.207-41.557-0.155-61.948c-9.072,0-18.145,0-27.217,0
		C73.342,60.88,73.354,61.063,73.367,61.247z M106.803,91.963c0,1.728,0,3.455,0,5.185c0,0.862,0,1.728,0,2.592
		c0.097,0.352-0.197,1.027,0.156,1.165c0-0.431,0-0.862,0-1.296c-0.188-14.297,0.607-25.17-0.156-38.75
		C106.803,71.229,106.803,81.595,106.803,91.963z M72.898,64.358c0.005-0.564,0.054-1.166-0.154-1.555
		c0.17-0.358,0.083-0.928-0.155-1.296C72.539,62.33,72.652,64.752,72.898,64.358z M72.898,70.708
		c-0.095-1.26,0.198-3.532-0.154-4.147C72.84,67.821,72.547,70.095,72.898,70.708z M33.242,77.837
		c-0.091-0.921,0.191-2.836-0.156-3.112C33.178,75.646,32.896,77.561,33.242,77.837z M33.242,79.781
		c-0.067-0.424,0.157-1.765-0.156-1.557C33.154,78.649,32.929,79.99,33.242,79.781z M101.826,88.593
		c0.104,0.909-0.206,2.158,0.154,2.853c0-0.994,0-1.987,0-2.981c-0.032-0.101-0.002-0.256-0.154-0.26
		C101.767,88.389,101.64,88.422,101.826,88.593z M63.879,92.092c0.293,2.916-0.661,5.014-0.932,7.776
		c0.489-0.147,0.352-0.012,0.932,0c0.318-2.362,1.703-5.104,1.399-7.129c-0.734-0.258-1.152,0.412-1.244,0.26
		c0.168-0.338,0.101-0.867,0.467-1.036c0.478,0.092,0.299,0.092,0.776,0c0.364,0.129,0.19,0.706,0.468,0.907
		C66.123,91.619,64.475,91.451,63.879,92.092z M70.412,93.128c0.102-0.516-0.59-0.37-1.088-0.389
		c-0.241,2.367,0.549,4.98,0.932,7.258c0.367,0.003,0.457-0.223,0.934-0.129c-0.338-2.573-0.706-5.048-0.468-7.776
		c-1.664-1.202-2.569,0.978-1.71,1.814c-0.004-0.593-0.278-1.652,0.467-1.943c0.438,0.521-0.058-0.035,0.465,0
		C70.358,92.388,70.511,92.233,70.412,93.128z M101.98,95.203c-0.05-0.312,0.134-1.481-0.154-1.165
		C101.878,94.349,101.695,95.517,101.98,95.203z M106.959,102.848c-0.068-0.422,0.158-1.763-0.156-1.554
		C106.871,101.718,106.646,103.059,106.959,102.848z M107.271,123.457c0.003,0.643-0.006,1.549,0,2.332
		c0.005,0.75-0.369,1.795,0.466,1.943c0.516-0.961,0.516-3.703,0-4.664c-0.104,0-0.208,0-0.311,0
		C107.416,123.232,107.227,123.246,107.271,123.457z M26.866,123.585c0.498,1.467-0.55,3.502,0.467,4.406
		c0.8-1.018-0.079-3.436,0.466-4.666c-0.361,0.042-0.597-0.021-0.778-0.129C27.012,123.363,26.822,123.375,26.866,123.585z
		 M87.207,123.457c-5.41,0-11.245-0.338-14.463,0.518c9.643-0.086,19.7,0.174,29.082-0.129
		C98.033,123.215,92.749,123.457,87.207,123.457z M48.638,123.585c-5.479,0-11.889-0.34-15.552,0.518
		c10.322,0.003,19.216,0.01,28.771-0.258C57.902,123.379,53.288,123.585,48.638,123.585z"/>
	<path fill-rule="evenodd" clip-rule="evenodd" fill="#FFFFFF" d="M104.159,34.55c-0.257-0.266-0.257-1.419,0-1.685
		c0.058,1.178,0.142,1.533,0.156,2.722C103.736,36.446,104.311,35.18,104.159,34.55z"/>
	<path fill-rule="evenodd" clip-rule="evenodd" fill="#FFFFFF" d="M72.123,45.307c0.367-0.478-0.215,0.736,0.155,0.259
		c0.367,0.037-0.178,0.347-0.155,0.519c-0.231-0.056,0.062-0.166,0-0.389c-0.321,0.036-0.31,0.346-0.468,0.519
		c0.357,0.066,0.253,0.091,0,0.519c-0.23-0.057,0.061-0.166,0-0.39c-0.306,0.09-0.415,0.346-0.465,0.648
		c0.173,0.269,0.167,0.275-0.157,0.129C71.139,46.302,71.824,45.966,72.123,45.307z"/>
	<path fill-rule="evenodd" clip-rule="evenodd" fill="#FFFFFF" d="M78.965,46.603c0.53-0.243-2.531,2.099-1.865,1.037
		c0.679,0.091,0.69-0.375,1.244-0.388C77.714,47.007,78.535,46.714,78.965,46.603z"/>
	<path fill-rule="evenodd" clip-rule="evenodd" fill="#FFFFFF" d="M64.189,47.38c0.158-0.4,0.257,0.281,0.468,0.259
		c-0.07,0.189-0.138-0.013-0.311,0c1.072,0.767,1.632,2.411,2.643,3.37c-0.378,0.18-0.687-0.806-1.243-0.907
		c0.069-0.189,0.136,0.012,0.309,0c0.024-0.323-0.245-0.402-0.309-0.649c-0.125,0.668-0.197,0.105-0.623-0.258
		c0.068-0.188,0.137,0.012,0.313,0c0.113-0.399-0.428-0.25-0.313-0.648c-0.316,0.333-0.393-0.455-1.089-0.907
		c0.055-0.203,0.273,0.113,0.313-0.13C64.374,47.4,64.287,47.387,64.189,47.38z"/>
	<path fill-rule="evenodd" clip-rule="evenodd" fill="#FFFFFF" d="M70.256,47.899c0.387,0.205-0.78,0.891-0.313,1.166
		c0.289-0.354-0.038,0.394-0.311,0c-0.188,0.476,0.079,0.692-0.466,0.648c0.108,0.398,0.108,0.249,0,0.647
		C68.56,49.655,70.049,48.758,70.256,47.899z"/>
	<path fill-rule="evenodd" clip-rule="evenodd" fill="#FFFFFF" d="M67.301,49.843c0.151,0.003,0.12,0.159,0.155,0.26
		c0.462-0.394-0.149-1.681,0.311-2.074c-0.122,0.963,0.278,3.046-0.311,2.851c0.253,0.346,0.443,0.595,0,0.907
		c0.411,0.039,0.511-0.179,0.467-0.519c0.527,0.276,0.987,0.272,1.401-0.129c0.019,0.416,0.352,0.103,0.932,0
		c-0.103-0.389-0.332,0.123-0.623,0c0.09-0.315,0.588-0.29,0.934-0.39c-0.222,0.377-0.12,0.145,0.311,0.13
		c-0.567,0.235-1.324,1.042-1.866,0.518c0.426,0.562-0.411,0.299-0.311,0.907c-0.79,0.097-0.733-0.511-1.399-0.518
		c0.457-0.562-0.239-0.86,0.312-1.556C67.124,50.69,67.52,50.203,67.301,49.843z"/>
	<path fill-rule="evenodd" clip-rule="evenodd" fill="#FFFFFF" d="M61.702,49.454c-0.366-0.085-0.297-0.402-0.933-0.518
		c-0.48,0.13,0.336,0.214,0.311,0.388c0.378,0.26-0.577-0.184-0.777-0.259C60.601,48.486,61.972,49.213,61.702,49.454z"/>
	<path fill-rule="evenodd" clip-rule="evenodd" fill="#FFFFFF" d="M64.658,50.621c-0.29,0.229,0.038,0.401,0.31,0.519
		c-0.204,0.326-0.509-0.34-0.933-0.26c0.025-0.152,0.283-0.109,0.467-0.13c-0.142-0.225-0.574-0.357-0.623,0
		c-0.452-0.113-0.174-0.194-0.155-0.519c-0.208,0.164-0.305,0.39-0.623,0.129c0.005-0.126,0.191-0.1,0.312-0.129
		c-0.219-0.208-0.536-0.331-0.933-0.389c-0.409-0.431,1.399,0.174,1.399,0.648C64.154,50.25,64.333,50.547,64.658,50.621z"/>
	<path fill-rule="evenodd" clip-rule="evenodd" fill="#FFFFFF" d="M72.278,49.843c0.262-0.149-0.869,0.611-1.4,0.648
		c0.382,0.401,1.709-0.76,1.556-0.388c-0.561,0.244-1.093,0.838-1.867,0.518C71.107,50.336,71.594,50.006,72.278,49.843z"/>
	<path fill-rule="evenodd" clip-rule="evenodd" fill="#FFFFFF" d="M68.701,50.231c0.332,0.162-0.387,0.531-0.311,0.908
		c0.556-0.755,0.685-0.647,0.155,0.129c-0.124-0.069-0.253-0.135-0.465-0.129C68.32,50.864,68.525,50.561,68.701,50.231z"/>
	<path fill-rule="evenodd" clip-rule="evenodd" fill="#FFFFFF" d="M85.964,55.935c-0.057,0.174-1.552,0.257-2.332,0.258
		C84.275,55.995,85.108,55.956,85.964,55.935z"/>
	<path fill-rule="evenodd" clip-rule="evenodd" fill="#FFFFFF" d="M69.944,91.963c-0.523-0.035-0.027,0.521-0.465,0
		c-0.746,0.291-0.471,1.351-0.467,1.943c-0.859-0.837,0.046-3.017,1.71-1.814c-0.237,2.729,0.13,5.203,0.468,7.776
		c-0.477-0.094-0.567,0.132-0.934,0.129c-0.383-2.277-1.173-4.891-0.932-7.258c0.498,0.019,1.189-0.127,1.088,0.389
		C70.511,92.233,70.358,92.388,69.944,91.963z M69.479,93.646c0.213-0.004,0.34,0.063,0.465,0.132
		c0.24-0.197,0.277-0.891-0.311-0.778C69.504,93.15,69.428,93.349,69.479,93.646z"/>
	<path fill-rule="evenodd" clip-rule="evenodd" fill="#FFFFFF" d="M69.633,93c0.588-0.112,0.551,0.581,0.311,0.778
		c-0.125-0.068-0.252-0.136-0.465-0.132C69.428,93.349,69.504,93.15,69.633,93z"/>
</g>
</svg>
