<?xml version="1.0" encoding="utf-8"?>
<!-- Generator: Adobe Illustrator 14.0.0, SVG Export Plug-In . SVG Version: 6.00 Build 43363)  -->
<!DOCTYPE svg PUBLIC "-//W3C//DTD SVG 1.1//EN" "http://www.w3.org/Graphics/SVG/1.1/DTD/svg11.dtd">
<svg version="1.1" id="图层_1" xmlns="http://www.w3.org/2000/svg" xmlns:xlink="http://www.w3.org/1999/xlink" x="0px" y="0px"
	 width="141.73px" height="141.73px" viewBox="0 0 141.73 141.73" enable-background="new 0 0 141.73 141.73" xml:space="preserve">
<g>
	<path fill="#FFFFFF" d="M71.736,18.019c-12.7,5.935-26.04,6.196-35.635,14.478c-6.463,5.575-7.567,14.023-15.594,17.815
		C23.321,31.061,48.505,13.177,71.736,18.019z"/>
	<path fill="#FFFFFF" d="M119.622,71.473c-2.852-28.331-17.772-44.59-43.431-50.112c-0.589-0.896-1.162-1.812-1.113-3.341
		c0.894-0.59,1.807-1.162,3.341-1.113c17.418,3.671,32.5,14.052,40.09,30.067C121.755,53.823,127.397,66.485,119.622,71.473z"/>
	<path fill="#FFFFFF" d="M112.94,79.269c-5.14-0.856-1.609-9.802-2.229-14.479c-3.108-23.536-24.788-38.771-48.998-35.635
		c-4.566,0.592-7.857,4.477-13.36,2.225C79.875,9.466,124.916,43.335,112.94,79.269z"/>
	<path fill="#FFFFFF" d="M47.237,31.382c-7.417,11.667-19.443,19.144-20.045,36.75c-0.366,10.74,6.052,23.098-1.113,33.408
		C20.831,75.383,21.714,38.461,47.237,31.382z"/>
	<path fill="#FFFFFF" d="M79.532,35.838c-3.319,5.522-9.587,1.575-14.478,2.226c-15.346,2.048-28.023,13.985-28.951,31.185
		c-0.711,13.147,7.596,30.686-4.457,40.088c-2.902-5.816,1.644-8.854,2.228-14.479c0.815-7.853-2.285-15.323-2.228-23.385
		C31.826,46.288,52.433,28.325,79.532,35.838z"/>
	<path fill="#FFFFFF" d="M83.985,38.064c0.747,0,1.488,0,2.229,0c18.219,5.81,23.854,36.783,21.157,61.253
		c-0.39,3.514,0.348,9.867-4.457,11.135c-0.511-21.261,2.625-47.873-8.909-61.251C90.491,45.119,84.907,44.409,83.985,38.064z"/>
	<path fill="#FFFFFF" d="M91.782,58.11c-8.624-9.323-20.779-14.554-32.292-10.022c-18.246,7.174-11.944,27.041-14.48,45.657
		c-5.161-1.733-1.796-8.254-2.228-12.25c-1.083-10.077-3.635-19.337,2.228-27.843C55.672,38.191,89.58,38.141,91.782,58.11z"/>
	<path fill="#FFFFFF" d="M83.985,121.586c-1.979-19.532,14.666-73.689-22.271-66.816C93.932,34.774,95.548,100.967,83.985,121.586z"
		/>
	<path fill="#FFFFFF" d="M18.283,52.541c1.798-0.314,1.917,1.053,3.341,1.113c-4.379,10.442-0.463,26.577-1.117,35.638
		C11.943,84.427,13.887,60.516,18.283,52.541z"/>
	<path fill="#FFFFFF" d="M58.373,56.995c-10.187,15.889,3.451,49.98-12.249,61.251c-2.98-7.633,5.168-13.387,5.57-25.611
		c0.43-13.163-6.898-28.798,3.339-35.64C56.146,56.995,57.26,56.995,58.373,56.995z"/>
	<path fill="#FFFFFF" d="M79.532,90.404c-3.631-9.369-1.805-36.916-16.704-24.498c-0.287,17.405,5.219,47.506-10.024,55.679
		c8.021-15.396,7.759-34.453,5.568-55.679C70.902,46.013,89.436,74.657,79.532,90.404z"/>
	<path fill="#FFFFFF" d="M91.782,60.337c0.744,0,1.488,0,2.226,0c7.43,12.415,6.807,47.963-2.226,57.91
		C94.838,99.49,96.44,78.566,91.782,60.337z"/>
	<path fill="#FFFFFF" d="M68.395,67.018c6.642,7.432,7.2,36.36-1.113,42.318C69.102,97.577,68.103,80.394,68.395,67.018z"/>
	<path fill="#FFFFFF" d="M112.94,83.722c1.112,0,2.228,0,3.341,0c-0.483,5.083,1.122,12.262-1.113,15.595
		C109.346,99.565,111.848,86.812,112.94,83.722z"/>
	<path fill="#FFFFFF" d="M78.419,94.858c4.604,7.96-0.081,24.881-6.683,28.954C71.227,115.724,76.793,104.483,78.419,94.858z"/>
	<path fill="#FFFFFF" d="M40.556,100.427c1.484,0,2.97,0,4.454,0c-2.15,5.274-1.272,13.576-8.908,13.36
		C36.316,108.067,40.127,105.939,40.556,100.427z"/>
	<path fill="#FFFFFF" d="M63.942,112.677c1.113,0,2.228,0,3.341,0c-0.005,5.565-0.97,10.166-5.57,11.135
		C58.475,119.76,63.894,116.925,63.942,112.677z"/>
</g>
</svg>
