<?xml version="1.0" encoding="utf-8"?>
<!-- Generator: Adobe Illustrator 14.0.0, SVG Export Plug-In . SVG Version: 6.00 Build 43363)  -->
<!DOCTYPE svg PUBLIC "-//W3C//DTD SVG 1.1//EN" "http://www.w3.org/Graphics/SVG/1.1/DTD/svg11.dtd">
<svg version="1.1" id="图层_1" xmlns="http://www.w3.org/2000/svg" xmlns:xlink="http://www.w3.org/1999/xlink" x="0px" y="0px"
	 width="141.73px" height="141.73px" viewBox="0 0 141.73 141.73" enable-background="new 0 0 141.73 141.73" xml:space="preserve">
<g>
	<path fill="#FFFFFF" d="M82.783,66.924c6.125,0.728,13.342,0.4,21.2,0.4c6.667,0,16.371-1.229,19.601,2
		c3.615,3.616,2.382,10.731-1.601,12.8c-7.993,4.153-29.243-1.474-39.2,0.8c-2.261,11.587,5.521,41.313-6.399,43.2
		c-15.756,2.495-7.603-28.458-9.6-42.8c-12.834-3.376-42.974,6.145-43.2-8c-0.229-14.368,29.58-5.585,43.2-8
		c0-5.745,0-12.518,0-19.6c0-10.341-2.123-22.337,6.4-23.6C89.158,21.757,80.688,52.814,82.783,66.924z"/>
</g>
</svg>
