<?xml version="1.0" encoding="utf-8"?>
<!-- Generator: Adobe Illustrator 14.0.0, SVG Export Plug-In . SVG Version: 6.00 Build 43363)  -->
<!DOCTYPE svg PUBLIC "-//W3C//DTD SVG 1.1//EN" "http://www.w3.org/Graphics/SVG/1.1/DTD/svg11.dtd">
<svg version="1.1" id="图层_1" xmlns="http://www.w3.org/2000/svg" xmlns:xlink="http://www.w3.org/1999/xlink" x="0px" y="0px"
	 width="141.73px" height="141.73px" viewBox="0 0 141.73 141.73" enable-background="new 0 0 141.73 141.73" xml:space="preserve">
<g>
	<path fill-rule="evenodd" clip-rule="evenodd" fill="#FFFFFF" d="M67.948,13.506c0.22-0.047,0.245,0.101,0.259,0.259
		c-0.43,5.129-1.501,11.156,0.519,15.552c0.751,1.635,2.509,2.918,3.369,4.666c3.167,6.432,0.048,14.465-3.888,18.403
		c0.445-5.03,1.35-10.851-0.519-15.033c-1.483-3.32-4.344-5.524-4.666-9.59C62.6,22.421,64.565,17.979,67.948,13.506z"/>
	<path fill-rule="evenodd" clip-rule="evenodd" fill="#FFFFFF" d="M82.463,25.689c0.305,4.797-1.022,10.185,0.519,14.774
		c0.7,2.085,2.856,3.713,3.888,5.961c2.932,6.389-0.108,14.19-3.888,17.885c0.255-4.901,1.283-10.586-0.519-14.774
		c-1.23-2.861-4.188-5.09-4.666-8.554C76.941,34.761,79.327,30.207,82.463,25.689z"/>
	<path fill-rule="evenodd" clip-rule="evenodd" fill="#FFFFFF" d="M56.024,26.726c0.266,5.216-1.248,11.299,0.778,15.811
		c0.731,1.63,2.561,3.023,3.37,4.666c3.265,6.632,0.156,13.688-3.629,18.921c-0.076-4.786,1.289-9.837-0.259-14.515
		c-1.311-3.962-5.177-5.985-5.184-11.923C51.094,34.597,53.347,30.888,56.024,26.726z"/>
	<path fill-rule="evenodd" clip-rule="evenodd" fill="#FFFFFF" d="M137.154,80.121c0,1.123,0,2.246,0,3.37
		c-3.961,0.383-7.187-0.569-9.591,0.518c-3.62,1.639-2.599,7.635-5.443,10.109c-1.036,0-2.073,0-3.11,0
		c-1.042,2.154-1.814,4.578-2.592,6.998c0.115,0.749,1.959-0.23,2.073,0.519c0,1.037,0,2.073,0,3.11c-31.708,0-63.418,0-95.126,0
		c0-0.95,0-1.9,0-2.852c-0.158-1.021,1.423-0.305,2.074-0.518c-0.753-2.53-1.688-4.878-2.592-7.258c-1.124,0-2.247,0-3.37,0
		c-2.215-2.883-2.632-7.563-5.184-10.109c-3.007-0.448-6.297-0.614-9.85-0.518c0-1.124,0-2.247,0-3.37
		c6.502-0.938,11.387-0.496,14.515,2.333c0.897,0.812,1.614,2.707,2.851,2.073c0.018-1.019,0.125-1.948,0.519-2.592
		c0.256-1.639-2.135-0.63-1.296-2.852c32.117-0.862,67.685-0.86,99.533,0c0.958,2.103-1.824,1.484-1.037,2.593
		c0.177,1.033,0.565,1.854,0.519,3.11C123.199,80.608,129.201,78.575,137.154,80.121z M33.474,100.597
		c-1.987-5.024-3.171-11.896-2.851-18.402C26.427,87.317,28.627,97.816,33.474,100.597z"/>
	<path fill-rule="evenodd" clip-rule="evenodd" fill="#FFFFFF" d="M30.623,82.195c-0.32,6.507,0.864,13.378,2.851,18.402
		C28.627,97.816,26.427,87.317,30.623,82.195z"/>
	<path fill-rule="evenodd" clip-rule="evenodd" fill="#FFFFFF" d="M50.322,109.669c2.73,2.973,4.7,6.705,6.999,10.109
		c2.333-3.283,4.579-6.653,6.739-10.109c2.435,2.923,4.478,6.236,6.48,9.591c2.661-2.783,4.424-6.463,6.74-9.591
		c2.419,3.196,4.665,6.566,6.739,10.109c2.696-3.093,4.389-7.189,7.257-10.109c2.177,4.045,5.082,7.36,7.258,11.405
		c-18.489,0-36.979,0-55.469,0C45.241,117.03,48.146,113.714,50.322,109.669z"/>
	<path fill-rule="evenodd" clip-rule="evenodd" fill="#FFFFFF" d="M28.809,123.667c28.167,0,56.332,0,84.499,0
		c0,1.382,0,2.765,0,4.147c-28.339,0-56.678,0-85.018,0c0-1.124,0-2.247,0-3.37C28.279,124,28.483,123.773,28.809,123.667z"/>
</g>
</svg>
