<?xml version="1.0" encoding="utf-8"?>
<!-- Generator: Adobe Illustrator 14.0.0, SVG Export Plug-In . SVG Version: 6.00 Build 43363)  -->
<!DOCTYPE svg PUBLIC "-//W3C//DTD SVG 1.1//EN" "http://www.w3.org/Graphics/SVG/1.1/DTD/svg11.dtd">
<svg version="1.1" id="图层_1" xmlns="http://www.w3.org/2000/svg" xmlns:xlink="http://www.w3.org/1999/xlink" x="0px" y="0px"
	 width="141.73px" height="141.73px" viewBox="0 0 141.73 141.73" enable-background="new 0 0 141.73 141.73" xml:space="preserve">
<g>
	<path fill-rule="evenodd" clip-rule="evenodd" fill="#FFFFFF" d="M93.961,19.659c3.902-0.848,11.834,4.692,14.993,7.208
		c11.772,9.37,21.539,23.543,21.336,44.114c-0.23,23.362-12.851,39.652-28.543,48.149c-3.816,2.066-11.444,5.258-11.534-1.729
		c-0.052-4.101,6.967-6.16,10.669-8.649c11.278-7.584,20.029-20.093,20.182-37.771c0.179-20.315-11.521-34.642-25.948-41.807
		c-2.734-1.357-4.702-2.389-4.902-4.613C89.943,21.547,92.43,19.992,93.961,19.659z"/>
	<path fill-rule="evenodd" clip-rule="evenodd" fill="#FFFFFF" d="M59.94,27.156c6.384-1.477,5.767,5.765,5.767,12.686
		c0,19.271,0,35.945,0,56.224c0,7.281,1.521,17.935-4.037,18.453c-3.358,0.313-6.695-4.102-8.073-5.479
		c-5.138-5.138-8.017-8.306-13.263-13.553c-2.156-2.154-5.011-5.818-6.92-6.342c-4.777-1.311-17.901,2.188-21.624-1.152
		c-2.863-2.57-1.441-10.72-1.441-17.3c0-7.263-0.87-15.225,1.441-17.3c4.02-3.606,14.678,0.451,21.336-1.152
		c2.374-0.572,4.815-3.951,6.92-6.056c4.623-4.622,8.294-8.294,12.687-12.686C54.671,31.559,56.874,27.865,59.94,27.156z"/>
	<path fill-rule="evenodd" clip-rule="evenodd" fill="#FFFFFF" d="M86.465,36.67c4.783-1.177,12.262,5.229,14.993,8.073
		c5.468,5.691,10.653,15.492,10.379,26.814c-0.364,15.077-8.041,24.677-17.587,30.561c-3.337,2.058-11.553,5.368-11.245-2.018
		c0.152-3.63,5.1-4.908,8.362-7.209c14.438-10.175,14.297-34.252,0.289-44.401c-2.297-1.663-8.306-3.034-8.651-6.92
		C82.73,38.474,84.907,37.053,86.465,36.67z"/>
	<path fill-rule="evenodd" clip-rule="evenodd" fill="#FFFFFF" d="M79.257,53.681c1.671-0.39,4.496,0.427,6.056,1.442
		c7.582,4.938,10.912,18.712,3.748,27.392c-2.341,2.835-5.679,5.833-9.227,5.478c-2.472-0.25-4.199-2.384-4.036-4.902
		c0.27-4.185,6.021-5.553,7.207-7.497c1.824-2.982,1.664-6.677,0-9.514c-1.612-2.751-6.758-3.458-7.207-7.496
		C75.464,55.584,77.421,54.11,79.257,53.681z"/>
</g>
</svg>
