<?xml version="1.0" encoding="utf-8"?>
<!-- Generator: Adobe Illustrator 14.0.0, SVG Export Plug-In . SVG Version: 6.00 Build 43363)  -->
<!DOCTYPE svg PUBLIC "-//W3C//DTD SVG 1.1//EN" "http://www.w3.org/Graphics/SVG/1.1/DTD/svg11.dtd">
<svg version="1.1" id="图层_1" xmlns="http://www.w3.org/2000/svg" xmlns:xlink="http://www.w3.org/1999/xlink" x="0px" y="0px"
	 width="141.73px" height="141.73px" viewBox="0 0 141.73 141.73" enable-background="new 0 0 141.73 141.73" xml:space="preserve">
<g>
	<path fill="#FFFFFF" d="M50.81,72.188"/>
	<path fill="#FFFFFF" d="M62.469,92.787c-4.145,0-8.742,0.131-10.34-1.397"/>
</g>
<g>
	<path fill="#FFFFFF" d="M73.992,24.029c4.28-0.75,8.042-1.97,12.409-2.64c0,4.159,0,8.319,0,12.479
		c-4.387-0.172-8.486-0.604-12.672-0.96c-0.615,2.002-0.09,5.039-0.265,7.44c-3.784,0-7.567,0-11.352,0c0-2.48,0-4.96,0-7.44
		c-4.513,0.297-8.8,0.8-13.463,0.96c0-4.16,0-8.32,0-12.479c4.237,0.787,8.36,1.681,12.407,2.64
		C62.932,19.145,72.195,18.835,73.992,24.029z"/>
	<path fill="#FFFFFF" d="M83.233,48.989c-10.12,0-20.241,0-30.36,0c-0.365-0.633,2.02-2.222,3.168-3.12
		c1.441-1.128,3.04-2.214,4.224-3.12c0.065-0.261,0.524-0.163,0.527-0.479c5.206,0.671,9.526-0.928,13.729,0
		C77.745,42.98,81.064,47.683,83.233,48.989z"/>
	<path fill="#FFFFFF" d="M84.817,50.669c0.608,3.607,0.094,8.234,0.263,12.24c23.104,1.476,35.87,12.351,36.432,34.32
		c-6.6,0-13.2,0-19.8,0c-0.298-8.45-6.646-11.399-15.839-11.762c-0.353,2.399-0.267,5.197-0.264,7.921c-12.145,0-24.288,0-36.432,0
		c0-1.841,0-3.681,0-5.521c-6.78-0.558-14.693-0.082-21.911-0.24c0-9.04,0-18.08,0-27.12c6.779-0.557,14.693-0.082,21.911-0.239
		c0.176-3.121-0.352-6.879,0.264-9.601C61.233,50.669,73.024,50.669,84.817,50.669z"/>
	<path fill="#FFFFFF" d="M112.801,98.189c2.699,8.173,12.936,13.352,12.936,25.438c0,5.249-1.744,9.834-5.544,13.2
		c-4.969-0.914-9.827,1.22-14.256,0c-1.658-0.458-3.323-3.146-3.959-4.32c-1.433-2.644-2.112-6.04-2.112-8.88
		C99.865,111.992,110.462,106.462,112.801,98.189z"/>
</g>
</svg>
