<svg width="29" height="29" viewBox="0 0 29 29" xmlns="http://www.w3.org/2000/svg"><g fill="none" fill-rule="evenodd"><rect fill="#8E8E93" width="29" height="29" rx="6"/><path d="M20.87 20.907c-.765-.274-1.863-.37-2.564-.523-.404-.09-.992-.315-1.188-.546-.196-.238-.077-2.43-.077-2.43s.363-.57.56-1.067c.195-.498.41-1.864.41-1.864s.403 0 .545-.706c.155-.772.392-1.093.363-1.67-.03-.533-.31-.563-.34-.563 0 0 .292-.807.334-2.517C18.96 6.995 17.41 5 14.5 5c-2.91 0-4.453 1.99-4.412 4.014.036 1.704.333 2.517.333 2.517-.03 0-.308.03-.337.565-.03.576.213.885.362 1.657.142.706.546.712.546.712s.215 1.372.41 1.87c.197.505.56 1.07.56 1.07s.118 2.19-.078 2.428c-.196.237-.784.457-1.188.546-.707.154-1.8.255-2.565.53C7.362 21.18 5 22.1 5 24h19c0-1.9-2.363-2.82-3.13-3.093z" fill="#FFF"/></g></svg>