<svg width="29" height="29" viewBox="0 0 29 29" xmlns="http://www.w3.org/2000/svg"><g fill="none" fill-rule="evenodd"><rect fill="#8E8E93" width="29" height="29" rx="6"/><g fill="#FFF"><path d="M5 19.614h12.017c.262-.602.86-1.023 1.554-1.023.696 0 1.293.422 1.556 1.024H24v1.363h-3.874c-.263.602-.86 1.023-1.555 1.023-.693 0-1.29-.42-1.553-1.023H5M5 13.818h3.874c.263-.6.86-1.023 1.555-1.023.693 0 1.29.422 1.553 1.023H24v1.364H11.983c-.262.6-.86 1.023-1.554 1.023-.696 0-1.293-.422-1.556-1.023H5M5 8.023h12.017C17.28 7.42 17.877 7 18.57 7c.696 0 1.293.42 1.556 1.023H24v1.363h-3.874c-.263.602-.86 1.023-1.555 1.023-.693 0-1.29-.422-1.553-1.024H5"/></g></g></svg>