<svg xmlns="http://www.w3.org/2000/svg" width="141.73" height="141.73" viewBox="0 0 141.73 141.73"><g fill="#FFF"><path d="M71.736 18.02c-12.7 5.934-26.04 6.195-35.635 14.477-6.462 5.575-7.566 14.023-15.593 17.815 2.814-19.25 27.998-37.135 51.23-32.293zM119.622 71.473c-2.852-28.33-17.772-44.59-43.43-50.112-.59-.895-1.163-1.81-1.114-3.34.894-.59 1.807-1.162 3.34-1.113 17.42 3.67 32.5 14.052 40.09 30.067 3.247 6.85 8.89 19.51 1.114 24.5z"/><path d="M112.94 79.27c-5.14-.857-1.61-9.803-2.23-14.48-3.107-23.536-24.787-38.77-48.997-35.635-4.566.592-7.857 4.477-13.36 2.225 31.522-21.914 76.563 11.955 64.587 47.89zM47.237 31.382C39.82 43.05 27.794 50.526 27.192 68.132c-.366 10.74 6.052 23.098-1.113 33.408-5.25-26.157-4.366-63.08 21.157-70.158z"/><path d="M79.532 35.838c-3.32 5.522-9.587 1.575-14.478 2.226C49.708 40.112 37.03 52.05 36.104 69.25c-.712 13.146 7.595 30.685-4.458 40.087-2.902-5.816 1.644-8.854 2.228-14.48.815-7.852-2.285-15.322-2.228-23.384.18-25.185 20.787-43.148 47.886-35.635zM83.985 38.064h2.23c18.218 5.81 23.853 36.783 21.156 61.253-.39 3.514.35 9.867-4.456 11.135-.51-21.26 2.625-47.873-8.91-61.25-3.513-4.083-9.097-4.793-10.02-11.138z"/><path d="M91.782 58.11c-8.624-9.323-20.78-14.554-32.292-10.022-18.246 7.174-11.944 27.04-14.48 45.657-5.16-1.733-1.796-8.254-2.228-12.25-1.083-10.077-3.635-19.337 2.228-27.843 10.662-15.46 44.57-15.51 46.772 4.458z"/><path d="M83.985 121.586c-1.98-19.532 14.666-73.69-22.27-66.816 32.217-19.996 33.833 46.197 22.27 66.816zM18.283 52.54c1.798-.313 1.917 1.054 3.34 1.114-4.378 10.442-.462 26.577-1.116 35.638-8.564-4.865-6.62-28.776-2.224-36.75zM58.373 56.995c-10.187 15.89 3.45 49.98-12.25 61.25-2.98-7.632 5.17-13.386 5.57-25.61.43-13.163-6.897-28.798 3.34-35.64h3.34z"/><path d="M79.532 90.404c-3.63-9.37-1.805-36.916-16.704-24.498-.287 17.405 5.22 47.506-10.024 55.68 8.02-15.397 7.76-34.454 5.568-55.68 12.53-19.893 31.064 8.75 21.16 24.498zM91.782 60.337h2.226c7.43 12.415 6.807 47.963-2.226 57.91 3.056-18.757 4.658-39.68 0-57.91z"/><path d="M68.395 67.018c6.642 7.432 7.2 36.36-1.113 42.318 1.82-11.76.82-28.942 1.113-42.318zM112.94 83.722h3.34c-.482 5.083 1.123 12.262-1.112 15.595-5.822.248-3.32-12.505-2.228-15.595zM78.42 94.858c4.603 7.96-.082 24.88-6.684 28.954-.51-8.088 5.057-19.33 6.683-28.954zM40.556 100.427h4.454c-2.15 5.274-1.272 13.576-8.908 13.36.214-5.72 4.025-7.848 4.454-13.36zM63.942 112.677h3.34c-.004 5.565-.97 10.166-5.57 11.135-3.237-4.052 2.182-6.887 2.23-11.135z"/></g></svg>