<svg xmlns="http://www.w3.org/2000/svg" width="141.73" height="141.73" viewBox="0 0 141.73 141.73"><path fill="#FFF" d="M33.515 27.848c11.498-1.738 26.4-.45 42.3-.45 23.017 0 42.982-3.706 49.5 11.25 4.012 9.207 1.35 21.026 1.35 33.3 0 21.387 2.71 39.514-11.7 45.45-8.823 3.636-29.958 1.35-42.75 1.35h-22.05c-7.79 0-16.083.923-21.6-1.35-4.542-1.87-9.493-7.88-10.8-11.7-2.45-7.16-.9-24.705-.9-33.75v-17.55c0-4.176-.68-11.09 1.35-15.75 2.42-5.553 8.328-9.746 15.3-10.8zm28.8 25.65c-6.51-4.796-17.753-1.04-16.2 9-13.64 1.995-15.535 18.518-8.1 25.65 6.02 5.772 20.026 4.05 34.65 4.05 10.503 0 20.542.69 26.55 0 16.33-1.88 16.61-27.126 0-30.15 2.338-23.354-31.723-26.186-36.9-8.55zm-40.95 54.9c9.158 9.343 29.317 6.3 50.4 6.3 20.354 0 40.915 2.914 48.148-5.4-2.956 3.266-11.116 1.33-15.75 0 1.15-2.306 2.713-6.58 2.25-9-6.11-.41-17.627-3.15-30.148-4.05-13.393-.96-27.057 4.134-35.102 2.7-.075 1.743-1.558 1.603-3.15 1.35.677 3.374 1.486 6.614 2.7 9.45-6.996 1.555-16.445 2.11-19.348-1.35z"/></svg>