<svg xmlns="http://www.w3.org/2000/svg" width="141.73" height="141.73" viewBox="0 0 141.73 141.73"><g fill="#FFF"><path d="M103.84 19.01c1.726 5.792 3.27 11.572 5.017 18 .437 1.6 1.756 4.466 1.718 5.94-.032 1.316-1.735 3.8-2.505 5.22-2.032 3.75-3.266 6.05-5.28 9.72-.813 1.48-1.748 4.003-2.64 4.86-1.105 1.064-3.082 1.452-4.49 2.16-4.34 2.183-8.847 4.747-13.2 6.84.58 3.502-.46 6.158-1.58 7.92 1.485 5.475 2.98 10.94 4.358 16.56 3.558-.175 5.045 2.477 6.072 5.76 10.203-.186 20.52-.216 30.887-.178.08-1.693-.163-3.826.132-5.223.498-.99 1.684-1.627 2.904-1.08-1.337-5.475 2.967-9.44 4.485-5.04.97 2.804.262 9.105.262 14.4v7.38c0 4.323.457 8.84-2.374 8.82-2.136-.02-2.417-3.105-2.245-6.66-2.613.78-3.617-1.805-3.166-5.762-6.982-.296-15.813-.537-23.627-.537-2.69 0-5.887-.737-7.92 0-1.163.42-1.905 2.392-2.904 2.88-5.665 2.77-9.797-6.455-6.072-12.24-1.54-5.64-3.08-11.28-4.488-17.102-2.558-.347-4.207-1.938-5.146-4.5-4.21 2.063-8.354 4.242-12.804 6.48-1.192.6-3.135 2.16-4.224 2.16-1.18-.002-3.387-1.955-4.62-2.7-4.577-2.767-8.993-5.504-13.465-8.1-.677-3.275-1.708-6.072-2.376-9.36-7.485.17-14.94.382-22.57.36C42.49 50.31 73.45 34.263 103.84 19.01zM40.484 69.77c2.563 1.27 3.454-5.318.395-4.5-1.858.497-1.608 3.902-.395 4.5z"/><path d="M40.878 65.27c3.06-.818 2.17 5.77-.395 4.5-1.213-.598-1.463-4.003.395-4.5zM33.352 67.97c.682 2.973 1.577 5.65 2.244 8.64 5.723 3.354 11.263 6.96 17.028 10.26-6.23 3.504-12.735 6.635-19.14 9.9-.824-2.898-1.602-5.858-2.376-8.82-1.086.138-1.653.984-2.773 1.08-1.282-5.214-2.857-10.025-4.093-15.3.89-.35 1.68-.83 2.506-1.26-.28-1.36-.97-3.11-.92-4.32 2.248-.416 5.06-.062 7.524-.18zM27.412 92.63c-1.504.41-2.55 1.44-4.092 1.802-1.737-7.056-3.78-13.685-5.544-20.7 1.266-.674 2.634-1.21 3.83-1.98 2.128 6.696 3.953 13.805 5.806 20.878z"/></g></svg>