<svg xmlns="http://www.w3.org/2000/svg" width="141.73" height="141.73" viewBox="0 0 141.73 141.73"><g fill="#FFF"><path d="M63.12 25.052c4.79-2.22 6.458.593 14.522 0-3.15 4.38-11.03 2.413-14.52 0zM109.585 25.052c3.197-2.445 9.785 1.51 15.488 0-3.588 4.793-11.162 1.592-15.488 0zM54.41 27.588c1.74 4.98-10.69 4.236-14.52 2.534 2.62-3.752 11.9 1.217 14.52-2.534zM10.85 51.663c-2.084-6.557 2.415-15.396 2.903-22.81 4.174 5.054-2.222 15.908-2.904 22.81zM16.656 31.388c2.356 3.583.902 15.896-3.872 19.008 1.65-5.865 3.583-11.36 3.872-19.008zM123.136 31.388c4.245 2.89 2.383 13.778 5.81 17.74-5.53-2.467-3.125-7.102-5.81-17.74zM132.817 63.068c.59 15.218.1 53.948-1.938 69.697-5.708-3.373-2.533-23.214-1.938-30.414 1.55-18.705.464-.357.97 12.675 3.227-14.363-1.812-39.546 2.905-51.957z"/><path d="M126.04 73.206c1.17 15.215 1.44 37.845 0 58.292-6.09-2.503-2.287-12.68-1.935-19.01.714-12.84 1.16-25.27 1.936-39.282z"/><path d="M121.2 102.35c1.7 2.77.697 27.588-1.935 29.147-1.207-7.344 2.058-19.07 1.936-29.147zM19.56 104.886c1.07 2.625 3.878 19.975 1.937 26.61-1.222-7.182-1.628-15.326-1.936-26.61zM134.753 18.716c-.808 5.99-2.47 28.59.968 36.75-5.008-.81-1.44 2.622-1.935 6.334-1.374-.11-2.74-.21-2.906 1.267-2.68-.544-.05-3.985 1.937-2.534-.602-4.006-4.968-.24-.968-3.8-.122-2.8-4.107-.54-5.81-1.27-4.436-6.584-9.133-21.133-17.424-26.61 4.434 14.467 14.648 21.37 17.424 38.016-9.97-7.8-14.057-29.55-24.2-32.948 8.184 11.67 16.427 23.27 23.232 36.75-10.898-10.233-18.568-24.692-29.04-35.482 3.32-2.42 8.095-2.92 11.618-5.07.042-2.168-.72-3.284-1.938-3.802 3.094.3 13.324 7.162 20.328 2.534 2.185 6.855 1.768 17.114 5.81 21.542-.05-4.19-2.31-16.39-4.842-21.542 2.63-3.314 6.142-5.476 7.745-10.136zm-5.808 30.414c-3.426-3.963-1.563-14.85-5.81-17.74 2.686 10.636.282 15.27 5.81 17.74z"/><path d="M34.08 25.052c5.874 9.668-12.27 33.987-18.392 40.55 4.24-14.305 10.896-25.445 18.392-35.483C26.06 25.944 23.282 48 18.594 46.592c.488 2.76-2.303 5.394-2.906 10.137-1.123-1.064-2.593-1.67-4.838-1.267.12 3.505 1.848 4.35-.97 2.534-.354 2.156.756 2.392 1.938 2.534.163 5.01-1.49-.406-2.906 2.535 4.128 12.76.924 35.118 1.938 51.957 2.356-1.872-.186-26.513 1.936-16.472 2.393 8.27-.603 23.6 1.936 31.68 1.306-16.534-1.28-39.596 0-53.223.686-7.288 1.513 11.39 1.936 19.006.592 10.65 2.543 24.558 1.938 35.484-3.328-.555-5.427.5-7.744 1.267C9.874 113.616 8.582 78.906 8.914 58c.667-3.408-2-2.45-2.904-3.804.107-3.24 1.774-4.433 2.904-6.334-2.496-6.028.67-19.465-1.936-25.346 1.51-3.12 4.808 6.13 10.648 7.604 5.984 1.514 12.957-.172 16.454-5.068zm-20.327 3.802c-.487 7.412-4.986 16.252-2.904 22.81.68-6.903 7.077-17.757 2.903-22.81zm-.968 21.542c4.774-3.113 6.227-15.425 3.872-19.008-.29 7.648-2.222 13.143-3.872 19.008z"/><path d="M43.76 32.656C36.2 48.1 25.488 59.423 15.69 71.938c4.89-11.766 16.063-26.28 24.2-38.012-.43-1.13-.848-2.267-1.936-2.537.88-3.068 2.857 2.87 5.81 1.266zM84.418 23.785c1.1.24.534 1.27 0 1.267-1.825 4.303 4.137 7.63 8.712 7.6-.027 1.232-1.186.986-1.937 1.27 6.132 11.826 21.04 23.14 29.037 36.75-17.56-3.83-34.002-18.394-43.56-36.75 8.31 4.334 18.925 16.614 27.104 25.345-5.124-8.505-15.604-20.965-23.232-30.413.096-3.256 3.782-1.81 3.876-5.07zm29.04 41.818c-3.48.95-6.903-9.503-7.745-3.804 3.274-.412 5.086 7.607 7.744 3.803zM35.05 59.268c8.818-8.235 17.362-15.237 26.136-25.343-4.913 14.366-19.74 33.158-35.818 32.947 4.21 2.773-2.14 4-5.806 3.8 9.914-11.52 18.994-24.13 30.006-34.213-.025-1.233-1.183-.987-1.936-1.268 3.732-3.568 10.804-2.755 12.584-8.87 1.843.543 2.432 2.73 4.838 2.533C52.05 30.33 46.124 51.132 35.05 59.268z"/><path d="M87.32 28.854c2.54-1.165 10.982.794 16.457 0-3.622 4.65-12.357 2.17-16.456 0zM105.713 61.8c.842-5.7 4.266 4.756 7.744 3.805-2.658 3.802-4.47-4.217-7.744-3.804z"/></g></svg>