<svg xmlns="http://www.w3.org/2000/svg" width="141.73" height="141.73" viewBox="0 0 141.73 141.73"><g fill-rule="evenodd" clip-rule="evenodd" fill="#FFF"><path d="M67.948 13.506c.22-.047.245.1.26.26-.43 5.128-1.502 11.155.518 15.55.75 1.636 2.51 2.92 3.37 4.667 3.166 6.432.047 14.465-3.89 18.403.446-5.03 1.35-10.85-.518-15.033-1.483-3.32-4.344-5.524-4.666-9.59-.422-5.342 1.543-9.784 4.926-14.257zM82.463 25.69c.305 4.796-1.022 10.184.52 14.773.7 2.085 2.855 3.713 3.887 5.96 2.932 6.39-.108 14.19-3.888 17.886.255-4.902 1.283-10.587-.52-14.775-1.23-2.86-4.187-5.09-4.665-8.554-.856-6.22 1.53-10.773 4.666-15.29zM56.024 26.726c.266 5.216-1.248 11.3.778 15.81.73 1.63 2.56 3.024 3.37 4.667 3.265 6.632.156 13.688-3.63 18.92-.075-4.785 1.29-9.836-.258-14.514-1.31-3.963-5.177-5.986-5.184-11.924-.006-5.09 2.247-8.798 4.924-12.96zM137.154 80.12v3.37c-3.96.384-7.187-.568-9.59.52-3.62 1.638-2.6 7.634-5.444 10.108h-3.11c-1.042 2.154-1.814 4.578-2.592 6.998.115.75 1.96-.23 2.073.52v3.11H23.366v-2.853c-.158-1.02 1.423-.305 2.074-.518-.754-2.53-1.69-4.878-2.593-7.258h-3.37c-2.215-2.883-2.632-7.563-5.184-10.11-3.007-.447-6.297-.613-9.85-.517v-3.37c6.502-.938 11.387-.496 14.515 2.333.897.812 1.614 2.707 2.85 2.073.02-1.02.126-1.948.52-2.592.256-1.64-2.135-.63-1.296-2.852 32.117-.862 67.685-.86 99.533 0 .958 2.103-1.824 1.484-1.037 2.593.177 1.033.565 1.854.52 3.11 3.15-4.177 9.153-6.21 17.106-4.664zm-103.68 20.477c-1.987-5.024-3.17-11.896-2.85-18.402-4.197 5.122-1.997 15.62 2.85 18.402z"/><path d="M30.623 82.195c-.32 6.507.864 13.378 2.85 18.402-4.846-2.78-7.046-13.28-2.85-18.402zM50.322 109.67c2.73 2.972 4.7 6.704 7 10.108a205.13 205.13 0 0 0 6.738-10.11c2.435 2.924 4.478 6.237 6.48 9.592 2.66-2.783 4.424-6.463 6.74-9.59a102.69 102.69 0 0 1 6.74 10.108c2.695-3.093 4.388-7.19 7.256-10.11 2.177 4.046 5.082 7.36 7.258 11.406h-55.47c2.177-4.044 5.082-7.36 7.258-11.405zM28.81 123.667h84.498v4.147H28.29v-3.37c-.01-.444.193-.67.52-.777z"/></g></svg>