<svg xmlns="http://www.w3.org/2000/svg" width="141.73" height="141.73" viewBox="0 0 141.73 141.73"><g fill="#FFF"><path d="M85.877 7.906h.494V8.4c4.683 2.294 1.368 15.692-2.474 15.346-4.76-.43-1.117-14.152 1.98-15.84zM58.65 25.726c-6.59 1.364-6.626-7.813-7.92-13.365 5.698-4.11 8.65 7.93 7.92 13.366zM119.537 24.737c-.63 6.96-6.498 8.68-10.89 11.88-6.962-2.215 7.802-16.91 10.89-11.88zM34.89 28.697c2.772 4.16 7.37 6.49 8.416 12.375a12.03 12.03 0 0 1-1.98 1.98c-3.31-.996-16.492-13.24-6.435-14.355z"/><path d="M82.412 96.51c-2.375-4.96 3.174-6.36 5.445-7.92 7.512-5.145 14.656-14.898 13.363-28.214-1.268-13.057-11.23-25.388-26.234-25.738-17.527-.413-30.347 12.07-29.7 30.192.683 19.177 15.008 25.347 29.7 30.69 3.54 1.288 18.172 4.146 18.314 8.415.186 5.545-8.043 4.314-13.365 5.443 4.963 1.973 13.574.72 13.86 5.94.302 5.528-9.345 5.454-16.335 5.938 5.44 2.488 16.063.205 16.336 6.436.21 4.824-8.367 6.79-14.355 5.94-1.425-1.948-.61-3.71.495-5.444-8.248-2.408-28.17 1.336-28.71-5.94-.566-7.66 16.405-5.09 23.267-6.93-5.907-2.702-24.223-.103-23.267-7.425.863-6.61 18.52-2.514 26.235-4.455-18.308-7.71-35.59-14.36-37.62-36.135-3.097-33.25 36.683-50.646 57.42-28.71 10.577 11.188 12.73 34.525 1.98 48.017-4.02 5.046-10.498 10.292-16.828 9.9z"/><path d="M87.363 53.942c2.652 5.51-5.27 10.69-11.387 11.384-6.898.783-17.88-3.18-16.335-9.9 5.66-1.652 9.522 4.43 16.336 3.466 4.93-.697 6.328-5.907 11.387-4.95z"/></g></svg>