<svg xmlns="http://www.w3.org/2000/svg" width="141.73" height="141.73" viewBox="0 0 141.73 141.73"><g fill="#FFF"><path d="M119.825 95.145c-.21 1.29-.95 2.04-1.17 3.31-5.14-1.74-9.83-3.91-14.58-6.03.2-1.29.94-2.04 1.17-3.31 5.06 1.8 9.77 3.96 14.58 6.03zM109.125 112.255c-.72 1.02-1.8 1.7-2.52 2.72-2.33-2.04-5.52-5.52-8.36-8.36-.69-.69-2.69-2.01-2.72-2.72-.06-1.23 2.09-1.65 2.33-2.72 3.87 3.58 7.4 7.5 11.27 11.08zM93.185 57.435c4.51 4.88 8.37 12.39 7.78 22.16-.52 8.5-4.27 15.16-9.33 19.83-5.05 4.66-11.43 8.34-20.61 8.36-16.78.03-30.13-12.93-30.13-30.13 0-12.2 5.89-18.96 13.22-24.89.65-6.22-2.27-16.01 4.08-16.52v-12.05c0-3.73-.97-10.53 1.75-11.28 2.92-.8 8.5 0 11.86 0 4 0 7.85-.4 11.08.58 1.71 6.07.34 15.22.78 22.55 1.49 1.04 3.16 1.06 3.89 2.53 1.91 3.9-.93 9.77.38 14 .44 1.4 4.18 3.7 5.25 4.86zm4.28 21.97c.57-9.24-3.36-16.24-7.97-20.81-.97-.96-4.64-2.87-5.05-4.08-.63-1.84 0-4.89 0-7.19 0-2.56.16-4.93-.2-7.19-8.3-.46-17.43-.07-26.05-.2-.23.1-.44.21-.58.39v14.39c-7.34 4.88-13.27 12.06-13.22 23.32.07 14.94 12.02 26.36 27.02 26.25 14.37-.11 25.21-11.38 26.05-24.88zM86.385 109.725c2.46 4.34 3.94 9.66 6.22 14.19-.88.81-2.14 1.24-3.5 1.56-2.1-4.64-3.79-9.7-6.03-14.19.78-.84 2.1-1.14 3.31-1.56zM72.775 113.035v15.74h-3.69v-15.74h3.69zM54.305 109.725c1.46.1 2.23.88 3.5 1.17-1.69 5.17-4.04 9.7-5.83 14.77-1.19-.43-2.2-1.04-3.5-1.36 1.79-5.02 4.03-9.58 5.83-14.58zM42.835 101.175c1.18.57 1.87 1.63 2.72 2.52-3.32 4.07-7.4 7.38-10.88 11.28-1.02-.73-1.7-1.8-2.72-2.53 3.6-3.78 7.34-7.43 10.88-11.27zM35.455 89.115c.86.82 1.22 2.15 1.55 3.5-4.87 1.81-9.38 3.97-14.19 5.83-.92-.75-1.3-2.06-1.56-3.5 4.93-1.74 9.39-3.95 14.2-5.83z"/></g></svg>