<svg xmlns="http://www.w3.org/2000/svg" width="141.73" height="141.73" viewBox="0 0 141.73 141.73"><g fill-rule="evenodd" clip-rule="evenodd" fill="#FFF"><path d="M127.32 36.817c1.994 15.355 1.054 38.73.512 55.296-1.34 2.496-4.488 2.384-7.68 2.21.12 4.598.197 9.134-1.536 11.06-3.478 1.175-9.835 1.175-13.313 0-1.733-1.926-1.655-6.462-1.536-11.06H38.743c-1.125 3.05.143 9.546-2.048 11.06-3.478 1.175-9.834 1.175-13.312 0-1.733-1.926-1.656-6.462-1.536-11.06-3.19.174-6.34.286-7.68-2.21-.542-16.565-1.482-39.94.512-55.296 35.173-2.455 77.467-2.455 112.64 0zM87.384 65.57c.237 14.59 8.312 23.145 16.896 22.856 21.267-.718 20.398-50.677-2.56-46.45-8.86 1.633-14.57 9.276-14.336 23.594zM22.872 48.613c-.847 9.01-3.965 33.915 3.072 33.915s3.92-24.906 3.072-33.915c-2.107-1.627-4.037-1.627-6.144 0zm16.384 0c-.847 9.01-3.964 33.915 3.072 33.915 7.037 0 3.92-24.906 3.072-33.915-2.107-1.627-4.037-1.627-6.144 0z"/><path d="M102.23 55.25c5.807-1.81 8.484 2.748 8.705 8.847.498 13.703-14.335 15.39-14.335.736 0-5.616 1.665-8.348 5.63-9.584z"/></g></svg>