<svg xmlns="http://www.w3.org/2000/svg" width="141.73" height="141.73" viewBox="0 0 141.73 141.73"><path fill="#FFF" d="M134.76 1.744c1.04 2.537-.166 4.948 1.15 9.215 1.045 6.42-8.126 2.624-9.216 6.912.004 33.794-1.95 65.63-1.152 100.225-35.178 7.83-71.58 14.437-107.136 21.888-.368-37.935.97-81.434-1.152-114.05-4.55-1.206-8.332-3.187-11.52-5.76C7.137 15 5.4 15.172 6.886 8.656c39.58 2.88 88.817-1.86 127.874-6.91zM21.863 40.912v92.16c34.47-5.467 66.744-13.127 100.225-19.582V31.696C88.1 34.19 55.01 37.58 21.863 40.912z"/></svg>