<svg xmlns="http://www.w3.org/2000/svg" width="141.73" height="141.73" viewBox="0 0 141.73 141.73"><g fill="#FFF"><path d="M52.634 12.04c6.183 9.982 9.927 22.402 16.498 31.995 3.14-.758 4.59-4.61 6-7C79.84 29.05 84.33 20.28 89.628 12.54c.724-2.305-.645-4.94 2-6 5.433-.082 3.34 5.978 0 6.5-6.132 10.533-12.156 21.172-18.5 31.495 1.94 1.562 3.41 3.59 4 6.5 13.683 2.134 38.01-4.867 41.995 5 2.1 5.19.5 18.59.5 26.996 0 14.46 3.16 31.82-6.5 33.997-12.005 2.703-27.283-2.424-38.994.5-.4 5.233 8.827.84 11.5 3 .956 1.32.52 4.59 0 5.998-10.563.824-23.183 1.635-32.996-.5.163-1.836-.427-4.426.5-5.498 2.445-1.723 9.386 1.053 11-1.5-1.005-3.68-6.177-2-8.5-2-11.288 0-34.237 3.07-36.496-6-1.92-7.71 0-18.527 0-27.996 0-10.643-2.353-27.734 4.5-30.995 9.877-4.702 25.895 1.428 37.495-1 1.39-2.276 2.154-5.178 4.5-6.5-5.713-12.286-10.604-25.392-18-35.995 1.9-3.638 7.174-1.045 5 3.5zM80.13 58.532c-6.43-.723-11.117-2.808-16.497-1-7.857 2.64-22.264.1-35.995 1-.028.305-.075.592-.5.5v50.493c12.106.723 21.857-1.004 30.495 0 3.24.377 5.75 2.258 8.5 2.5 8.065.713 11.014-2.062 15.497-2.5 9.958-.976 18.302.71 29.996 0-.33-16.834.663-34.99-.5-50.993-12-.738-21.937 1.02-30.996 0z"/><path d="M92.796 70.7c.696 1.5.58 3.478-2 3-.695-1.5-.578-3.48 2-3zM40.136 73.77h25.496v7.5h-8c-1.164 6.168-.167 14.497-.5 21.498h-8.498V81.27h-8.498v-7.5z"/><path d="M69.246 73.77h9c1.074 6.092 2.822 11.51 4.498 17 1.756-5.41 3.313-11.022 4.5-17h9.498c-3.056 9.61-6.182 19.148-8.998 28.998h-10c-3.013-9.485-6.106-18.89-8.498-28.997z"/></g></svg>