<svg xmlns="http://www.w3.org/2000/svg" width="141.73" height="141.73" viewBox="0 0 141.73 141.73"><g fill-rule="evenodd" clip-rule="evenodd" fill="#FFF"><path d="M93.96 19.66c3.903-.85 11.835 4.69 14.994 7.207 11.772 9.37 21.54 23.543 21.336 44.114-.23 23.363-12.85 39.653-28.543 48.15-3.816 2.066-11.444 5.258-11.534-1.73-.052-4.1 6.967-6.16 10.67-8.648 11.277-7.584 20.028-20.093 20.18-37.77.18-20.316-11.52-34.643-25.947-41.808-2.734-1.357-4.702-2.39-4.902-4.613-.27-3.013 2.216-4.568 3.747-4.9zM59.94 27.156c6.384-1.477 5.767 5.765 5.767 12.686v56.224c0 7.28 1.52 17.935-4.037 18.453-3.358.312-6.695-4.103-8.073-5.48-5.138-5.138-8.017-8.306-13.263-13.553-2.156-2.154-5.01-5.818-6.92-6.342-4.777-1.31-17.9 2.188-21.624-1.152-2.863-2.57-1.44-10.72-1.44-17.3 0-7.263-.87-15.225 1.44-17.3 4.02-3.606 14.678.45 21.336-1.152 2.374-.57 4.815-3.95 6.92-6.055L52.733 33.5c1.938-1.94 4.14-5.635 7.207-6.344z"/><path d="M86.465 36.67c4.783-1.177 12.262 5.23 14.993 8.073 5.468 5.69 10.653 15.492 10.38 26.814-.365 15.077-8.042 24.677-17.588 30.56-3.337 2.06-11.553 5.37-11.245-2.017.152-3.63 5.1-4.908 8.362-7.21 14.438-10.174 14.297-34.25.29-44.4-2.298-1.663-8.307-3.034-8.652-6.92-.275-3.096 1.902-4.517 3.46-4.9z"/><path d="M79.257 53.68c1.67-.39 4.496.428 6.056 1.443 7.582 4.938 10.912 18.712 3.748 27.392-2.34 2.835-5.678 5.833-9.226 5.478-2.472-.25-4.2-2.384-4.036-4.902.27-4.184 6.02-5.552 7.207-7.496 1.824-2.982 1.664-6.677 0-9.514-1.612-2.75-6.758-3.458-7.207-7.496-.334-3 1.623-4.474 3.46-4.903z"/></g></svg>