<svg xmlns="http://www.w3.org/2000/svg" width="141.73" height="141.73" viewBox="0 0 141.73 141.73"><path fill="#FFF" d="M62.47 92.787c-4.146 0-8.743.13-10.34-1.397"/><g fill="#FFF"><path d="M73.992 24.03c4.28-.75 8.042-1.97 12.41-2.64v12.478c-4.388-.172-8.487-.604-12.673-.96-.616 2.002-.09 5.04-.266 7.44H62.112v-7.44c-4.513.297-8.8.8-13.463.96v-12.48c4.236.788 8.36 1.682 12.406 2.64 1.876-4.883 11.14-5.193 12.936 0zM83.233 48.99h-30.36c-.365-.634 2.02-2.223 3.168-3.12 1.442-1.13 3.04-2.215 4.225-3.12.065-.262.524-.164.527-.48 5.206.67 9.526-.928 13.73 0 3.223.71 6.542 5.413 8.71 6.72zM84.817 50.67c.608 3.606.094 8.233.263 12.24 23.104 1.475 35.87 12.35 36.432 34.32h-19.8c-.298-8.45-6.646-11.4-15.84-11.763-.352 2.4-.266 5.197-.263 7.92H49.176v-5.52c-6.78-.558-14.693-.082-21.91-.24v-27.12c6.778-.557 14.692-.082 21.91-.24.176-3.12-.352-6.878.264-9.6 11.793.002 23.584.002 35.377.002zM112.8 98.19c2.7 8.172 12.937 13.35 12.937 25.437 0 5.25-1.744 9.834-5.544 13.2-4.97-.914-9.827 1.22-14.256 0-1.658-.458-3.323-3.146-3.96-4.32-1.432-2.644-2.11-6.04-2.11-8.88-.002-11.635 10.595-17.165 12.934-25.438z"/></g></svg>