<svg xmlns="http://www.w3.org/2000/svg" width="141.73" height="141.73" viewBox="0 0 141.73 141.73"><g fill-rule="evenodd" clip-rule="evenodd" fill="#FFF"><path d="M57.193 12.907c.275-.346.112.76.155 1.036-.276.347-.114-.76-.155-1.036zM78.032 12.907c.298-.283.098.947.155 1.295-.297.282-.096-.947-.155-1.295zM84.407 14.98c.325-.133.082 1.31.156 1.814-.322.135-.08-1.31-.156-1.814zM45.84 17.054c.313-.21.086 1.13.155 1.556-.313.21-.088-1.13-.155-1.556zM41.795 18.87c.33-.056.076 1.488.156 2.072-.33.055-.074-1.49-.155-2.073zM91.873 19.257c.7.23.832 1.6.31 2.074-.563-.307-.212-1.376-.31-2.073zM94.983 20.683c.313-.21.088 1.13.155 1.556-.312.207-.086-1.133-.155-1.557zM97.315 22.498c.337.346.275 1.953.157 2.592-.378 2.022-.03-1.88-.157-2.592zM100.894 26.385c.312-.21.088 1.13.155 1.556-.314.21-.09-1.13-.156-1.555zM32.62 29.496c.324-.134.08 1.31.156 1.814-.324.134-.08-1.31-.156-1.814zM30.442 31.57c.6.787.292 4.966 0 1.943-.05-.534.036-1.055 0-1.944zM105.248 44.01c.436 1.9.013 5.58.156 8.425-.283.372-.15-1.045-.156-1.685-.013-1.975.008-4.75 0-6.74zM29.666 46.992c.352.615.06 2.887.155 4.148-.352-.616-.058-2.89-.154-4.148zM33.864 56.064c1.09-.302 2.85-.045 4.2-.13h29.392c-10.886.303-22.446.043-33.592.13zM67.613 56.064c.573-.3 1.812-.045 2.644-.13h8.397c-3.37.3-7.413.043-11.04.13zM79.12 56.064c.968-.242 2.91-.18 3.89 0-.848.14-2.58-.096-3.89 0zM94.207 56.193c.316-.298 1.29-.047 1.865-.13-.317.298-1.29.048-1.865.13zM26.866 56.193h.933c-.104 1.513.206 3.37-.157 4.666h-.466c-.637-1.248 0-3.005-.31-4.667zM107.27 56.193h.778c.17 1.423.103 3.272 0 4.666h-.467c-.716-1.045-.11-3.192-.31-4.667zM98.25 57.878c.214-.295 1.082-.05 1.555-.13-.216.296-1.082.048-1.555.13zM106.803 58.007c.29-.314.105.855.156 1.168-.29.313-.106-.855-.157-1.168zM101.826 60.21c.363 9.03.053 18.62.154 27.866-.513-4.746-.377-9.437-.31-13.608.08-4.914-.467-9.47.156-14.257zM62.325 60.86c.36 10.378.053 22.6.155 33.693-.36-10.378-.055-22.598-.155-33.694zM27.954 60.86c.39 14.475.156 26.744.155 40.952.047.56-.024 2.98-.156 1.425V60.86zM33.086 60.99c.355 3.468.057 8.77.156 12.96-.356-3.472-.057-8.775-.156-12.96zM106.803 60.86c.764 13.58-.03 24.452.156 38.75v1.295c-.355-.138-.06-.813-.157-1.165v-2.592-5.185V60.86zM72.59 61.507c.237.368.324.938.154 1.296.208.39.16.99.154 1.555-.246.394-.36-2.028-.31-2.85zM72.744 66.562c.353.615.06 2.887.154 4.147-.35-.615-.058-2.89-.154-4.148zM33.086 74.725c.347.276.064 2.19.156 3.112-.346-.276-.064-2.19-.156-3.112zM33.086 78.224c.313-.208.088 1.133.156 1.557-.313.21-.088-1.13-.156-1.556zM101.826 88.205c.152.004.122.16.154.26v2.98c-.36-.693-.05-1.942-.154-2.852-.186-.17-.06-.204 0-.388zM65.747 92.87c-.278-.2-.104-.777-.468-.906-.478.092-.3.092-.777 0-.367.17-.3.698-.467 1.036.092.152.51-.518 1.244-.26.303 2.024-1.082 4.767-1.4 7.13-.58-.013-.442-.148-.93 0 .27-2.764 1.225-4.86.93-7.777.595-.642 2.243-.474 1.867.778zm-1.245.776c.45.162.71.068.776-.387-.315-.228-.304.096-.62-.132-.05.176-.222.248-.156.518z"/><path d="M64.658 93.128c.316.228.305-.096.62.13-.066.456-.327.55-.775.388-.067-.27.105-.342.155-.518zM101.826 94.038c.288-.316.104.854.154 1.165-.285.314-.102-.854-.154-1.165zM106.803 101.294c.314-.21.088 1.132.156 1.554-.314.21-.09-1.13-.157-1.554zM107.426 123.068h.31c.517.96.517 3.703 0 4.664-.834-.148-.46-1.193-.465-1.943-.005-.784.004-1.69 0-2.333-.043-.21.146-.225.156-.39zM27.02 123.197c.182.107.418.17.78.13-.546 1.23.332 3.647-.467 4.665-1.017-.904.03-2.94-.467-4.406-.044-.21.146-.223.155-.39zM101.826 123.845c-9.382.303-19.44.043-29.082.13 3.218-.856 9.053-.52 14.463-.52 5.542.002 10.826-.24 14.62.39zM61.858 123.845c-9.555.268-18.45.26-28.77.258 3.662-.857 10.07-.518 15.55-.518 4.65 0 9.264-.206 13.22.26z"/><path d="M67.923 12.13c.27-.21.337-.584.312-1.037.705.01.932.268 1.708 0 .133.322.204.693.156 1.165.348-.056.062-.638.155-.907.296-.28.1.95.156 1.297.444-.278-.185-1.45.467-1.554.4.086.54-.025.466.647.21-.04.128-.325.157-.52.472.003 1.246.42 1.556.13.36.564.052 1.683.154 2.462.444-.537-.126-1.92.31-2.462.54.458.23 1.624.312 2.462.38-.592-.027-1.84.313-2.462.617.48.18 1.838.312 2.722.657-.343.12-2.132.31-2.462.83-.173.334.76.467 1.167.54-.027.285-.714.466-1.037.463.436-.15 1.767.313 2.202.108-.293.198-1.386.156-2.202.662.44.145 1.864.31 2.722.36-.607.054-1.77.154-2.592.583.12.203 1.04.313 1.555.354-.265.054-1.077.154-1.555.665.44.148 1.864.312 2.722.445-.58-.13-2.008.31-2.592.295.702.646-.217.78.518.182-.02.13-.236.153-.39 1 .292.51 1.822.622 2.852.444-.536-.126-1.92.31-2.462 1.25-.046.637 1.46.78 2.333.36-.434.055-1.423.155-2.072.188.146.28.37.778.258.112.826-.056 1.518 0 2.593.24-.708.29-1.573.31-2.464 1.25-.047.635 1.458.778 2.333.36-.48.053-1.51.155-2.204.318.124.615.266.933.39v2.332c.356-.222.06-.99.157-1.425.25-.037.267.123.466.13.05-.432-.766-.142-.467-.78.832.17.95.1 1.71.39v1.556c.414-.217-.086-1.195.31-1.426.596.63.068-.23 1.09.39.136.708.136.715 0 1.424.337-.238.33-.764.312-1.296 1.555.952 3.05 1.614 5.13 2.593v.777c.212-.04.13-.324.156-.52.628.344 1.166.76 1.712 1.168-.257 1.08-.124 2.488-.155 3.758.457-.958.04-2.652.313-3.63.49.77-.088 3.512.312 4.278.69-.806.126-2.66.31-3.888 1.067.417.04 3.44.623 4.666.35-.895.2-2.468.31-3.888 1.374.583.15 3.333.778 4.536.016-1.202.242-2.633 0-3.888 1.08.896 2.99 1.77 3.576 3.758-.184-.02-.13-.236-.155-.388-.296 1.094-.093 3.028-.156 4.666.29-.838.673-1.6.62-2.722-.346.055-.063.638-.153.907-.274-.085.013-2.558.154-2.722-.027.11.063.122.156.13.025-.62.285.21.312.39.683-.212.665 1.474 1.4 1.166.423.897.782 1.85 1.71 2.33-.044.683.164.77 0 1.297.506-.19-.114-.71.466-.647.604 1.31 1.356 2.103 1.712 3.37 1.294 1.714 2.97 6.882 3.266 10.497.33 4.018-.243 8.514 0 12.96.464 8.526-.067 17.356 0 25.66.13 16.04-.15 32.815.154 48.34-27.925.19-55.985.263-84.136.26v-65.06c0-7.34-.434-14.585 0-21.64.348-5.635 2.454-9.94 4.822-14.128.4-.012.222-.605.623-.26-.57-.28.667-.977.156-.778.575-1.02 2.29-2.808 2.49-3.11 1.108-1.09 2.243-2.317 3.42-3.5.265-.046.293.102.31.26.257-.208-.068-.484.313-.777.17.032.105.258.312.26.71-1.693 2.27-1.63 3.576-3.11.266-.05.294.1.312.258.164-.943 1.492-.917 1.866-1.685.446.018-.133.89.312.907.252-1.495.825-1.06 1.4-1.685.342.016.065.55.154.777.348-.056.063-.638.156-.907 1.37-.465 3.05-1.545 4.665-1.944.592-.104.197.613.31.907.26-.43.064-1.243.624-1.425.443.018.283.54.31.908.347-.057.063-.64.155-.908.582.173 1.02-.535 1.71-.39-.123.49.08 1.488 0 2.334.447-.578-.13-2.008.312-2.59.78.542-.108 1.728.31 2.46.34-.887.08-2.03.313-2.72.522-.134.24.402.31.647.243-.343.28-.856.623-.778.636-.04.083.27.156.518.39.055.216-1.013.466-.647.507-.03.22.794.31 1.425.358-.307.056-1.163.156-1.685.59.374.198 1.563.31 2.333.418-.695-.19-2.334.624-2.462.563.09.214.944.31 1.425.457-.183-.144-1.245.312-1.426.042-.48 1.37.275 1.244-.39.548.278.223 1.284.31 1.945.543-.37-.324-1.914.467-2.075-.436.5.353-.1.622.26v2.073c.45-.853-.134-1.703.31-2.333.005-.005.656.498.468-.13.36.522.055 1.598.155 2.334.445-.633-.165-2.205.466-2.334.357.222.06.99.157 1.426.346-.614.215-.14.467.258.446-.78-.333-1.136.155-1.814.275.242.394-.105.932 0v2.333c.353-.14.06-.815.155-1.167.215-.413.155.458.156.647.623-.216.178-1.32.313-1.943.783.08-.07 1.525.465 1.814.257-.36-.257-1.477.312-1.813.358.39.055 1.336.155 1.943.835.09.6-.71.623-1.295-.495.063.262 1.168-.465 1.037v-1.556c1.13-.48 1.64.024 2.33-.13.33.343.203.585.148 1.033zm-10.575 1.813c-.043-.276.12-1.382-.155-1.036.04.277-.12 1.383.155 1.036zm20.84.26c-.058-.35.143-1.578-.155-1.295.058.347-.143 1.576.155 1.295zm6.375 2.59c-.074-.502.17-1.947-.156-1.813.075.504-.166 1.95.156 1.814zM66.835 52.436c11.027.284 25.47.056 37.48.13.164-6.143.038-12.043-1.866-16.46-.233-.36-.638.225-.78-.13.344.056.858-.387.468-.518-1.122-2.732-3.112-5.517-5.287-7.906-2.084-2.286-4.663-4.18-6.998-6.09-.77-.63-.763-.416-1.556-.778-.356-.163-.616-.48-.933-.648-5.303-2.81-12.032-4.59-19.907-5.055-4.537.342-8.688.948-12.44 2.073-3.416 1.023-6.18 2.363-9.332 3.76-.69.96-1.86 1.497-2.8 2.202-8.736 6.55-13.293 15.17-12.287 29.42 11.717-.092 24.12.526 35.77-.13.19-.624-1.5-.713-1.555-1.556.48.25 1.7.566 1.556.906-.356-.023-1.216-.898-.932-.26.842.115 1.162.776 1.4 1.04zM45.995 18.61c-.068-.426.158-1.766-.155-1.557.067.426-.158 1.766.155 1.556zm-4.043 2.332c-.08-.584.174-2.128-.156-2.073.08.583-.175 2.127.156 2.072zm50.232.39c.52-.474.39-1.845-.31-2.075.097.697-.254 1.766.31 2.074zm2.955.906c-.068-.425.157-1.765-.156-1.556.068.425-.158 1.765.155 1.556zm2.333 2.85c.118-.638.18-2.245-.157-2.59.126.71-.222 4.614.157 2.59zm3.576 2.852c-.068-.425.155-1.765-.156-1.556.066.426-.158 1.767.155 1.556zm-68.274 3.37c-.076-.503.167-1.948-.156-1.814.075.503-.168 1.948.156 1.814zm-2.334 2.203c.292 3.023.6-1.156 0-1.944.036.888-.05 1.41 0 1.943zm73.873 2.074c-.015-1.19-.1-1.543-.156-2.722-.258.266-.258 1.418 0 1.685.15.63-.424 1.896.155 1.037zm.933 15.163c.005.64-.127 2.057.156 1.685-.144-2.844.28-6.523-.156-8.424.008 1.99-.013 4.765 0 6.74zm-75.427.39c-.095-1.26.198-3.533-.154-4.148.096 1.26-.198 3.532.155 4.148zm37.636 4.795H38.062c-1.347.084-3.108-.173-4.198.13 11.146-.088 22.706.172 33.592-.13zm11.197 0h-8.397c-.832.084-2.07-.17-2.644.13 3.63-.088 7.67.17 11.04-.13zm4.357.13c-.98-.182-2.922-.243-3.89 0 1.31-.097 3.042.14 3.89 0zm.622.128c.78 0 2.275-.084 2.332-.258-.856.02-1.69.06-2.332.258zm12.44-.13c-.574.083-1.55-.168-1.865.13.574-.082 1.548.168 1.865-.13zM27.177 60.86h.466c.362-1.297.053-3.153.156-4.667h-.934c.312 1.662-.326 3.42.31 4.666zm80.404 0h.468c.103-1.394.17-3.243 0-4.667h-.777c.2 1.475-.406 3.622.31 4.666zm-7.775-3.11c-.473.08-1.34-.167-1.555.128.473-.082 1.34.166 1.555-.13zm7.154 1.425c-.052-.313.132-1.482-.157-1.168.05.313-.132 1.48.156 1.168zm-5.29 15.292c-.066 4.172-.202 8.862.31 13.608-.1-9.246.21-18.836-.153-27.865-.624 4.788-.078 9.344-.157 14.257zM62.48 94.553c-.102-11.095.205-23.315-.155-33.694.1 11.095-.205 23.315.155 33.693zm-34.526 8.684c.132 1.554.203-.864.155-1.425 0-14.208.234-26.478-.156-40.953v42.377zm5.288-29.287c-.1-4.188.2-9.492-.156-12.96.1 4.185-.2 9.488.156 12.96zm.933-12.703v61.69c9.176-.085 18.766.173 27.683-.13-.104-20.606.208-41.557-.156-61.948H34.33c-.18.02-.168.203-.155.387zm39.192 0v61.69c9.283.05 18.177-.23 27.526-.13-.104-20.606.207-41.557-.155-61.948H73.52c-.178.02-.166.203-.153.387zm33.436 30.716V99.74c.097.352-.197 1.027.156 1.165V99.61c-.19-14.298.606-25.17-.157-38.75v31.103zM72.898 64.358c.005-.564.054-1.166-.154-1.555.17-.358.083-.928-.155-1.296-.05.823.062 3.245.308 2.85zm0 6.35c-.095-1.26.198-3.532-.154-4.147.096 1.26-.197 3.535.154 4.148zm-39.656 7.13c-.09-.922.19-2.837-.156-3.113.092.92-.19 2.836.156 3.112zm0 1.943c-.067-.423.157-1.764-.156-1.556.068.425-.157 1.766.156 1.557zm68.584 8.813c.104.91-.206 2.158.154 2.853v-2.98c-.032-.102-.002-.257-.154-.26-.06.183-.186.216 0 .387zm-37.947 3.5c.292 2.915-.662 5.013-.933 7.775.49-.147.352-.012.932 0 .317-2.362 1.702-5.104 1.398-7.13-.734-.257-1.152.413-1.244.26.168-.337.1-.866.467-1.035.48.092.3.092.777 0 .364.13.19.706.468.907.378-1.25-1.27-1.42-1.866-.778zm6.532 1.035c.102-.516-.59-.37-1.088-.39-.24 2.368.55 4.98.932 7.26.367.002.457-.224.934-.13-.338-2.573-.706-5.048-.468-7.776-1.664-1.202-2.57.978-1.71 1.814-.004-.593-.278-1.652.467-1.943.437.52-.06-.035.464 0 .414.425.567.27.468 1.165zm31.568 2.075c-.05-.312.134-1.48-.154-1.165.052.31-.13 1.48.154 1.165zm4.98 7.645c-.07-.422.157-1.763-.157-1.554.068.424-.157 1.765.156 1.554zm.31 20.61c.004.642-.005 1.548 0 2.33.006.75-.368 1.796.467 1.944.516-.96.516-3.703 0-4.664h-.31c-.01.164-.2.178-.156.39zm-80.404.127c.498 1.467-.55 3.502.467 4.406.8-1.017-.08-3.435.466-4.665-.362.042-.598-.02-.78-.13-.008.168-.198.18-.154.39zm60.34-.128c-5.41 0-11.244-.338-14.462.518 9.643-.086 19.7.174 29.082-.13-3.793-.63-9.077-.388-14.62-.388zm-38.568.128c-5.48 0-11.89-.34-15.552.518 10.322.003 19.216.01 28.77-.258-3.954-.466-8.568-.26-13.218-.26z"/><path d="M104.16 34.55c-.258-.266-.258-1.42 0-1.685.057 1.178.14 1.533.155 2.722-.58.86-.004-.407-.156-1.037zM72.123 45.307c.367-.478-.215.736.155.26.367.036-.178.346-.155.518-.23-.056.062-.166 0-.39-.32.037-.31.347-.468.52.357.066.253.09 0 .52-.23-.058.06-.167 0-.39-.306.09-.415.345-.465.647.173.27.167.275-.157.13.106-.82.79-1.156 1.09-1.815zM78.965 46.603c.53-.243-2.53 2.1-1.865 1.037.68.09.69-.375 1.244-.388-.63-.245.19-.538.62-.65zM64.19 47.38c.157-.4.256.28.467.26-.07.188-.138-.014-.31 0 1.07.766 1.63 2.41 2.642 3.37-.38.18-.688-.807-1.244-.908.07-.19.136.012.31 0 .023-.323-.246-.402-.31-.65-.125.67-.197.106-.623-.257.068-.188.137.012.313 0 .113-.4-.428-.25-.313-.648-.316.333-.393-.455-1.09-.907.056-.203.274.113.314-.13.027-.11-.06-.123-.158-.13zM70.256 47.9c.387.204-.78.89-.313 1.165.29-.354-.038.394-.31 0-.19.476.078.692-.467.648.108.398.108.25 0 .647-.606-.705.883-1.602 1.09-2.46z"/><path d="M67.3 49.843c.152.003.12.16.156.26.462-.394-.15-1.68.31-2.074-.12.962.28 3.045-.31 2.85.253.346.443.595 0 .907.41.04.51-.18.467-.52.527.277.987.273 1.4-.128.02.415.353.102.933 0-.103-.39-.332.122-.623 0 .09-.316.588-.29.934-.39-.222.376-.12.144.31.13-.566.234-1.323 1.04-1.865.517.426.562-.41.3-.31.907-.79.097-.734-.51-1.4-.518.457-.562-.24-.86.312-1.556-.49.46-.094-.027-.313-.387zM61.702 49.454c-.366-.085-.297-.402-.933-.518-.48.13.335.214.31.388.378.26-.577-.184-.777-.26.298-.578 1.67.15 1.4.39zM64.658 50.62c-.29.23.038.402.31.52-.204.326-.51-.34-.933-.26.025-.152.283-.11.467-.13-.142-.225-.574-.357-.623 0-.453-.113-.175-.194-.156-.52-.208.165-.305.39-.623.13.006-.126.192-.1.313-.13-.22-.207-.536-.33-.933-.388-.41-.43 1.4.174 1.4.648.274-.24.453.057.778.13z"/><path d="M72.278 49.843c.262-.15-.87.61-1.4.648.382.402 1.71-.76 1.556-.387-.56.244-1.093.838-1.867.518.54-.284 1.027-.614 1.71-.777zM68.7 50.23c.333.163-.386.532-.31.91.556-.756.685-.648.155.128a.82.82 0 0 0-.465-.13c.24-.274.445-.577.62-.907zM85.964 55.935c-.057.174-1.552.257-2.332.258.643-.198 1.476-.237 2.332-.258zM69.944 91.963c-.523-.035-.027.52-.465 0-.747.29-.472 1.35-.468 1.943-.86-.837.046-3.017 1.71-1.814-.237 2.73.13 5.203.468 7.776-.477-.094-.567.132-.934.13-.383-2.278-1.173-4.892-.932-7.26.498.02 1.19-.126 1.088.39.1-.895-.054-.74-.468-1.165zm-.465 1.683a.836.836 0 0 1 .464.132c.24-.197.277-.89-.31-.778-.13.15-.206.35-.155.646z"/><path d="M69.633 93c.588-.112.55.58.31.778a.844.844 0 0 0-.464-.132c-.052-.297.024-.496.153-.646z"/></g></svg>