<?xml version="1.0" encoding="utf-8"?>
<!-- Generator: Adobe Illustrator 14.0.0, SVG Export Plug-In . SVG Version: 6.00 Build 43363)  -->
<!DOCTYPE svg PUBLIC "-//W3C//DTD SVG 1.1//EN" "http://www.w3.org/Graphics/SVG/1.1/DTD/svg11.dtd">
<svg version="1.1" id="图层_1" xmlns="http://www.w3.org/2000/svg" xmlns:xlink="http://www.w3.org/1999/xlink" x="0px" y="0px"
	 width="295px" height="295px" viewBox="0 0 295 295" enable-background="new 0 0 295 295" xml:space="preserve">
<g>
	<path fill-rule="evenodd" clip-rule="evenodd" d="M220,166c-21,0-42,0-63,0c0,2.667,0,5.333,0,8c6.681,2.986,20.319-0.986,27,2
		c0,2.667,0,5.333,0,8c-24.333,0-48.667,0-73,0c0-2.333,0-4.667,0-7c4.969-7.364,30.548,5.882,28-9c-17.354-4.646-43.318-0.682-64-2
		c0-36.333,0-72.667,0-109c48.333,0,96.666,0,145,0C220,93.333,220,129.667,220,166z M93,78c0,23.333,0,46.667,0,70
		c36.333,0,72.667,0,109,0c0-24.333,0-48.667,0-73c-35.667,0-71.333,0-107,0C93.743,75.41,92.956,76.29,93,78z"/>
	<path fill-rule="evenodd" clip-rule="evenodd" fill="#FFFFFF" d="M95,75c35.667,0,71.333,0,107,0c0,24.333,0,48.667,0,73
		c-36.333,0-72.667,0-109,0c0-23.333,0-46.667,0-70C92.956,76.29,93.743,75.41,95,75z"/>
	<path fill-rule="evenodd" clip-rule="evenodd" fill="#FFFFFF" d="M75,166c20.682,1.318,46.646-2.646,64,2
		c2.548,14.882-23.031,1.636-28,9c0,2.333,0,4.667,0,7"/>
	<path fill-rule="evenodd" clip-rule="evenodd" fill="#FFFFFF" d="M184,184c0-2.667,0-5.333,0-8c-6.681-2.986-20.319,0.986-27-2
		c0-2.667,0-5.333,0-8c21,0,42,0,63,0"/>
</g>
</svg>
