<?xml version="1.0" encoding="utf-8"?>
<!-- Generator: Adobe Illustrator 14.0.0, SVG Export Plug-In . SVG Version: 6.00 Build 43363)  -->
<!DOCTYPE svg PUBLIC "-//W3C//DTD SVG 1.1//EN" "http://www.w3.org/Graphics/SVG/1.1/DTD/svg11.dtd">
<svg version="1.1" id="图层_1" xmlns="http://www.w3.org/2000/svg" xmlns:xlink="http://www.w3.org/1999/xlink" x="0px" y="0px"
	 width="295px" height="295px" viewBox="0 0 295 295" enable-background="new 0 0 295 295" xml:space="preserve">
<g>
	<path fill-rule="evenodd" clip-rule="evenodd" fill="#FFFFFF" fill-opacity="0" d="M12.486,275.7c45.312,7.058,38.896-37.617,74.259-40.509
		c87.53-8.763,153.765,3.762,195.776,40.509c0-85.509,0-171.022,0-256.535c-39.023-3.019-33.653,38.351-67.509,40.504
		c-45.009,0-90.013,0-135.018,0c-26.35-9.65-25.831-46.178-67.509-40.504C12.486,104.678,12.486,190.191,12.486,275.7z"/>
	<path fill-rule="evenodd" clip-rule="evenodd" fill="#FFFFFF" d="M12.486,19.165c41.678-5.673,41.159,30.854,67.509,40.504
		c45.004,0,90.009,0,135.018,0c33.855-2.153,28.485-43.523,67.509-40.504c0,85.513,0,171.026,0,256.535
		c-42.012-36.747-108.246-49.271-195.776-40.509c-35.363,2.892-28.947,47.566-74.259,40.509
		C12.486,190.191,12.486,104.678,12.486,19.165z M32.736,140.683c13.504,0,27.004,0,40.509,0
		c7.695-54.954-8.692-85.821-40.509-101.263C32.736,73.174,32.736,106.928,32.736,140.683z M221.763,140.683
		c13.5,0,27.009,0,40.509,0c-4.359-29.399,8.807-76.315-6.75-94.513C234.595,68.001,212.376,88.537,221.763,140.683z
		 M93.495,214.941c36.009,0,72.009,0,108.018,0c0-45.009,0-90.013,0-135.018c-36.009,0-72.009,0-108.018,0
		C93.495,124.928,93.495,169.933,93.495,214.941z M39.491,255.45c23.687-21.322,42.469-47.54,33.754-101.268
		c-13.504,0-27.004,0-40.509,0C37.109,185.814,23.912,235.024,39.491,255.45z M262.271,248.7c0-31.509,0-63.009,0-94.518
		c-13.5,0-27.009,0-40.509,0C213.58,207.374,233.241,232.722,262.271,248.7z"/>
	<path fill-rule="evenodd" clip-rule="evenodd" fill="#FFFFFF" fill-opacity="0" d="M32.736,39.419c31.816,15.442,48.204,46.31,40.509,101.263
		c-13.504,0-27.004,0-40.509,0C32.736,106.928,32.736,73.174,32.736,39.419z"/>
	<path fill-rule="evenodd" clip-rule="evenodd" fill="#FFFFFF" fill-opacity="0" d="M255.521,46.169c15.557,18.198,2.391,65.114,6.75,94.513
		c-13.5,0-27.009,0-40.509,0C212.376,88.537,234.595,68.001,255.521,46.169z"/>
	<path fill-rule="evenodd" clip-rule="evenodd" fill="#FFFFFF" fill-opacity="0" d="M93.495,79.924c36.009,0,72.009,0,108.018,0
		c0,45.004,0,90.009,0,135.018c-36.009,0-72.009,0-108.018,0C93.495,169.933,93.495,124.928,93.495,79.924z"/>
	<path fill-rule="evenodd" clip-rule="evenodd" fill="#FFFFFF" fill-opacity="0" d="M32.736,154.183c13.504,0,27.004,0,40.509,0
		c8.714,53.728-10.068,79.945-33.754,101.268C23.912,235.024,37.109,185.814,32.736,154.183z"/>
	<path fill-rule="evenodd" clip-rule="evenodd" fill="#FFFFFF" fill-opacity="0" d="M221.763,154.183c13.5,0,27.009,0,40.509,0
		c0,31.509,0,63.009,0,94.518C233.241,232.722,213.58,207.374,221.763,154.183z"/>
</g>
</svg>
